<svg width="100" height="28" viewBox="0 0 100 28" fill="none" xmlns="http://www.w3.org/2000/svg">
<path d="M17.0483 8.16198C22.1354 8.40911 25.6485 9.57253 25.6485 9.57253C25.6485 9.57253 25.2113 6.47768 25.2113 4.79718C25.2113 3.11668 25.7778 0.185314 25.7778 0.185314C25.7778 0.185314 21.0633 1.29931 12.9535 1.29931C4.91983 1.34113 0 0.227137 0 0.227137C0 0.227137 0.528482 3.40183 0.528482 4.839C0.528482 6.27617 0.216716 9.61435 0.216716 9.61435C0.216716 9.61435 3.76781 8.44713 8.81311 8.2038C9.1667 9.97555 9.31118 11.12 9.31118 14.6901C9.31118 22.777 7.76755 27.8147 7.76755 27.8147C7.76755 27.8147 10.0792 27.3508 12.8281 27.3813C16.1054 27.3813 18.0216 27.8147 18.0216 27.8147C18.0216 27.8147 16.6149 21.0471 16.6149 12.9601C16.6529 10.1656 16.748 9.97555 17.0483 8.16198Z" fill="url(#paint0_linear_1_16373)"/>
<path d="M16.535 18.9864C16.6187 18.9027 16.6643 18.9027 16.7061 18.9027V18.8609C19.2003 19.1917 21.0557 20.0623 21.0557 20.0623V10.793C21.0557 10.793 19.2383 11.869 16.5845 12.0324C16.5845 11.9906 16.5845 11.9488 16.5845 11.9108C16.5426 11.9108 16.5008 11.9526 16.4552 11.9944C16.459 13.1807 16.535 17.7583 16.535 18.9864Z" fill="url(#paint1_linear_1_16373)"/>
<path d="M15.6036 6.60343C20.6907 6.85056 23.9376 7.70982 23.9376 7.70982C23.9376 7.70982 23.7665 6.47796 23.7665 4.79746C23.7665 3.11316 24.0669 2.0486 24.0669 2.0486C24.0669 2.0486 19.5805 2.70635 12.9535 2.70635C6.32661 2.74817 1.71094 2.09042 1.71094 2.09042C1.71094 2.09042 2.0113 3.40212 2.0113 4.83929C2.0113 6.27646 1.92765 7.75164 1.92765 7.75164C1.92765 7.75164 5.17459 6.88858 10.2199 6.64525C10.4328 8.45122 10.6039 11.1202 10.6039 14.6904C10.6039 22.7773 9.70661 26.1421 9.70661 26.1421C9.70661 26.1421 11.0335 25.9368 12.8281 25.9368C14.6226 25.9368 16.1206 26.1421 16.1206 26.1421C16.1206 26.1421 15.2234 22.7773 15.2234 14.6904C15.2196 11.0784 15.3907 8.45122 15.6036 6.60343Z" fill="#09255F"/>
<path d="M15.0523 17.3518C15.1359 17.2681 15.1815 17.2681 15.2234 17.2681V17.2263C17.8316 17.3898 19.4968 18.0475 19.4968 18.0475V12.9224C19.4968 12.9224 17.8316 13.5802 15.1777 13.7436C15.1777 13.7018 15.1777 13.66 15.1777 13.622C15.1359 13.622 15.0941 13.6638 15.0485 13.7056C15.0523 14.8919 15.0523 16.1237 15.0523 17.3518Z" fill="#09255F"/>
<path d="M43.4476 9.51797H39V5.99977H51.9704V9.51797H47.5435V21.686H43.4476V9.51797Z" fill="white"/>
<path d="M60.8606 17.518H58.6265V21.686H54.5306V5.99977H61.1503C62.4604 5.99977 63.5981 6.2388 64.5635 6.71685C65.5289 7.17997 66.2736 7.85224 66.7976 8.73366C67.3217 9.60014 67.5837 10.6235 67.5837 11.8037C67.5837 12.9391 67.3355 13.9325 66.839 14.7841C66.3563 15.6207 65.6599 16.278 64.7497 16.7561L67.8733 21.686H63.4878L60.8606 17.518ZM63.4464 11.8037C63.4464 11.0717 63.2327 10.504 62.8052 10.1006C62.3776 9.69725 61.7433 9.49557 60.902 9.49557H58.6265V14.0894H60.902C61.7433 14.0894 62.3776 13.8952 62.8052 13.5068C63.2327 13.1034 63.4464 12.5357 63.4464 11.8037Z" fill="white"/>
<path d="M77.5594 21.9998C75.408 21.9998 73.7324 21.3648 72.5326 20.095C71.3466 18.8252 70.7536 17.025 70.7536 14.6944V5.99977H74.8495V14.56C74.8495 17.0698 75.7666 18.3247 77.6008 18.3247C79.4212 18.3247 80.3314 17.0698 80.3314 14.56V5.99977H84.3652V14.6944C84.3652 17.025 83.7653 18.8252 82.5655 20.095C81.3795 21.3648 79.7108 21.9998 77.5594 21.9998Z" fill="white"/>
<path d="M99.8 18.2575V21.686H88.1743V5.99977H99.5311V9.42834H92.2288V12.0726H98.6622V15.3891H92.2288V18.2575H99.8Z" fill="white"/>
<defs>
<linearGradient id="paint0_linear_1_16373" x1="23.5607" y1="-25.1116" x2="32.5807" y2="89.1901" gradientUnits="userSpaceOnUse">
<stop stop-color="white"/>
<stop offset="1" stop-color="#B4C1CA"/>
</linearGradient>
<linearGradient id="paint1_linear_1_16373" x1="23.5607" y1="-25.1116" x2="32.5807" y2="89.1901" gradientUnits="userSpaceOnUse">
<stop stop-color="white"/>
<stop offset="1" stop-color="#B4C1CA"/>
</linearGradient>
</defs>
</svg>
