<svg width="195" height="24" viewBox="0 0 195 24" fill="none" xmlns="http://www.w3.org/2000/svg">
<path d="M57.0603 5.83862L65.3725 23.4271V23.5593H58.8324L57.3246 20.1438H48.0969L46.5856 23.5593H40.2534V23.4271L48.4881 5.83862H57.0603ZM49.9227 16.1053H55.4988L52.7892 10.0075H52.6323L49.9227 16.1053Z" fill="white"/>
<path d="M66.2847 14.7765V5.83862H72.2767V18.7921H82.8298V5.83862H88.8219V14.7765C88.8219 21.603 85.7474 23.9999 77.5427 23.9999C69.3591 23.9999 66.2847 21.603 66.2847 14.7765Z" fill="white"/>
<path d="M115.792 23.4271V23.5593H108.262L101.722 17.4359H99.3768V23.5593H93.3848V5.83862H107.977C113.214 5.83862 115.533 8.00105 115.533 11.6492C115.533 14.9845 113.553 17.0949 109.149 17.4077L115.792 23.4271ZM99.3768 10.3988V13.6592H109.227V10.3988H99.3768Z" fill="white"/>
<path d="M118.007 14.6982C118.007 7.87164 121.342 5.39551 130.514 5.39551C139.687 5.39551 143.021 7.87164 143.021 14.6982C143.021 21.5247 139.686 24 130.514 24C121.343 24 118.007 21.5247 118.007 14.6982ZM136.455 18.7887V10.606H124.573V18.7878H136.455V18.7887Z" fill="white"/>
<path d="M169.208 23.4271V23.5593H161.677L155.136 17.4342H152.792V23.5593H146.8V5.83862H161.393C166.63 5.83862 168.949 8.00105 168.949 11.6492C168.949 14.9845 166.969 17.0949 162.565 17.4077L169.208 23.4271ZM152.792 10.3988V13.6592H162.641V10.3988H152.792Z" fill="white"/>
<path d="M186.015 5.83862L194.326 23.4271V23.5593H187.786L186.275 20.1456H177.051L175.539 23.5593H169.208V23.4271L177.442 5.83862H186.015ZM178.877 16.1053H184.453L181.744 10.0075H181.588L178.877 16.1053Z" fill="white"/>
<path d="M13.4913 23.6405L19.5168 6.33485H20.5866L21.9269 10.1839L26.9805 9.36966L23.7183 0H16.3851L8.15479 23.6405H13.4913Z" fill="white"/>
<path d="M34.1053 9.9248L19.5419 12.1533L16.7485 20.2338L34.1053 9.9248Z" fill="white"/>
<path d="M14.455 0H12.8653L8.51579 12.319L3.1476 13.1314L0 13.6073L2.37215 15.7301L6.11015 19.0742L4.52666 23.6405H6.11279L7.85313 18.623L3.37142 14.6127L9.62961 13.6663L14.455 0Z" fill="white"/>
<path d="M31.9493 23.6404L28.8793 14.7078L24.439 17.3998L26.612 23.6404H31.9493Z" fill="white"/>
</svg>
