<svg width="140" height="48" viewBox="0 0 140 48" fill="none" xmlns="http://www.w3.org/2000/svg">
<path d="M140 0H0V48H140V0Z" fill="#A5CF4F"/>
<path d="M110.197 19.6933C110.059 19.1436 109.646 18.594 109.232 18.1817C108.543 17.6321 107.716 17.3573 106.889 17.2198C105.786 16.945 104.821 16.8076 103.718 16.945C102.616 16.945 101.513 17.0824 100.41 17.3573C99.5829 17.4947 98.8936 17.9069 98.2044 18.4566C97.653 18.8688 97.3773 19.4184 97.2394 19.9681C97.1016 20.93 97.1016 21.7545 97.1016 22.7164V24.915C97.1016 25.8768 97.1016 26.8387 97.2394 27.6632C97.3773 28.2129 97.7908 28.7625 98.3422 29.1747C99.0315 29.7244 99.8586 29.9992 100.686 30.1366C101.788 30.4115 102.891 30.5489 103.856 30.4115C104.959 30.4115 106.062 30.274 107.165 29.9992C107.992 29.8618 108.681 29.4496 109.37 28.8999C109.922 28.4877 110.197 27.938 110.335 27.3884C110.473 26.4265 110.473 25.602 110.473 24.6401V22.4415C110.335 21.6171 110.335 20.6552 110.197 19.6933ZM106.475 24.2279C106.475 24.7775 106.475 25.1898 106.475 25.7394C106.475 26.0143 106.338 26.2891 106.062 26.5639C105.786 26.8387 105.51 26.9761 105.097 27.1136C104.683 27.251 104.132 27.3884 103.718 27.251C103.305 27.251 102.891 27.251 102.478 27.1136C102.064 26.9761 101.788 26.8387 101.513 26.5639C101.237 26.2891 101.099 26.0143 101.099 25.7394C101.099 25.1898 101.099 24.7775 101.099 24.2279V22.9912C101.099 22.4415 101.099 22.0293 101.099 21.4796C101.099 21.2048 101.237 20.93 101.513 20.6552C101.788 20.3803 102.064 20.2429 102.478 20.1055C102.891 19.9681 103.443 19.9681 103.856 19.9681C104.27 19.9681 104.821 19.9681 105.235 20.1055C105.648 20.2429 105.924 20.3803 106.2 20.6552C106.475 20.93 106.613 21.2048 106.613 21.4796C106.613 22.0293 106.613 22.4415 106.613 22.9912L106.475 24.2279Z" fill="#343741"/>
<path d="M59.0528 19.6933C58.915 19.1436 58.5014 18.594 58.0879 18.1817C57.3986 17.6321 56.5715 17.3573 55.7444 17.2198C54.6416 16.945 53.6766 16.8076 52.5738 16.945C51.471 16.945 50.3682 17.0824 49.2654 17.3573C48.4383 17.4947 47.7491 17.9069 47.0598 18.4566C46.5084 18.8688 46.2327 19.4184 46.0949 19.9681C45.957 20.93 45.957 21.7545 45.957 22.7164V24.915C45.957 25.8768 45.957 26.8387 46.0949 27.8006C46.2327 28.3503 46.6463 28.8999 47.1977 29.3122C47.8869 29.8618 48.714 30.1366 49.5411 30.274C50.6439 30.5489 51.6089 30.6863 52.7117 30.5489C53.8145 30.5489 54.9173 30.4115 56.0201 30.1366C56.8472 29.9992 57.5365 29.587 58.2257 29.0373C58.7771 28.6251 59.0528 28.0754 59.1907 27.5258C59.3285 26.5639 59.3285 25.7394 59.3285 24.7775V22.5789C59.1907 21.6171 59.1907 20.6552 59.0528 19.6933ZM55.3309 24.2279C55.3309 24.7775 55.3309 25.1898 55.193 25.7394C55.193 26.0143 55.0552 26.2891 54.7795 26.5639C54.5038 26.8387 54.2281 26.9761 53.8145 27.1136C53.401 27.251 52.8495 27.3884 52.436 27.251C52.0224 27.251 51.471 27.251 51.0575 27.1136C50.7818 26.9761 50.3682 26.8387 50.0925 26.5639C49.8168 26.2891 49.679 26.0143 49.679 25.7394C49.679 25.1898 49.679 24.7775 49.679 24.2279V22.9912C49.679 22.4415 49.679 22.0293 49.679 21.4796C49.679 21.2048 49.8168 20.93 50.0925 20.6552C50.3682 20.3803 50.6439 20.2429 51.0575 20.1055C51.471 19.9681 52.0224 19.8307 52.436 19.9681C52.8495 19.9681 53.2631 19.9681 53.8145 20.1055C54.2281 20.2429 54.5038 20.3803 54.7795 20.6552C55.0552 20.93 55.193 21.2048 55.193 21.4796C55.193 22.0293 55.3309 22.4415 55.3309 22.9912V24.2279Z" fill="#343741"/>
<path d="M43.6192 19.6933C43.4814 19.1436 43.0678 18.594 42.6543 18.1817C41.965 17.6321 41.1379 17.3573 40.3108 17.2198C39.208 16.945 38.2431 16.8076 37.1402 16.945C36.0374 16.945 34.9346 17.0824 33.8318 17.3573C33.0047 17.4947 32.3155 17.9069 31.6262 18.4566C31.0748 18.8688 30.7991 19.4184 30.6613 19.9681C30.5234 20.93 30.5234 21.7545 30.5234 22.7164V24.915C30.5234 25.8768 30.5234 26.8387 30.6613 27.6632C30.7991 28.2129 31.2127 28.7625 31.6262 29.1747C32.3155 29.7244 33.1426 29.9992 33.9697 30.1366C35.0725 30.4115 36.0374 30.5489 37.1402 30.4115C38.2431 30.4115 39.3459 30.274 40.4487 29.9992C41.2758 29.8618 41.965 29.4496 42.6543 28.8999C43.2057 28.4877 43.4814 27.938 43.6192 27.3884C43.7571 26.4265 43.7571 25.602 43.7571 24.6401V22.4415C43.8949 21.6171 43.7571 20.6552 43.6192 19.6933ZM39.8973 24.2279C39.8973 24.7775 39.8973 25.1898 39.8973 25.7394C39.8973 26.0143 39.7594 26.2891 39.4837 26.5639C39.208 26.8387 38.9323 26.9761 38.5188 27.1136C38.1052 27.251 37.5538 27.3884 37.1402 27.251C36.7267 27.251 36.3131 27.251 35.8996 27.1136C35.486 26.9761 35.2103 26.8387 34.9346 26.5639C34.6589 26.2891 34.5211 26.0143 34.5211 25.7394C34.5211 25.1898 34.3832 24.7775 34.5211 24.2279V22.9912C34.5211 22.3041 34.5211 21.7545 34.5211 21.4796C34.5211 21.2048 34.6589 20.93 34.9346 20.6552C35.2103 20.3803 35.486 20.2429 35.8996 20.1055C36.3131 19.9681 36.8645 19.9681 37.2781 19.9681C37.6916 19.9681 38.1052 19.9681 38.5188 20.1055C38.9323 20.2429 39.208 20.3803 39.4837 20.6552C39.7594 20.93 39.8973 21.2048 39.8973 21.4796C39.8973 22.0293 39.8973 22.4415 39.8973 22.9912V24.2279Z" fill="#343741"/>
<path d="M112.402 30.2732H116.124V22.9903L121.087 30.2732H124.947V17.0815H121.087V24.3644L116.124 17.0815H112.402V30.2732Z" fill="#343741"/>
<path d="M95.0378 17.0815H90.9023V30.1357H95.0378V17.0815Z" fill="#343741"/>
<path d="M78.3516 30.2732H88.8282V26.9753H82.4871V17.0815H78.3516V30.2732Z" fill="#343741"/>
<path d="M61.2617 30.2732H64.5701V20.242L67.0514 30.2732H70.0841L72.7033 19.9672V30.2732H76.0117V17.0815H70.222L68.7056 23.6774L67.0514 17.0815H61.2617V30.2732Z" fill="#343741"/>
<path d="M16.0469 19.9672H23.7665L16.0469 27.5249V30.2732H28.7291V27.3875H21.1473L28.7291 19.8298V17.0815H16.0469V19.9672Z" fill="#343741"/>
</svg>
