<svg width="44" height="47" viewBox="0 0 44 47" fill="none" xmlns="http://www.w3.org/2000/svg">
<path d="M29.0997 13.569C37.7829 13.9894 43.7794 15.9685 43.7794 15.9685C43.7794 15.9685 43.033 10.7039 43.033 7.84519C43.033 4.98651 44 0 44 0C44 0 35.9528 1.895 22.1103 1.895C8.39764 1.96615 0 0.0711435 0 0.0711435C0 0.0711435 0.902065 5.47158 0.902065 7.91633C0.902065 10.3611 0.369912 16.0396 0.369912 16.0396C0.369912 16.0396 6.43127 14.0541 15.0431 13.6402C15.6466 16.6541 15.8932 18.6008 15.8932 24.6739C15.8932 38.4304 13.2584 47 13.2584 47C13.2584 47 17.2041 46.2109 21.8962 46.2627C27.4903 46.2627 30.7611 47 30.7611 47C30.7611 47 28.3599 35.4877 28.3599 21.7311C28.4248 16.9774 28.587 16.6541 29.0997 13.569Z" fill="url(#paint0_linear_1_11023)"/>
<path d="M28.2236 31.9822C28.3664 31.84 28.4442 31.84 28.5156 31.84V31.7688C32.7729 32.3315 35.9398 33.8126 35.9398 33.8126V18.0446C35.9398 18.0446 32.8378 19.8749 28.308 20.153C28.308 20.0819 28.308 20.0107 28.308 19.9461C28.2366 19.9461 28.1652 20.0172 28.0873 20.0883C28.0938 22.1062 28.2236 29.8932 28.2236 31.9822Z" fill="url(#paint1_linear_1_11023)"/>
<path d="M26.6332 10.9161C35.3164 11.3365 40.8586 12.7982 40.8586 12.7982C40.8586 12.7982 40.5665 10.7027 40.5665 7.84404C40.5665 4.9789 41.0792 3.16797 41.0792 3.16797C41.0792 3.16797 33.4214 4.28686 22.1099 4.28686C10.7984 4.35801 2.91992 3.23911 2.91992 3.23911C2.91992 3.23911 3.43261 5.47043 3.43261 7.91518C3.43261 10.3599 3.28983 12.8694 3.28983 12.8694C3.28983 12.8694 8.83202 11.4012 17.4438 10.9873C17.8072 14.0594 18.0993 18.5996 18.0993 24.6727C18.0993 38.4293 16.5677 44.1531 16.5677 44.1531C16.5677 44.1531 18.8326 43.8039 21.8957 43.8039C24.9589 43.8039 27.5158 44.1531 27.5158 44.1531C27.5158 44.1531 25.9842 38.4293 25.9842 24.6727C25.9777 18.5285 26.2698 14.0594 26.6332 10.9161Z" fill="#001A54"/>
<path d="M25.6922 29.2C25.835 29.0578 25.9128 29.0577 25.9842 29.0577V28.9866C30.4361 29.2647 33.2786 30.3836 33.2786 30.3836V21.6653C33.2786 21.6653 30.4361 22.7842 25.9064 23.0623C25.9064 22.9911 25.9064 22.92 25.9064 22.8553C25.835 22.8553 25.7636 22.9265 25.6857 22.9976C25.6922 25.0155 25.6922 27.111 25.6922 29.2Z" fill="#001A54"/>
<defs>
<linearGradient id="paint0_linear_1_11023" x1="40.2156" y1="-43.0323" x2="55.5079" y2="151.413" gradientUnits="userSpaceOnUse">
<stop stop-color="white"/>
<stop offset="1" stop-color="#B4C1CA"/>
</linearGradient>
<linearGradient id="paint1_linear_1_11023" x1="40.2156" y1="-43.0323" x2="55.5079" y2="151.413" gradientUnits="userSpaceOnUse">
<stop stop-color="white"/>
<stop offset="1" stop-color="#B4C1CA"/>
</linearGradient>
</defs>
</svg>
