<svg width="195" height="24" viewBox="0 0 195 24" fill="none" xmlns="http://www.w3.org/2000/svg">
<path d="M57.0608 5.83862L65.373 23.4271V23.5593H58.8328L57.3251 20.1438H48.0974L46.5861 23.5593H40.2539V23.4271L48.4886 5.83862H57.0608ZM49.9232 16.1053H55.4993L52.7897 10.0075H52.6328L49.9232 16.1053Z" fill="black"/>
<path d="M66.2852 14.7765V5.83862H72.2772V18.7921H82.8303V5.83862H88.8224V14.7765C88.8224 21.603 85.7479 23.9999 77.5432 23.9999C69.3596 23.9999 66.2852 21.603 66.2852 14.7765Z" fill="black"/>
<path d="M115.793 23.4271V23.5593H108.263L101.723 17.4359H99.3778V23.5593H93.3857V5.83862H107.978C113.215 5.83862 115.534 8.00105 115.534 11.6492C115.534 14.9845 113.554 17.0949 109.15 17.4077L115.793 23.4271ZM99.3778 10.3988V13.6592H109.228V10.3988H99.3778Z" fill="black"/>
<path d="M118.008 14.6982C118.008 7.87164 121.343 5.39551 130.515 5.39551C139.688 5.39551 143.022 7.87164 143.022 14.6982C143.022 21.5247 139.687 24 130.515 24C121.344 24 118.008 21.5247 118.008 14.6982ZM136.456 18.7887V10.606H124.574V18.7878H136.456V18.7887Z" fill="black"/>
<path d="M169.208 23.4271V23.5593H161.678L155.137 17.4342H152.793V23.5593H146.801V5.83862H161.393C166.63 5.83862 168.949 8.00105 168.949 11.6492C168.949 14.9845 166.969 17.0949 162.565 17.4077L169.208 23.4271ZM152.793 10.3988V13.6592H162.642V10.3988H152.793Z" fill="black"/>
<path d="M186.016 5.83862L194.327 23.4271V23.5593H187.787L186.276 20.1456H177.052L175.54 23.5593H169.209V23.4271L177.443 5.83862H186.016ZM178.878 16.1053H184.454L181.745 10.0075H181.589L178.878 16.1053Z" fill="black"/>
<path d="M13.4908 23.6405L19.5163 6.33485H20.5861L21.9264 10.1839L26.98 9.36966L23.7178 0H16.3846L8.1543 23.6405H13.4908Z" fill="#E21E25"/>
<path d="M34.1048 9.9248L19.5414 12.1533L16.748 20.2338L34.1048 9.9248Z" fill="#E21E25"/>
<path d="M14.455 0H12.8653L8.51579 12.319L3.1476 13.1314L0 13.6073L2.37215 15.7301L6.11015 19.0742L4.52666 23.6405H6.11279L7.85313 18.623L3.37142 14.6127L9.62961 13.6663L14.455 0Z" fill="black"/>
<path d="M31.9498 23.6404L28.8798 14.7078L24.4395 17.3998L26.6125 23.6404H31.9498Z" fill="#E21E25"/>
</svg>
