<svg width="26" height="28" viewBox="0 0 26 28" fill="none" xmlns="http://www.w3.org/2000/svg">
<path d="M17.0483 8.16198C22.1354 8.40911 25.6485 9.57253 25.6485 9.57253C25.6485 9.57253 25.2113 6.47768 25.2113 4.79718C25.2113 3.11668 25.7778 0.185315 25.7778 0.185315C25.7778 0.185315 21.0633 1.29931 12.9535 1.29931C4.91983 1.34113 0 0.227137 0 0.227137C0 0.227137 0.528482 3.40183 0.528482 4.839C0.528482 6.27617 0.216716 9.61436 0.216716 9.61436C0.216716 9.61436 3.76781 8.44713 8.81311 8.2038C9.1667 9.97555 9.31118 11.12 9.31118 14.6901C9.31118 22.777 7.76755 27.8147 7.76755 27.8147C7.76755 27.8147 10.0792 27.3508 12.8281 27.3813C16.1054 27.3813 18.0216 27.8147 18.0216 27.8147C18.0216 27.8147 16.6149 21.0471 16.6149 12.9601C16.6529 10.1657 16.748 9.97555 17.0483 8.16198Z" fill="url(#paint0_linear_5_1125)"/>
<path d="M16.535 18.9864C16.6187 18.9027 16.6643 18.9027 16.7061 18.9027V18.8609C19.2003 19.1917 21.0557 20.0623 21.0557 20.0623V10.793C21.0557 10.793 19.2383 11.869 16.5845 12.0325C16.5845 11.9906 16.5845 11.9488 16.5845 11.9108C16.5426 11.9108 16.5008 11.9526 16.4552 11.9944C16.459 13.1807 16.535 17.7583 16.535 18.9864Z" fill="url(#paint1_linear_5_1125)"/>
<path d="M15.6036 6.60343C20.6907 6.85056 23.9376 7.70982 23.9376 7.70982C23.9376 7.70982 23.7665 6.47796 23.7665 4.79747C23.7665 3.11317 24.0669 2.0486 24.0669 2.0486C24.0669 2.0486 19.5805 2.70635 12.9535 2.70635C6.32661 2.74817 1.71094 2.09042 1.71094 2.09042C1.71094 2.09042 2.0113 3.40212 2.0113 4.83929C2.0113 6.27646 1.92765 7.75165 1.92765 7.75165C1.92765 7.75165 5.17459 6.88858 10.2199 6.64525C10.4328 8.45122 10.6039 11.1202 10.6039 14.6904C10.6039 22.7773 9.70661 26.1421 9.70661 26.1421C9.70661 26.1421 11.0335 25.9368 12.8281 25.9368C14.6226 25.9368 16.1206 26.1421 16.1206 26.1421C16.1206 26.1421 15.2234 22.7773 15.2234 14.6904C15.2196 11.0784 15.3907 8.45122 15.6036 6.60343Z" fill="#09255F"/>
<path d="M15.0523 17.3518C15.1359 17.2681 15.1815 17.2681 15.2234 17.2681V17.2263C17.8316 17.3898 19.4968 18.0475 19.4968 18.0475V12.9224C19.4968 12.9224 17.8316 13.5802 15.1777 13.7437C15.1777 13.7018 15.1777 13.66 15.1777 13.622C15.1359 13.622 15.0941 13.6638 15.0485 13.7056C15.0523 14.8919 15.0523 16.1237 15.0523 17.3518Z" fill="#09255F"/>
<defs>
<linearGradient id="paint0_linear_5_1125" x1="23.5607" y1="-25.1116" x2="32.5807" y2="89.1901" gradientUnits="userSpaceOnUse">
<stop stop-color="white"/>
<stop offset="1" stop-color="#B4C1CA"/>
</linearGradient>
<linearGradient id="paint1_linear_5_1125" x1="23.5607" y1="-25.1116" x2="32.5807" y2="89.1901" gradientUnits="userSpaceOnUse">
<stop stop-color="white"/>
<stop offset="1" stop-color="#B4C1CA"/>
</linearGradient>
</defs>
</svg>
