<svg width="14" height="14" viewBox="0 0 14 14" fill="none" xmlns="http://www.w3.org/2000/svg">
<circle cx="7" cy="7" r="7" fill="#585858"/>
<path d="M6.43575 8.21111C6.43575 7.82593 6.52142 7.50741 6.69274 7.25556C6.87151 7.0037 7.12849 6.72593 7.46369 6.42222C7.7095 6.2 7.88827 6.01481 8 5.86667C8.11918 5.71111 8.17877 5.53704 8.17877 5.34444C8.17877 5.07037 8.06704 4.85556 7.84358 4.7C7.62756 4.53704 7.33706 4.45556 6.97207 4.45556C6.62197 4.45556 6.30913 4.52963 6.03352 4.67778C5.76536 4.81852 5.53818 5.01852 5.35196 5.27778L4 4.48889C4.31285 4.01481 4.73371 3.64815 5.26257 3.38889C5.79888 3.12963 6.43203 3 7.16201 3C8.01862 3 8.70391 3.18148 9.21788 3.54444C9.73929 3.90741 10 4.41111 10 5.05556C10 5.35926 9.94786 5.62593 9.84358 5.85556C9.74674 6.08518 9.62384 6.28148 9.47486 6.44444C9.33333 6.6 9.14711 6.78148 8.9162 6.98889C8.6406 7.23333 8.43948 7.44074 8.31285 7.61111C8.18622 7.77407 8.12291 7.97407 8.12291 8.21111H6.43575ZM7.28492 11C6.97952 11 6.72253 10.9037 6.51397 10.7111C6.31285 10.5111 6.21229 10.2704 6.21229 9.98889C6.21229 9.70741 6.31285 9.47407 6.51397 9.28889C6.71508 9.0963 6.97207 9 7.28492 9C7.59777 9 7.85475 9.0963 8.05587 9.28889C8.25698 9.47407 8.35754 9.70741 8.35754 9.98889C8.35754 10.2704 8.25326 10.5111 8.04469 10.7111C7.84358 10.9037 7.59032 11 7.28492 11Z" fill="white"/>
</svg>
