<svg xmlns="http://www.w3.org/2000/svg" viewBox="0 0 136 23.64"><defs><style>.a{fill:#fff;}</style></defs><title>icon-roblox</title><path class="a" d="M27,0,22.11,18.77l18.77,4.87L45.75,4.87ZM0,2.09V21.56H8.61V14.35a2.81,2.81,0,0,1,2.68,1.76,15.24,15.24,0,0,1,1.11,5.45h8.94a16.4,16.4,0,0,0-3.76-9.33A5,5,0,0,0,19.8,7.92a5.3,5.3,0,0,0-1.89-4.16,7.56,7.56,0,0,0-5.19-1.67Zm47.69,0V21.56H61.28a7.43,7.43,0,0,0,4.91-1.47,4.84,4.84,0,0,0,1.76-3.92,4.26,4.26,0,0,0-.78-2.62,6.54,6.54,0,0,0-2.28-1.85,4.56,4.56,0,0,0,2.54-4.18,4.72,4.72,0,0,0-1.91-4,9.13,9.13,0,0,0-5.64-1.47Zm22.87,0V21.56H86.73V16.67H79.18V2.09Zm40.59,0,7.6,9.62-7.6,9.85h9.37l3-3.87,3.09,3.87H136l-7.83-9.9,7.36-9.57h-9.35l-2.74,3.59-2.87-3.59Zm-21.73,0V21.52h19.39V2.13ZM56.31,6h.52q2.27,0,2.27,1.89a1.72,1.72,0,0,1-.59,1.48,3.53,3.53,0,0,1-2,.42h-.22Zm-47.7.09h.52a1.9,1.9,0,0,1,1.57.59A2,2,0,0,1,11.18,8q0,1.82-2.32,1.82H8.61Zm24,3.44,3.62.94-.94,3.62-3.62-.94Zm64.65.41H101v3.74H97.24ZM56.31,13.06h.6q2.41,0,2.41,2.19a1.8,1.8,0,0,1-.64,1.57,3.74,3.74,0,0,1-2.11.45h-.27Z"/></svg>