<svg width="19" height="20" viewBox="0 0 19 20" fill="none" xmlns="http://www.w3.org/2000/svg">
<path d="M15 19L5.30871 15.0354C4.87243 14.8569 4.90285 14.2291 5.35435 14.0937L17.6286 10.4114C18.082 10.2754 18.1101 9.64405 17.6706 9.46826L11.5894 7.03576C11.5303 7.01214 11.4673 7 11.4037 7H6" stroke="#E21E25" stroke-width="2" stroke-linecap="round"/>
<rect x="8" y="18" width="11" height="2" fill="black"/>
<path d="M1 2C1 1.44772 1.44772 1 2 1H7.57765C8.12993 1 8.57765 1.44772 8.57765 2V6C8.57765 6.55228 8.12993 7 7.57765 7H2C1.44772 7 1 6.55228 1 6V2Z" stroke="black" stroke-width="2"/>
<path d="M2 2L4 4M4 4V6.5M4 4H8" stroke="black" stroke-width="1.2" stroke-linecap="round"/>
</svg>
