<svg width="54" height="54" viewBox="0 0 54 54" fill="none" xmlns="http://www.w3.org/2000/svg">
<circle cx="27" cy="27" r="27" fill="url(#paint0_linear_1_12086)"/>
<path d="M34.7899 31.8802C34.7899 32.9802 34.4999 34.0002 33.9199 34.9402C33.3599 35.8602 32.5199 36.6202 31.3999 37.2202C30.2999 37.8002 28.9899 38.1202 27.4699 38.1802V40.6102H25.5499V38.1502C23.4299 37.9702 21.7199 37.3402 20.4199 36.2602C19.1199 35.1602 18.4299 33.6702 18.3499 31.7902H23.8099C23.9299 32.9902 24.5099 33.7602 25.5499 34.1002V29.3602C23.9899 28.9602 22.7399 28.5702 21.7999 28.1902C20.8799 27.8102 20.0699 27.2002 19.3699 26.3602C18.6699 25.5202 18.3199 24.3702 18.3199 22.9102C18.3199 21.0902 18.9899 19.6302 20.3299 18.5302C21.6899 17.4302 23.4299 16.8102 25.5499 16.6702V14.2402H27.4699V16.6702C29.5699 16.8302 31.2299 17.4402 32.4499 18.5002C33.6699 19.5602 34.3499 21.0302 34.4899 22.9102H28.9999C28.8799 21.8302 28.3699 21.1302 27.4699 20.8102V25.4602C29.1299 25.9202 30.4099 26.3302 31.3099 26.6902C32.2099 27.0502 33.0099 27.6502 33.7099 28.4902C34.4299 29.3102 34.7899 30.4402 34.7899 31.8802ZM23.7499 22.6702C23.7499 23.1702 23.8999 23.5902 24.1999 23.9302C24.5199 24.2702 24.9699 24.5702 25.5499 24.8302V20.6602C24.9899 20.7602 24.5499 20.9802 24.2299 21.3202C23.9099 21.6402 23.7499 22.0902 23.7499 22.6702ZM27.4699 34.1902C28.0699 34.0902 28.5399 33.8502 28.8799 33.4702C29.2399 33.0902 29.4199 32.6202 29.4199 32.0602C29.4199 31.5402 29.2499 31.1202 28.9099 30.8002C28.5899 30.4602 28.1099 30.1702 27.4699 29.9302V34.1902Z" fill="white"/>
<defs>
<linearGradient id="paint0_linear_1_12086" x1="-22.2263" y1="-40.7253" x2="58.8823" y2="-46.7787" gradientUnits="userSpaceOnUse">
<stop offset="0.00520833" stop-color="#FCB42F"/>
<stop offset="1" stop-color="#CB34E3"/>
</linearGradient>
</defs>
</svg>
