<svg width="52" height="52" viewBox="0 0 52 52" fill="none" xmlns="http://www.w3.org/2000/svg">
<path fill-rule="evenodd" clip-rule="evenodd" d="M3.93633 25.487C3.95215 13.5824 13.6076 3.93673 25.5159 3.93673L25.5184 3.93673V0.523217H20.3502C22.0185 0.180187 23.7463 0 25.5161 0C39.6085 0 51.0327 11.4241 51.0327 25.5165C51.0327 27.1854 50.8725 28.8168 50.5666 30.3962V25.5174H47.0955C47.0949 37.4339 37.4354 47.0941 25.5193 47.0959V50.8124H28.8869C27.784 50.958 26.6588 51.0331 25.5161 51.0331C11.4237 51.0331 -0.000427246 39.6089 -0.000427246 25.5165C-0.000427246 24.6551 0.0422648 23.8036 0.125649 22.964V25.487H3.93633ZM20.0227 46.3151C12.5509 44.3468 6.66957 38.459 4.71062 30.9835V25.5164H8.39192V25.5163C8.39192 16.0611 16.0553 8.39567 25.5097 8.39235V4.71729H31.0068C38.4632 6.6804 44.3361 12.5468 46.3084 19.9994V25.5159H42.6399V25.5163C42.6399 34.9736 34.9732 42.6403 25.5159 42.6403H25.5093V46.3151H20.0227ZM25.5171 38.0786C32.4551 38.0786 38.0795 32.4542 38.0795 25.5162C38.0795 25.5161 38.0795 25.516 38.0795 25.5159H32.9405C32.9403 21.4138 29.6153 18.0884 25.5134 18.0877V12.9538C18.5774 12.9558 12.9553 18.5788 12.9546 25.515H18.0834V25.5162C18.0834 29.6189 21.4093 32.9448 25.5119 32.9448H25.5132V38.0786C25.5145 38.0786 25.5158 38.0786 25.5171 38.0786ZM12.6762 25.515H12.1284V25.5162C12.1284 32.9077 18.1204 38.8997 25.5119 38.8997H25.5132V38.3571C25.5145 38.3571 25.5158 38.3571 25.5171 38.3571C32.6089 38.3571 38.358 32.608 38.358 25.5162C38.358 25.5161 38.358 25.516 38.358 25.5159H38.8954C38.8952 18.125 32.9041 12.1335 25.5134 12.1327V12.6753C18.4236 12.6773 12.6768 18.425 12.6762 25.515Z" fill="url(#paint0_linear_1_1201)"/>
<defs>
<linearGradient id="paint0_linear_1_1201" x1="-21.0055" y1="-38.4878" x2="55.6467" y2="-44.2085" gradientUnits="userSpaceOnUse">
<stop offset="0.00520833" stop-color="#FCB42F"/>
<stop offset="1" stop-color="#CB34E3"/>
</linearGradient>
</defs>
</svg>
