<svg width="24" height="16" viewBox="0 0 24 16" fill="none" xmlns="http://www.w3.org/2000/svg">
<path fill-rule="evenodd" clip-rule="evenodd" d="M0 12.2739L0 6.57533H1.29729L1.29729 8.7671H4.54052V10.0822H1.29729L1.29729 12.2739H0Z" fill="black"/>
<path fill-rule="evenodd" clip-rule="evenodd" d="M7.56738 0H13.189V1.31506H7.56738V0Z" fill="black"/>
<path fill-rule="evenodd" clip-rule="evenodd" d="M11.0268 0V4.60271H9.72949V0H11.0268Z" fill="black"/>
<path fill-rule="evenodd" clip-rule="evenodd" d="M17.2969 6.68481C17.2969 5.71643 18.0713 4.9314 19.0266 4.9314H20.1077C21.063 4.9314 21.8374 5.71643 21.8374 6.68481V9.97246C21.8374 10.9408 21.063 11.7259 20.1077 11.7259H19.0266C18.0713 11.7259 17.2969 10.9408 17.2969 9.97246V6.68481ZM19.0266 6.24646C18.7878 6.24646 18.5942 6.44271 18.5942 6.68481V9.97246C18.5942 10.2146 18.7878 10.4108 19.0266 10.4108H20.1077C20.3465 10.4108 20.5401 10.2146 20.5401 9.97246V6.68481C20.5401 6.44271 20.3465 6.24646 20.1077 6.24646H19.0266Z" fill="black"/>
<path fill-rule="evenodd" clip-rule="evenodd" d="M2.81055 5.04113C2.81055 3.83065 3.77858 2.84937 4.9727 2.84937H16.8645C18.0587 2.84937 19.0267 3.83065 19.0267 5.04113V11.5011C19.0267 12.7116 18.0587 13.6928 16.8645 13.6928H16.042L14.329 15.3801C13.9254 15.7776 13.3849 16 12.8222 16H4.9727C3.77858 16 2.81055 15.0187 2.81055 13.8082V5.04113ZM16.8645 5.04113L4.9727 5.04113V13.8082H12.8222L14.5353 12.1209C14.9388 11.7234 15.4793 11.5011 16.042 11.5011H16.8645L16.8645 5.04113Z" fill="#E21E25"/>
<path fill-rule="evenodd" clip-rule="evenodd" d="M24.0003 6.13696V10.5205H22.703V8.98626H21.1895V7.6712H22.703V6.13696H24.0003Z" fill="black"/>
</svg>
