<svg width="52" height="52" viewBox="0 0 52 52" fill="none" xmlns="http://www.w3.org/2000/svg">
<path fill-rule="evenodd" clip-rule="evenodd" d="M4.58659 3.14179C4.23737 3.21492 3.64297 3.41912 3.26571 3.59539C2.32403 4.03556 1.07011 5.2447 0.614818 6.1516C-0.0514114 7.47858 -0.0168654 6.29336 0.0128035 26.8405L0.039729 45.4905L0.313556 46.2141C0.960175 47.9224 2.32616 49.2133 4.07063 49.7647L4.8152 50H26H47.1848L47.9294 49.7647C49.6738 49.2133 51.0398 47.9224 51.6864 46.2141L51.9603 45.4905L51.9872 26.8405C52.0169 6.29336 52.0514 7.47858 51.3852 6.1516C50.9308 5.24656 49.6758 4.03546 48.738 3.59725C47.3754 2.96043 48.7346 2.99591 25.9492 3.00258C8.88847 3.00758 5.10925 3.03219 4.58659 3.14179ZM35.355 11.7111C36.5496 12.0691 37.658 12.9018 38.4019 13.9999C40.2205 16.6849 39.1551 20.376 36.1487 21.806C32.4977 23.5427 28.2972 21.2092 27.9685 17.2616C27.7536 14.6812 29.7274 12.1595 32.4266 11.5661C33.2399 11.3873 34.4793 11.4486 35.355 11.7111ZM18.8663 22.7868C19.0735 22.8897 19.379 23.1117 19.5449 23.2803C19.7108 23.4488 22.0884 26.4146 24.8284 29.8708C29.4065 35.6459 29.8544 36.1791 30.3551 36.4515C31.0071 36.8062 31.8257 36.8481 32.4648 36.5595C32.6813 36.4617 33.6162 35.6672 34.5424 34.7939C36.3211 33.1167 36.5197 32.993 37.4361 32.9918C38.0403 32.9909 38.7916 33.3912 39.2253 33.945C40.0618 35.013 45.454 42.4854 45.6749 42.8827C46.0851 43.6203 45.9252 44.2945 45.2688 44.5949C44.9488 44.7415 43.3288 44.7552 26.3895 44.7552C8.55043 44.7552 7.84701 44.7485 7.50613 44.5737C7.03498 44.3321 6.6943 43.8348 6.69734 43.3928C6.69867 43.1986 6.80393 42.797 6.93134 42.5005C7.43775 41.322 16.8876 23.4147 17.1421 23.1514C17.6728 22.6027 18.2494 22.4807 18.8663 22.7868Z" fill="url(#paint0_linear_1_12133)"/>
<defs>
<linearGradient id="paint0_linear_1_12133" x1="-21.4031" y1="-32.4461" x2="56.6046" y2="-38.8874" gradientUnits="userSpaceOnUse">
<stop offset="0.00520833" stop-color="#FCB42F"/>
<stop offset="1" stop-color="#CB34E3"/>
</linearGradient>
</defs>
</svg>
