<svg width="171" height="28" viewBox="0 0 171 28" fill="none" xmlns="http://www.w3.org/2000/svg">
<path fill-rule="evenodd" clip-rule="evenodd" d="M46.5083 11.7312C46.5083 14.3294 44.7923 16.1287 41.4991 16.1287H37.7685V20.3647H34.6172V7.65039H42.0545C44.9054 7.65039 46.5083 9.18596 46.5083 11.7312ZM43.2285 11.7672C43.2285 10.5481 42.4272 10.0572 41.2532 10.0572H37.7685V13.5835H40.9919C42.4576 13.5835 43.2285 13.0206 43.2285 11.7672Z" fill="#FFFFFE"/>
<path fill-rule="evenodd" clip-rule="evenodd" d="M62.3151 14.0407C62.3151 18.3491 59.0894 20.5499 55.1016 20.5499C51.1142 20.5499 47.8906 18.3491 47.8906 14.0407C47.8906 9.66009 51.1142 7.45508 55.1016 7.45508C59.0894 7.45508 62.3151 9.66009 62.3151 14.0407ZM58.9609 14.0407C58.9609 11.332 57.2647 10.0043 55.1016 10.0234C52.9393 10.0427 51.2446 11.3513 51.2446 14.0407C51.2446 16.6577 52.9411 18.0049 55.1016 18.0049C57.2623 18.0049 58.9609 16.677 58.9609 14.0407Z" fill="#FFFFFE"/>
<path fill-rule="evenodd" clip-rule="evenodd" d="M69.5863 15.1322L67.4603 17.495V20.3669H64.3047V7.65234H67.4538V13.6598L72.9531 7.65234H76.8734L71.7229 13.0225L77.444 20.3669H73.5476L69.5863 15.1322Z" fill="#FFFFFE"/>
<path fill-rule="evenodd" clip-rule="evenodd" d="M82.2685 10.2016V12.6594H88.715V15.0878H82.2685V17.7668H89.4556V20.3669H79.1172V7.65234H89.4556V10.2016H82.2685Z" fill="#FFFFFE"/>
<path fill-rule="evenodd" clip-rule="evenodd" d="M97.1673 15.8038H94.9325V20.3673H91.7812V7.65234H99.3495C102.386 7.65234 103.784 9.35178 103.784 11.5807C103.784 13.6327 102.61 15.1922 100.615 15.5978L104.492 20.3779H100.672L97.1673 15.8038ZM94.9325 13.3502H98.361C99.6457 13.3502 100.504 12.8785 100.504 11.7336C100.504 10.5139 99.6327 10.0591 98.4544 10.0591H94.9325V13.3502Z" fill="#FFFFFE"/>
<path fill-rule="evenodd" clip-rule="evenodd" d="M111.445 7.46012C113.023 7.44416 114.599 7.59666 116.143 7.91488V10.5681C114.533 10.1931 112.883 10.0042 111.228 10.0054C109.679 10.0054 108.749 10.4771 108.73 11.2416C108.71 12.0067 109.233 12.3486 110.407 12.4227L112.905 12.5675C115.494 12.714 117.023 13.8762 117.023 16.2935C117.023 19.5292 114.21 20.5424 111.004 20.5424C109.372 20.5294 107.744 20.3773 106.14 20.0879V17.3663C107.769 17.7068 109.43 17.8834 111.097 17.8932C113.09 17.8932 113.985 17.4218 113.985 16.457C113.985 15.6586 113.127 15.312 111.935 15.2589L109.867 15.1484C107.294 15.0211 105.711 13.9124 105.711 11.6771C105.705 8.73253 108.24 7.46012 111.445 7.46012Z" fill="#FFFFFE"/>
<path fill-rule="evenodd" clip-rule="evenodd" d="M129.84 10.2973H125.517V20.3673H122.367V10.2973H118.012V7.65234H129.844L129.84 10.2973Z" fill="#FFFFFE"/>
<path fill-rule="evenodd" clip-rule="evenodd" d="M139.589 17.7304H133.364L132.321 20.3669H128.91L134.257 7.65234H138.694L144.042 20.3773H140.632L139.589 17.7304ZM138.6 15.2406L136.476 9.89568L134.351 15.2406H138.6Z" fill="#FFFFFE"/>
<path fill-rule="evenodd" clip-rule="evenodd" d="M151.048 15.8038H148.812V20.3673H145.662V7.65234H153.229C156.266 7.65234 157.663 9.35178 157.663 11.5807C157.663 13.6327 156.489 15.1922 154.496 15.5978L158.372 20.3779H154.55L151.048 15.8038ZM148.812 13.3502H152.24C153.526 13.3502 154.383 12.8785 154.383 11.7336C154.383 10.5139 153.511 10.0591 152.333 10.0591H148.812V13.3502Z" fill="#FFFFFE"/>
<path fill-rule="evenodd" clip-rule="evenodd" d="M165.326 7.46025C166.907 7.44332 168.579 7.59596 170.126 7.91502V10.5682C168.515 10.1929 166.769 10.0038 165.112 10.0055C163.566 10.0055 162.634 10.4772 162.615 11.2417C162.595 12.0068 163.117 12.3488 164.294 12.4229L166.789 12.5677C169.379 12.7142 170.997 13.8763 170.997 16.2937C170.997 19.5293 168.09 20.5426 164.884 20.5426C163.25 20.532 161.62 20.3817 160.014 20.0944V17.3664C161.644 17.7066 163.305 17.8831 164.971 17.8934C166.966 17.8934 167.859 17.4219 167.859 16.4571C167.859 15.6587 167.003 15.3121 165.809 15.259L163.74 15.1485C161.17 15.0212 159.578 13.9125 159.578 11.6882C159.578 8.73266 162.12 7.46025 165.326 7.46025Z" fill="#FFFFFE"/>
<mask id="mask0_1_506" style="mask-type:alpha" maskUnits="userSpaceOnUse" x="0" y="0" width="171" height="28">
<path d="M0 0H171V28H0V0Z" fill="white"/>
</mask>
<g mask="url(#mask0_1_506)">
<path fill-rule="evenodd" clip-rule="evenodd" d="M18.7364 5.931C14.9769 2.27044 12.5818 0 12.5818 0C12.5818 0 10.1819 2.27044 6.42915 5.931C4.44599 7.86311 -0.0117188 12.6572 -0.0117188 17.424C-0.0117188 20.6014 2.62996 23.1778 5.88783 23.1778C8.0264 23.1778 9.89322 22.066 10.9272 20.4047V20.4064C11.0314 20.2823 11.2014 20.1807 11.3924 20.1807C11.696 20.1807 11.9721 20.3895 11.9402 20.6482C11.7129 22.3624 10.7234 26.586 6.82374 28.0127H18.3368C14.4377 26.586 13.4487 22.3624 13.2229 20.6482C13.1891 20.3895 13.4675 20.1807 13.7708 20.1807C13.9576 20.1807 14.1298 20.2823 14.2339 20.4064L14.2363 20.4047C15.266 22.066 17.1348 23.1778 19.2731 23.1778C22.5293 23.1778 25.1729 20.6014 25.1729 17.424C25.1729 12.6572 20.7152 7.86311 18.7364 5.931Z" fill="#D70022"/>
</g>
<path fill-rule="evenodd" clip-rule="evenodd" d="M12.5796 5.94141L14.1771 10.7433H19.3547L15.1659 13.712L16.7675 18.5135L12.5796 15.545L8.39189 18.5135L9.99109 13.712L5.80078 10.7433H10.9823L12.5796 5.94141Z" fill="#FFFFFE"/>
</svg>
