<svg width="133" height="17" viewBox="0 0 133 17" fill="none" xmlns="http://www.w3.org/2000/svg">
<g opacity="0.9" clip-path="url(#clip0_1_12249)">
<path d="M19.1109 17H31.8703V13.8263H22.967V9.93375H30.3488V6.7574H22.967V3.17369H31.9239V0H19.1109V17ZM47.2324 10.7005L38.8739 0H33.118L34.9106 2.15129V17.0533H38.7638V5.88943L47.3962 17H51.0885V0H47.2324V10.7005ZM13.3014 8.25372C14.9951 7.94753 16.4066 6.46186 16.4066 4.36382C16.3953 2.09804 14.6592 0 11.1842 0H0L1.73607 2.09804V17.008H11.5738C15.0516 17.008 16.8413 14.9605 16.8413 12.3992C16.7764 10.2932 15.2436 8.50133 13.3014 8.25372ZM5.59212 3.19499H10.4249C11.7291 3.19499 12.5421 3.91386 12.5421 4.98684C12.5421 6.05983 11.7291 6.7787 10.4249 6.7787H5.59212V3.19499ZM10.5858 13.8449H5.59212V9.93375H10.5858C12.0537 9.93375 12.8667 10.8044 12.8667 11.88C12.8667 13.1074 11.9972 13.8263 10.5858 13.8263V13.8449ZM107.498 10.7005H109.508V12.7001C108.468 13.5119 107.165 13.9629 105.816 13.9781C102.612 13.9781 100.334 11.675 100.334 8.55192C100.334 5.42882 102.612 3.1231 105.816 3.1231C106.639 3.12953 107.448 3.32964 108.168 3.70529C108.889 4.08095 109.499 4.62027 109.943 5.27439L112.983 3.6769C111.682 1.74127 109.398 0 105.762 0C100.658 0 96.4239 3.32811 96.4239 8.50133C96.4239 13.6746 100.605 17 105.762 17C107.155 17.0218 108.536 16.7584 109.81 16.2279C111.085 15.6975 112.222 14.9126 113.144 13.9275V7.6307H104.893L107.498 10.7005ZM90.1261 10.7005L81.7647 0H76.0089L77.8014 2.15129V17.0533H81.6574V5.88943L90.2898 17H93.9793V0H90.1261V10.7005ZM125.9 0H118.465L120.255 2.15129L119.93 2.96868L114.174 17.0533H118.519L119.648 14.1831H127.425L128.554 17.0533H132.896L125.9 0ZM120.639 10.9588L123.461 3.6343L126.284 10.9588H120.639ZM69.9284 0H73.7844V17.0533H69.9284V0ZM66.8345 2.91809V0H53.2593V3.17369H61.7844L53.2593 14.0819V17H66.9982V13.8263H58.2558L66.8345 2.91809Z" fill="black"/>
</g>
<defs>
<clipPath id="clip0_1_12249">
<rect width="133" height="17" fill="white"/>
</clipPath>
</defs>
</svg>
