<svg width="54" height="54" viewBox="0 0 54 54" fill="none" xmlns="http://www.w3.org/2000/svg">
<circle cx="27" cy="27" r="27" fill="url(#paint0_linear_1_12092)"/>
<path fill-rule="evenodd" clip-rule="evenodd" d="M14.75 17.2087V18.4174L15.9861 18.4329L17.2223 18.4485L19.4265 23.1087L21.6308 27.7689L21.4974 28.0027C20.7507 29.3116 19.8487 31.0216 19.7767 31.2648C19.5987 31.8658 19.6939 32.6528 20.0103 33.1951C20.1887 33.5011 20.6888 33.9749 21.0032 34.1358C21.5722 34.4269 21.4785 34.4237 29.403 34.4248L36.794 34.4258V33.1879V31.95H29.6558C22.6395 31.95 22.5159 31.9481 22.4158 31.8371C22.3509 31.7652 22.3261 31.6761 22.3473 31.5913C22.3656 31.5181 22.6234 31.0184 22.9201 30.4807L23.4596 29.503L28.3328 29.4742C32.9762 29.4468 33.2183 29.4402 33.4645 29.3348C33.8359 29.1758 34.1657 28.9388 34.4198 28.6484C34.5437 28.5068 35.6497 26.5606 36.9296 24.232C39.0161 20.4358 39.2203 20.0405 39.2457 19.748C39.2845 19.3015 39.0603 18.8693 38.6617 18.6221L38.3817 18.4485L29.1424 18.4197L19.9031 18.3909L19.3481 17.2106L18.793 16.0303L16.7715 16.0151L14.75 16V17.2087ZM21.5239 35.7131C20.1662 36.0839 19.3886 37.481 19.8003 38.8099C20.0139 39.499 20.4763 40.0214 21.1548 40.3401C21.4624 40.4846 21.5562 40.5 22.1279 40.5C22.7296 40.5 22.7797 40.4906 23.1515 40.307C24.6697 39.5574 25.0255 37.6349 23.8724 36.4119C23.2644 35.7672 22.3368 35.4912 21.5239 35.7131ZM33.6825 35.7422C33.2191 35.8962 32.8999 36.0982 32.583 36.4379C31.4661 37.6355 31.8481 39.5799 33.3446 40.3144C33.7012 40.4894 33.759 40.5 34.3572 40.5C34.9752 40.5 35.0031 40.4944 35.4291 40.2832C35.9539 40.023 36.3287 39.636 36.5854 39.0894C36.825 38.579 36.8661 37.8506 36.6845 37.3333C36.437 36.6281 35.891 36.0501 35.2334 35.7972C34.7935 35.6279 34.1005 35.6034 33.6825 35.7422Z" fill="white"/>
<defs>
<linearGradient id="paint0_linear_1_12092" x1="-22.2263" y1="-40.7253" x2="58.8823" y2="-46.7787" gradientUnits="userSpaceOnUse">
<stop offset="0.00520833" stop-color="#FCB42F"/>
<stop offset="1" stop-color="#CB34E3"/>
</linearGradient>
</defs>
</svg>
