<svg width="17" height="20" viewBox="0 0 17 20" fill="none" xmlns="http://www.w3.org/2000/svg">
<path fill-rule="evenodd" clip-rule="evenodd" d="M11.8569 4.13232H4.57115L2.14258 11.4282H14.2854L11.8569 4.13232ZM6.31372 9.51074H6.75086L7.52315 10.714H8.60629L7.53286 9.0887L8.59658 7.57115H7.58629L6.77515 8.79237H6.31372V7.57115H5.35686V10.714H6.31372V9.51074ZM9.86194 8.27605H11.4017L11.4065 7.57115H8.9148V10.714H9.86194V8.27605Z" fill="black"/>
<path fill-rule="evenodd" clip-rule="evenodd" d="M7.58887 3.46911C7.24369 3.46911 6.96387 3.76606 6.96387 4.13237V4.79564C6.96387 5.16195 6.68405 5.4589 6.33887 5.4589C5.99369 5.4589 5.71387 5.16195 5.71387 4.79564V4.13237C5.71387 3.03344 6.55333 2.14258 7.58887 2.14258H8.83887C9.8744 2.14258 10.7139 3.03344 10.7139 4.13237V4.79564C10.7139 5.16195 10.434 5.4589 10.0889 5.4589C9.74369 5.4589 9.46387 5.16195 9.46387 4.79564V4.13237C9.46387 3.76606 9.18405 3.46911 8.83887 3.46911H7.58887Z" fill="#E21E25"/>
<path fill-rule="evenodd" clip-rule="evenodd" d="M0 2.14286C0 0.95939 0.95939 0 2.14286 0H14.2857C15.4692 0 16.4286 0.95939 16.4286 2.14286V10.7143C16.4286 11.8978 15.4692 12.8571 14.2857 12.8571H2.14286C0.95939 12.8571 0 11.8978 0 10.7143V2.14286ZM2.14286 1.42857C1.74837 1.42857 1.42857 1.74837 1.42857 2.14286V10.7143C1.42857 11.1088 1.74837 11.4286 2.14286 11.4286H14.2857C14.6802 11.4286 15 11.1088 15 10.7143V2.14286C15 1.74837 14.6802 1.42857 14.2857 1.42857H2.14286Z" fill="#E21E25"/>
<path fill-rule="evenodd" clip-rule="evenodd" d="M0 6.42864C0 6.03415 0.319797 5.71436 0.714286 5.71436H15.7143C16.1088 5.71436 16.4286 6.03415 16.4286 6.42864C16.4286 6.82313 16.1088 7.14293 15.7143 7.14293H0.714286C0.319797 7.14293 0 6.82313 0 6.42864Z" fill="#E21E25"/>
<path d="M7.85742 12.8569H12.8574V15.7141H7.85742V12.8569Z" fill="#E21E25"/>
<path d="M9.28613 15.7144H12.1433V17.8572H9.28613V15.7144Z" fill="#E21E25"/>
<path d="M9.28516 17H16.428V19.1429H9.28516V17Z" fill="#E21E25"/>
</svg>
