<svg width="50" height="50" viewBox="0 0 50 50" fill="none" xmlns="http://www.w3.org/2000/svg">
<path fill-rule="evenodd" clip-rule="evenodd" d="M11.8189 5.9082V11.8164H5.90946H0V30.9082V43.1724C0 46.9432 3.05681 50 6.82759 50H19.1447H31.4618C35.2326 50 38.2894 46.9432 38.2894 43.1724V37.9313V25.8627L37.7278 26.3651C33.2812 30.3431 31.1773 31.9326 28.8636 33.0622C27.1931 33.8777 25.8136 34.1618 24.5658 33.9472L24.1751 33.88L22.8091 35.2504L21.443 36.6208L20.3914 35.5727L19.3397 34.5244L20.6671 33.1947L21.9945 31.865L21.8888 31.4843C21.2133 29.0519 23.5899 24.8742 29.1743 18.678C30.5439 17.1583 36.1307 11.595 37.3371 10.5497L38.2894 9.72441V4.86221C38.2894 2.17688 36.1125 0 33.4272 0H25.0542H11.8189V5.9082ZM4.83502 4.88281L0.831134 8.88672H4.85992H8.88861V4.88281C8.88861 2.68066 8.87738 0.878906 8.86371 0.878906C8.85003 0.878906 7.03714 2.68066 4.83502 4.88281ZM48.5444 6.09717C46.2228 6.95293 41.4985 10.5278 37.3314 14.582L36.4222 15.4666L38.4606 17.5046L40.4991 19.5426L41.3838 18.6336C45.9189 13.9742 49.7659 8.70918 49.9774 6.87256C50.0264 6.44658 50.0041 6.34111 49.8275 6.16455C49.588 5.9251 49.0832 5.89863 48.5444 6.09717ZM20.7075 16.2109V17.6758H13.3329H5.9583V16.2109V14.7461H13.3329H20.7075V16.2109ZM33.0271 18.8982C27.5709 24.8212 24.8144 28.6505 24.7859 30.3463C24.7762 30.9308 25.0008 31.1523 25.6028 31.1523C25.8612 31.1523 26.3123 31.0626 26.6054 30.953C28.5312 30.2326 33.3103 26.5273 37.5922 22.435L38.4089 21.6544L36.372 19.6162C35.2519 18.4953 34.3129 17.5799 34.2855 17.582C34.2582 17.5843 33.6918 18.1765 33.0271 18.8982ZM14.7492 22.0703V23.5352H10.3538H5.9583V22.0703V20.6055H10.3538H14.7492V22.0703ZM14.7492 27.9297V29.3945H10.3538H5.9583V27.9297V26.4648H10.3538H14.7492V27.9297Z" fill="url(#paint0_linear_1_11507)"/>
<defs>
<linearGradient id="paint0_linear_1_11507" x1="-20.5799" y1="-37.7086" x2="54.5206" y2="-43.3136" gradientUnits="userSpaceOnUse">
<stop offset="0.00520833" stop-color="#FCB42F"/>
<stop offset="1" stop-color="#CB34E3"/>
</linearGradient>
</defs>
</svg>
