<svg width="22" height="25" viewBox="0 0 22 25" fill="none" xmlns="http://www.w3.org/2000/svg">
<path fill-rule="evenodd" clip-rule="evenodd" d="M13.8 21.6036C13.8 21.9219 13.6736 22.2271 13.4485 22.4522C13.2235 22.6772 12.9183 22.8036 12.6 22.8036H2.40002C2.08176 22.8036 1.77653 22.6772 1.55149 22.4522C1.32645 22.2271 1.20002 21.9219 1.20002 21.6036V2.40368C1.20002 2.08542 1.32645 1.7802 1.55149 1.55515C1.77653 1.33011 2.08176 1.20368 2.40002 1.20368H3.60001V1.80368C3.60001 2.12194 3.72644 2.42716 3.95149 2.65221C4.17653 2.87725 4.48175 3.00368 4.80001 3.00368H10.2C10.5183 3.00368 10.8235 2.87725 11.0485 2.65221C11.2736 2.42716 11.4 2.12194 11.4 1.80368V1.20368H12.6C12.9183 1.20368 13.2235 1.33011 13.4485 1.55515C13.6736 1.7802 13.8 2.08542 13.8 2.40368V6.00367H15V2.40368C15.0013 2.08814 14.9401 1.77546 14.82 1.48368C14.6999 1.1919 14.5231 0.9268 14.3 0.703676C14.0769 0.480552 13.8118 0.30382 13.52 0.183677C13.2282 0.0635346 12.9155 0.00236007 12.6 0.00368312H2.40002C2.08447 0.00236007 1.77179 0.0635346 1.48002 0.183677C1.18824 0.30382 0.923138 0.480552 0.700014 0.703676C0.476889 0.9268 0.300157 1.1919 0.180015 1.48368C0.0598725 1.77546 -0.00130204 2.08814 2.10104e-05 2.40368V21.6036C-0.00130204 21.9192 0.0598725 22.2319 0.180015 22.5236C0.300157 22.8154 0.476889 23.0805 0.700014 23.3036C0.923138 23.5268 1.18824 23.7035 1.48002 23.8236C1.77179 23.9438 2.08447 24.005 2.40002 24.0036H12.6C12.9155 24.005 13.2282 23.9438 13.52 23.8236C13.8118 23.7035 14.0769 23.5268 14.3 23.3036C14.5231 23.0805 14.6999 22.8154 14.82 22.5236C14.9401 22.2319 15.0013 21.9192 15 21.6036V19.0037H13.8V21.6036ZM4.80001 1.20368H10.2V1.80368H4.80001V1.20368Z" fill="#FFFFFF"/>
<path fill-rule="evenodd" clip-rule="evenodd" d="M11.54 11.8437L14.57 8.86366L13.56 8.00366L9 12.4837L13.65 17.0036L14.57 16.1036L11.54 13.1237H22V11.8437H11.54Z" fill="#FFFFFF"/>
</svg>
