<svg width="38" height="38" viewBox="0 0 38 38" fill="none" xmlns="http://www.w3.org/2000/svg">
<path fill-rule="evenodd" clip-rule="evenodd" d="M19 38C29.4934 38 38 29.4934 38 19C38 8.50659 29.4934 0 19 0C8.50659 0 0 8.50659 0 19C0 29.4934 8.50659 38 19 38ZM22.5519 25.9612C23.3438 25.537 23.9376 24.9997 24.3335 24.3493C24.7436 23.6847 24.9486 22.9636 24.9486 22.1859C24.9486 21.1679 24.6941 20.369 24.1851 19.7893C23.6902 19.1954 23.1246 18.7712 22.4883 18.5167C21.852 18.2622 20.9471 17.9723 19.7735 17.6471V14.3597C20.4098 14.5859 20.7704 15.0808 20.8552 15.8443H24.7365C24.6375 14.5152 24.1568 13.476 23.2943 12.7266C22.4318 11.9772 21.2582 11.5459 19.7735 11.4328V9.71484H18.4161V11.4328C16.9173 11.5318 15.6872 11.9701 14.7257 12.7478C13.7784 13.5254 13.3047 14.5576 13.3047 15.8443C13.3047 16.8765 13.5521 17.6895 14.047 18.2834C14.5419 18.8773 15.1145 19.3085 15.765 19.5772C16.4295 19.8458 17.3132 20.1215 18.4161 20.4043V23.7554C17.6809 23.515 17.2708 22.9707 17.186 22.1223H13.3259C13.3825 23.4514 13.8703 24.5048 14.7893 25.2825C15.7084 26.046 16.9173 26.4914 18.4161 26.6187V28.3578H19.7735V26.6399C20.8481 26.5974 21.7743 26.3712 22.5519 25.9612ZM17.4617 16.5654C17.2496 16.3251 17.1436 16.0281 17.1436 15.6747C17.1436 15.2646 17.2567 14.9465 17.4829 14.7202C17.7092 14.4799 18.0202 14.3243 18.4161 14.2536V17.2017C18.0061 17.0179 17.6879 16.8058 17.4617 16.5654ZM20.7704 23.31C20.53 23.5787 20.1977 23.7483 19.7735 23.819V20.8073C20.226 20.977 20.5653 21.182 20.7916 21.4224C21.0319 21.6486 21.1521 21.9455 21.1521 22.3132C21.1521 22.7091 21.0249 23.0414 20.7704 23.31Z" fill="white"/>
</svg>
