<svg width="40" height="40" viewBox="0 0 40 40" fill="none" xmlns="http://www.w3.org/2000/svg">
<path fill-rule="evenodd" clip-rule="evenodd" d="M18.4375 0.0494331C14.894 0.49016 11.7752 2.11255 9.51773 4.6895C6.51953 8.1121 5.3168 12.6952 6.26297 17.0927C6.68414 19.0504 7.66531 21.1645 8.84578 22.6577C9.07242 22.9443 9.50734 23.4952 9.81234 23.8816C10.6921 24.9965 11.4608 26.6688 11.607 27.7863L11.6608 28.1969H13.4866H15.3125V22.9123V17.6276L15.5172 17.106C15.6298 16.8191 16.4508 15.1064 17.3416 13.3C18.4783 10.995 19.0361 9.9457 19.2123 9.78109C19.4408 9.56761 19.5116 9.5465 20 9.5465C20.4883 9.5465 20.5592 9.56761 20.7879 9.78109C20.9646 9.94609 21.5193 10.99 22.6576 13.3C23.5477 15.1064 24.3686 16.8191 24.4817 17.106L24.6875 17.6276V22.9123V28.1969H26.5128H28.3381L28.3842 27.8604C28.4496 27.3826 28.7999 26.2999 29.1023 25.6409C29.4182 24.9526 29.965 24.129 30.7116 23.2173C33.223 20.1504 34.3861 16.3909 33.9801 12.6518C33.2856 6.25668 28.6443 1.29146 22.3047 0.161726C21.4632 0.0117414 19.2559 -0.0523032 18.4375 0.0494331ZM1.21094 6.34059C0.461953 6.60584 0.207344 7.48588 0.686641 8.15253C0.917187 8.47306 2.50641 10.0155 2.72312 10.1292C3.00633 10.2775 3.54227 10.2557 3.83625 10.0838C4.37672 9.76788 4.56203 9.00771 4.22984 8.46962C4.14219 8.32777 3.65328 7.80282 3.14336 7.30321C2.44547 6.61937 2.14023 6.37367 1.90891 6.30931C1.5407 6.20702 1.595 6.2046 1.21094 6.34059ZM38.0544 6.31283C37.7634 6.39744 36.0518 8.01349 35.7702 8.46962C35.438 9.00771 35.6233 9.76788 36.1637 10.0838C36.4577 10.2556 36.9936 10.2775 37.2769 10.1292C37.5339 9.99473 39.1951 8.35029 39.3873 8.04C39.9424 7.14392 39.0727 6.01692 38.0544 6.31283ZM19.0422 15.1773C18.5377 16.1882 18.125 17.0457 18.125 17.0828C18.125 17.2516 19.1148 17.4402 20 17.4402C20.8852 17.4402 21.875 17.2516 21.875 17.0828C21.875 16.9858 20.0486 13.3391 20 13.3391C19.9777 13.3391 19.5466 14.1662 19.0422 15.1773ZM0.606328 14.2824C0.276484 14.4567 0 14.918 0 15.2941C0 15.6821 0.276328 16.1326 0.622969 16.3097C0.898281 16.4503 1.08227 16.4671 2.34375 16.4671C3.98758 16.4671 4.25063 16.3921 4.53023 15.8435C4.72945 15.4527 4.72945 15.1355 4.53023 14.7447C4.24937 14.1937 3.98953 14.1206 2.32734 14.1246C1.05953 14.1276 0.865547 14.1454 0.606328 14.2824ZM35.9188 14.2824C35.589 14.4567 35.3125 14.918 35.3125 15.2941C35.3125 15.6821 35.5888 16.1326 35.9355 16.3097C36.2108 16.4503 36.3948 16.4671 37.6562 16.4671C38.9177 16.4671 39.1017 16.4503 39.377 16.3097C39.7237 16.1326 40 15.6821 40 15.2941C40 14.9061 39.7237 14.4556 39.377 14.2785C39.1004 14.1373 38.9218 14.1215 37.6398 14.1246C36.372 14.1276 36.178 14.1454 35.9188 14.2824ZM17.6562 23.8477V28.1969H20H22.3438V23.8477V19.4986L22.168 19.5483C20.7413 19.9521 19.2587 19.9521 17.832 19.5483L17.6562 19.4986V23.8477ZM2.89813 20.3886C2.60711 20.4732 0.895547 22.0892 0.613906 22.5454C0.281719 23.0835 0.467031 23.8436 1.0075 24.1595C1.30141 24.3313 1.83734 24.3532 2.12063 24.205C2.37766 24.0705 4.03883 22.426 4.23102 22.1157C4.78617 21.2197 3.91641 20.0927 2.89813 20.3886ZM36.3672 20.4163C35.6182 20.6816 35.3636 21.5616 35.8429 22.2283C36.0734 22.5488 37.6627 24.0913 37.8794 24.2049C38.1626 24.3532 38.6985 24.3314 38.9925 24.1595C39.533 23.8436 39.7183 23.0835 39.3861 22.5454C39.2984 22.4035 38.8095 21.8786 38.2996 21.379C37.6017 20.6951 37.2965 20.4494 37.0652 20.3851C36.697 20.2828 36.7513 20.2803 36.3672 20.4163ZM11.7969 31.236C11.7969 31.6171 11.8327 32.1184 11.8766 32.3499C12.1427 33.7544 13.2759 34.8885 14.679 35.1549C14.937 35.2039 16.9934 35.2347 20 35.2347C23.0066 35.2347 25.063 35.2039 25.321 35.1549C26.7241 34.8885 27.8573 33.7544 28.1234 32.3499C28.1673 32.1184 28.2031 31.6171 28.2031 31.236V30.5428H20H11.7969V31.236ZM14.4095 37.7175C14.4377 37.7928 14.5733 38.0429 14.7109 38.2733C15.1819 39.0622 16.0769 39.7177 16.9619 39.9219C17.4132 40.026 22.5868 40.026 23.0381 39.9219C23.9231 39.7177 24.8181 39.0622 25.2891 38.2733C25.4267 38.0429 25.5623 37.7928 25.5905 37.7175C25.639 37.588 25.3405 37.5807 20 37.5807C14.6595 37.5807 14.361 37.588 14.4095 37.7175Z" fill="white"/>
</svg>
