<svg width="106" height="32" viewBox="0 0 106 32" fill="none" xmlns="http://www.w3.org/2000/svg">
<mask id="mask0_1_12205" style="mask-type:alpha" maskUnits="userSpaceOnUse" x="0" y="5" width="106" height="26">
<path d="M0.421875 5.04688H105.581V30.1756H0.421875V5.04688Z" fill="white"/>
</mask>
<g mask="url(#mask0_1_12205)">
<path fill-rule="evenodd" clip-rule="evenodd" d="M32.0225 11.3211V11.645L32.4431 11.6719H32.4591C33.0396 11.719 33.3786 12.3348 33.149 12.8454L30.2171 19.2786L27.9205 14.5061C26.8487 12.323 26.7662 11.7266 27.9474 11.6761L28.4547 11.645V11.3211H21.1827V11.645L21.4099 11.6761C22.0568 11.7543 22.5675 12.3466 23.7486 14.6466L28.2444 23.4042L27.3778 25.2045C26.5282 26.8938 25.9393 27.9807 25.4766 28.6706C25.4731 28.6767 25.4689 28.6824 25.464 28.6874C25.1089 29.2174 24.8288 29.5135 24.5638 29.6734H24.5596L24.3451 29.7743C24.2786 29.7979 24.2046 29.8097 24.1381 29.8214L23.9127 29.8526V30.1764H27.8111V29.8526L27.3905 29.8256H27.3736C26.7932 29.7827 26.4541 29.1669 26.6838 28.6521L32.4591 16.2921C33.3206 14.5768 33.917 13.4814 34.3856 12.7908C34.7314 12.2725 35.0082 11.9798 35.2698 11.8241H35.274L35.4885 11.7232C35.5583 11.703 35.629 11.6879 35.6946 11.6761L35.9218 11.645V11.3211H32.0225ZM59.5825 11.3497C61.6655 11.3497 62.1147 13.4604 62.1147 16.8095H56.8526C56.8526 13.2341 57.4162 11.3497 59.5825 11.3497ZM60.878 24.0974C57.3313 24.0974 56.8526 20.8047 56.8526 17.6533V17.1746H65.8584C65.8584 13.4882 63.8881 10.9829 59.4984 10.9829C56.0651 10.9829 52.801 13.0945 52.801 17.8502C52.801 21.508 55.2205 24.6888 60.258 24.6888C63.2698 24.6888 65.2392 23.3092 65.8306 20.9174L65.4361 20.8333C64.8732 23.0282 63.1562 24.0974 60.8772 24.0974H60.878ZM43.7405 24.2943C43.1214 24.2943 42.5022 24.1824 41.7703 23.9847V11.687H43.6278C46.1323 11.687 47.1738 14.3328 47.1738 17.9065C47.1738 22.3249 46.245 24.2943 43.7405 24.2943ZM44.1343 11.3219H36.3104V11.6584L36.8741 11.687C37.802 11.7434 38.0275 11.7997 38.0275 15.4307V26.0677C38.0275 29.6978 37.802 29.7827 36.8741 29.8105L36.3104 29.8383V30.1764H44.0779V29.8383L43.2341 29.8105C42.0235 29.7827 41.7703 29.6978 41.7703 26.0668V24.3793C42.5863 24.6039 43.4024 24.6602 44.1343 24.6602C48.3557 24.6602 51.2262 21.9598 51.2262 17.9065C51.2262 13.3468 47.8779 11.3211 44.1343 11.3211V11.3219ZM19.5582 19.7068V9.96999C19.5582 6.11445 19.8392 5.7771 21.0776 5.72073L21.6681 5.69297V5.35478H13.3673V5.69297L13.9579 5.71989C15.224 5.77626 15.5058 6.1136 15.5058 9.96914V14.4161H6.58502V9.96999C6.58502 6.11445 6.866 5.7771 8.13295 5.72073L8.72353 5.69297V5.35478H0.421875V5.69297L1.01245 5.71989C2.2508 5.77626 2.53262 6.1136 2.53262 9.96914V19.706C2.53262 23.5624 2.2508 23.8997 1.01245 23.9561L0.421875 23.9847V24.3229H8.72353V23.9847L8.13211 23.9569C6.866 23.9006 6.58418 23.5632 6.58418 19.7068V14.7551H15.5058V19.7077C15.5058 23.5641 15.224 23.9014 13.9579 23.9578L13.3673 23.9855V24.3237H21.6681V23.9855L21.0776 23.9578C19.8392 23.9014 19.5582 23.5641 19.5582 19.7077V19.7068ZM95.4871 11.8309C95.0397 11.8309 94.6107 12.0086 94.2943 12.3249C93.978 12.6412 93.8003 13.0703 93.8003 13.5176C93.8003 13.965 93.978 14.394 94.2943 14.7103C94.6107 15.0267 95.0397 15.2044 95.4871 15.2044C95.9344 15.2044 96.3634 15.0267 96.6798 14.7103C96.9961 14.394 97.1738 13.965 97.1738 13.5176C97.1738 13.0703 96.9961 12.6412 96.6798 12.3249C96.3634 12.0086 95.9344 11.8309 95.4871 11.8309ZM105.581 21.5038C105.581 23.2419 105.104 24.5879 103.057 24.5879C101.039 24.5879 99.8053 23.1855 99.8053 20.326V12.0841H97.7862V11.7181H99.8053V7.23418H101.908V11.7181H105.188V12.0833H101.908V20.3252C101.908 22.7649 102.273 24.0545 103.534 24.0545C104.655 24.0545 105.244 23.2133 105.244 21.503H105.581V21.5038ZM91.7585 20.1578C91.7585 23.8307 91.984 23.8307 93.3014 23.8871L94.1427 23.9149V24.2514H87.8063V23.9149L88.3674 23.8871C89.4324 23.8307 89.6571 23.8307 89.6571 20.1578V15.8126C89.6571 12.1396 89.4324 12.1396 88.3674 12.0841L87.8063 12.0555V11.719H91.7594V20.1578H91.7585ZM73.6225 16.1214H79.9025L76.7343 7.93411L73.6225 16.1214ZM80.5192 24.2514V23.9149L81.2486 23.8871C82.8184 23.8307 82.6224 23.0172 81.2763 19.5975L80.0422 16.4579H73.4828L72.8653 18.1118C72.3328 19.5697 72.1368 20.803 72.1368 21.9808C72.1368 23.0458 72.3891 23.8316 73.5669 23.8871L74.1558 23.9149V24.2514H68.2669V23.9149L68.5757 23.8871C69.8098 23.7744 70.4265 23.2982 72.4169 18.1396L77.4351 5.04688H77.7161L83.6033 19.4015C85.2294 23.4101 85.5937 23.7466 86.7429 23.8871L86.9675 23.9149V24.2514H80.5192Z" fill="black"/>
</g>
</svg>
