<svg width="52" height="40" viewBox="0 0 52 40" fill="none" xmlns="http://www.w3.org/2000/svg">
<path fill-rule="evenodd" clip-rule="evenodd" d="M7.13108 0.189153C4.8088 0.775289 2.96859 2.64064 2.35922 5.02619C2.14313 5.87211 2.14313 7.45983 2.35922 8.30575C3.24189 11.7612 6.61162 13.9144 9.99812 13.1868C12.37 12.6772 14.4209 10.6331 14.9705 8.23095C15.0559 7.85796 15.1257 7.15372 15.1257 6.66597C15.1257 4.8026 14.5407 3.34999 13.2514 2.01204C12.605 1.34119 12.2578 1.07639 11.5729 0.732096C10.1107 -0.00292198 8.61621 -0.185607 7.13108 0.189153ZM24.4247 0.138447C22.966 0.436106 21.7459 1.01327 20.6025 1.94641C17.1041 4.80125 16.3158 9.9254 18.7802 13.7908C19.5393 14.9816 20.7948 16.1254 22.0523 16.7719C23.4941 17.513 24.4174 17.7452 25.9487 17.7514C28.3234 17.7612 30.2365 16.9892 31.9128 15.3446C33.2819 14.0013 34.1308 12.4495 34.4878 10.6375C34.7163 9.4774 34.6458 7.57689 34.3329 6.46138C33.8449 4.72154 32.6512 2.90783 31.3022 1.85648C30.4864 1.22068 29.0414 0.489837 28.133 0.253734C27.217 0.0156492 25.316 -0.0435073 24.4247 0.138447ZM41.95 0.150968C39.6194 0.665011 37.5724 2.7239 37.0284 5.10099C36.9431 5.47398 36.8733 6.17822 36.8733 6.66597C36.8733 8.52934 37.4583 9.98195 38.7475 11.3199C39.6856 12.2934 40.7883 12.9263 42.0008 13.1868C45.3838 13.9137 48.728 11.7828 49.628 8.32693C49.8542 7.45868 49.8597 5.88713 49.6395 5.02535C48.7517 1.54943 45.3594 -0.600952 41.95 0.150968ZM5.62949 15.6335C3.11652 16.0472 1.10827 17.7668 0.323342 20.1769C0.0580749 20.9915 0.0506584 21.0848 0.0132711 24.0549C-0.0188332 26.6073 0.00148596 27.2046 0.139148 27.7586C0.571337 29.4976 1.94034 30.7878 3.65711 31.0738C4.63162 31.2362 8.62657 31.2198 8.62667 31.0535C8.62667 30.9819 8.67371 30.4067 8.73101 29.7755C9.08396 25.8933 10.75 22.4253 13.5584 19.7269C14.0404 19.2638 14.728 18.6855 15.0864 18.4418C15.445 18.198 15.7383 17.9652 15.7383 17.9244C15.7383 17.7802 14.5815 16.7674 14.0715 16.465C13.7868 16.2962 13.1882 16.0332 12.7412 15.8804C11.9466 15.6087 11.8637 15.6019 9.03296 15.5762C7.44044 15.5617 5.90888 15.5875 5.62949 15.6335ZM40.2622 15.6332C38.9733 15.8401 37.7742 16.4289 36.8412 17.3133C36.494 17.6425 36.2327 17.9304 36.2607 17.953C36.2886 17.9758 36.6772 18.2708 37.1242 18.6087C40.6391 21.2661 42.8615 25.3056 43.2679 29.7755C43.3252 30.4067 43.3723 30.9819 43.3723 31.0535C43.3724 31.2198 47.3673 31.2362 48.3418 31.0738C50.0586 30.7878 51.4276 29.4976 51.8598 27.7586C51.9973 27.2058 52.0181 26.602 51.988 24.0549C51.9524 21.0445 51.9489 21.0027 51.6711 20.1884C51.0718 18.4315 50.0198 17.1683 48.4547 16.3264C47.2329 15.6691 46.8897 15.6156 43.6772 15.581C42.0846 15.5639 40.5479 15.5874 40.2622 15.6332ZM21.9864 20.1882C18.0452 20.9108 14.8426 23.7457 13.5466 27.6591C13.1055 28.9908 12.9702 30.2393 13.0153 32.562C13.0534 34.5255 13.0758 34.7346 13.3234 35.4443C13.6999 36.5233 14.1613 37.2761 14.9299 38.0654C15.6943 38.8505 16.4237 39.3234 17.4822 39.7205L18.2274 40H25.9995H33.7716L34.5168 39.7205C35.5754 39.3233 36.3047 38.8505 37.0691 38.0654C37.8406 37.2732 38.3023 36.518 38.6719 35.4443C38.913 34.7439 38.9391 34.5039 38.9803 32.6117C39.0084 31.3167 38.9803 30.229 38.905 29.7003C38.547 27.1858 37.523 25.0688 35.8079 23.2975C34.1812 21.6175 32.2388 20.5883 29.923 20.1797C28.6967 19.9633 23.1808 19.9692 21.9864 20.1882Z" fill="url(#paint0_linear_1_1222)"/>
<defs>
<linearGradient id="paint0_linear_1_1222" x1="-21.4031" y1="-30.1669" x2="56.4041" y2="-37.7159" gradientUnits="userSpaceOnUse">
<stop offset="0.00520833" stop-color="#FCB42F"/>
<stop offset="1" stop-color="#CB34E3"/>
</linearGradient>
</defs>
</svg>
