<svg width="160" height="24" viewBox="0 0 160 24" fill="none" xmlns="http://www.w3.org/2000/svg">
<path d="M9.17006 7.57735V15.9237C10.3391 15.3147 11.1578 14.2544 11.5552 13.0587L11.6489 13.104C11.3914 16.0817 9.28687 19.059 6.01291 19.059C2.71546 19.059 0.283325 16.6907 0.283325 12.9007C0.283325 10.0587 2.20091 8.27635 4.65654 6.67469C4.29773 6.5839 3.92823 6.53841 3.55728 6.53935C1.8733 6.53935 0.891187 7.64469 0.891187 8.77269H0.750885C0.727386 8.61469 0.727386 8.45702 0.727386 8.29902C0.727386 6.29135 1.82665 3.85502 4.49274 3.85502C6.19987 3.85502 7.50959 5.36635 9.49732 5.36635C10.2925 5.36635 11.2746 5.00535 11.672 4.17069H11.7422C11.719 5.63735 11.2514 7.14869 9.17006 7.57735ZM10.4328 16.1267C9.26337 17.322 8.00065 18.3374 6.36367 18.3374C3.32367 18.3374 0.985183 16.0364 0.985183 12.6977C0.985183 10.7354 1.827 9.67535 2.76246 8.43435H2.66881C2.0841 8.99835 0.540777 10.4194 0.540777 12.833C0.540777 16.5327 2.94942 18.811 6.10656 18.811C8.30475 18.811 9.80142 17.345 10.4798 16.1494L10.4328 16.1267ZM11.3679 5.18635C10.9705 5.90802 10.1287 6.83269 8.42155 6.83269C6.71443 6.83269 5.1476 5.70469 3.76773 5.70469C2.50466 5.70469 1.6397 6.51702 1.31209 7.12602L1.33559 7.17135C1.78 6.74269 2.45801 6.31402 3.55728 6.31402C5.38121 6.31402 6.55062 7.39702 8.39805 7.39702C10.3626 7.39702 11.2511 6.15602 11.4149 5.20902L11.3679 5.18635ZM4.86665 6.74269C3.67408 7.93835 2.57482 9.24669 2.57482 11.7957C2.57482 13.194 3.06587 14.6377 4.16514 15.54L4.84315 15.2014V9.15635L4.21179 9.47202L4.09499 9.24636L7.36894 7.53169C6.48047 7.35169 5.68531 6.96835 4.86665 6.74269ZM8.91261 7.62235C8.74881 7.64469 8.58535 7.64469 8.39805 7.64469C8.0708 7.64469 7.76669 7.62235 7.46259 7.55435V14.141L4.39909 15.7434C5.03045 16.1944 5.80212 16.465 6.78423 16.465C7.57939 16.465 8.28091 16.307 8.91227 16.0364V7.62235H8.91261ZM5.54501 8.77302L5.1006 9.02102V15.0667L5.54501 14.841V8.77302ZM18.9919 9.63002V17.435C18.9919 19.6004 17.0042 21.067 14.7825 21.4954L14.7359 21.405C15.8351 20.886 16.4665 19.826 16.4665 18.698V10.6224L15.2038 9.51735L14.7127 10.036V16.3297L15.4142 16.9387V16.984L13.5201 18.969L11.3454 17.0517V16.9614L12.1873 16.104V6.13369L14.666 3.58502L14.7127 3.60735V9.65269L16.7474 7.53235L18.8755 9.38235L19.2729 8.97602L19.4602 9.13435L18.9919 9.63002ZM12.444 17.0064V16.9614L12.9351 16.4874V5.75002L12.444 6.24669V16.262L11.6955 16.984V17.029L13.5194 18.608L13.8467 18.247L12.444 17.0064ZM17.2146 10.2614L15.6945 8.99835L15.3672 9.33669L16.7236 10.51V18.6307C16.7236 19.172 16.6068 19.7357 16.3963 20.0517L16.4198 20.0744C17.0045 19.668 17.215 19.059 17.215 18.2697V10.2614H17.2146ZM22.7103 14.164V15.3144L24.9786 17.0287L26.2883 15.6754L26.4756 15.8557L23.4356 18.991L20.3486 16.6L19.8811 17.0737L19.6938 16.8934L20.2318 16.352V10.645L24.6517 7.53202L26.967 11.1414L22.7103 14.164ZM20.9797 16.1494V10.4194L20.4886 10.758V16.375L23.3886 18.6534L23.7629 18.27L20.9797 16.1494ZM22.7573 9.20135L22.7103 9.22402V13.8484L24.7917 12.382L22.7573 9.20135ZM23.3651 8.75035L22.9442 9.04335L25.0025 12.224L25.4234 11.9307L23.3651 8.75035ZM42.2106 18.9687L38.9598 16.2617L36.481 18.9687L33.1134 16.1714V11.7504H32.4585C31.8738 11.7504 31.5701 12.1114 31.4294 12.5397H31.3593C31.2846 12.2596 31.2454 11.9719 31.2425 11.6827C31.2425 11.096 31.4063 9.56236 33.1134 9.56236V5.68235C33.1134 4.93802 32.2014 4.64469 32.2014 3.65202C32.2014 2.36669 33.4641 1.10335 35.7795 0.313354L35.8731 0.381021C35.0313 0.855021 34.5869 1.30602 34.5869 2.27602C34.5869 3.76502 36.0836 3.38135 36.0836 5.72735V6.62969L38.8198 3.85502L41.6964 6.58435L44.4091 3.85502L47.0282 6.33635V14.6827L42.2106 18.9687ZM33.8619 15.8107V11.0514H32.5522C31.8738 11.0514 31.5701 11.4797 31.5231 11.8634L31.5462 11.886C31.7802 11.638 32.0141 11.5027 32.5518 11.5027H33.3701V16.0594L36.4571 18.631L36.8079 18.2247L33.8619 15.8107ZM33.8619 5.45669C33.8619 4.53202 33.0201 4.21602 33.0201 3.62969C33.0201 2.81735 33.3473 2.14102 33.8619 1.50935L33.8152 1.48702C33.1137 2.00602 32.4589 2.84069 32.4589 3.65235C32.4589 4.46469 33.3708 4.84802 33.3708 5.57002V9.56269H33.8619V5.45669ZM38.7963 7.71269L37.019 6.04335L36.0836 6.96802V14.9534L38.2116 16.6904L38.7963 16.0587V7.71269ZM39.5445 15.7657V7.39702L37.5568 5.50202L37.1825 5.86302L39.0534 7.59969V16.0137L42.2106 18.653L42.5848 18.3144L39.5445 15.7657ZM44.0815 7.41935L42.6083 6.06569L41.7665 6.90035V14.931L44.0584 16.8707L44.0815 16.8484V7.41935ZM44.8297 7.10369L43.1225 5.50202L42.7718 5.86302L44.3386 7.30669V16.7357L44.8297 16.2844V7.10369ZM54.7666 18.9687L52.5449 17.0287L50.5572 18.9687L48.125 16.8934L47.7974 17.2317L47.6105 17.0514L48.0314 16.6227V10.5777L52.4281 7.50969L54.9539 9.40469L55.3983 8.95335L55.5856 9.13402L55.071 9.65269V15.9014L56.3103 17.0064L56.708 16.6004L56.895 16.7584L54.7666 18.9687ZM48.7799 16.465V10.3744L48.2888 10.7127V16.6907L50.534 18.6307L50.9083 18.2697L48.7799 16.465ZM52.5449 10.5324L50.6273 9.08869L50.5572 9.13402V15.698L52.1475 17.0287L52.5449 16.6454V10.5324ZM53.2934 16.668V10.194L51.3057 8.63735L50.8381 8.95302L52.8024 10.442V16.8934L54.7669 18.6077L55.1177 18.2467L53.2934 16.668ZM61.572 11.615H63.9806V16.4424L60.2622 18.9687C59.7712 18.4274 59.0693 18.044 58.2044 18.044C57.5028 18.044 56.9413 18.2697 56.1931 18.8787L56.0763 18.8334L59.257 14.367H57.2924V10.1714L61.198 7.55469C61.6656 7.91569 62.0164 8.11835 62.6246 8.11835C63.0925 8.11835 63.7705 8.02802 64.285 7.62235L64.3787 7.66735L61.572 11.615ZM58.9529 17.3897C58.2745 17.3897 57.7368 17.6154 57.2689 17.931V17.9764C57.6431 17.8184 58.0174 17.7734 58.3682 17.7734C58.9059 17.7734 59.748 18.0217 60.3092 18.6534L60.8473 18.27C60.4025 17.7734 59.8648 17.3897 58.9529 17.3897ZM61.4548 13.6H60.1451L57.4088 17.4127L57.4323 17.4577C58.1104 16.984 58.7652 16.6684 59.5604 16.6684C60.2619 16.6684 60.9869 16.984 61.4313 17.5254L61.4548 17.503V13.6ZM58.0406 13.6V9.96869L57.5495 10.307V14.0967H59.4436L59.8178 13.6004H58.0406V13.6ZM62.9283 9.17869C62.4373 9.51735 62.1567 9.69769 61.338 9.69769C60.8701 9.69769 60.3089 9.49469 59.8648 9.04335L59.8182 9.06602V12.3594H60.7066L62.9518 9.20102L62.9283 9.17869ZM61.8059 8.97569C61.385 8.97569 60.8473 8.77302 60.4962 8.32169L59.9115 8.70502C60.3559 9.22402 60.7768 9.44935 61.4313 9.44935C61.8522 9.44935 62.4604 9.33635 63.0918 8.81735L63.1149 8.75002C62.7179 8.90835 62.2268 8.97569 61.8059 8.97569ZM62.2033 12.856H60.6831L60.3324 13.3297H61.7123V17.7057L62.2033 17.3674V12.856ZM72.0487 9.63002V17.435C72.0487 19.6004 70.0609 21.067 67.8393 21.4954L67.7926 21.405C68.8919 20.886 69.5232 19.826 69.5232 18.698V10.6224L68.2605 9.51735L67.7694 10.036V16.3297L68.471 16.9387V16.984L66.5769 18.969L64.4022 17.0517V16.9614L65.244 16.104V6.13369L67.7228 3.58502L67.7694 3.60735V9.65269L69.8042 7.53235L71.9322 9.38235L72.3296 8.97602L72.5169 9.13435L72.0487 9.63002ZM65.5008 17.0064V16.9614L65.9918 16.4874V5.75002L65.5008 6.24635V16.2617L64.7523 16.9837V17.0287L66.5762 18.6077L66.9035 18.2467L65.5008 17.0064ZM70.2714 10.2614L68.7512 8.99835L68.424 9.33669L69.7803 10.51V18.6307C69.7803 19.172 69.6635 19.7357 69.4531 20.0517L69.4766 20.0744C70.0613 19.668 70.2717 19.059 70.2717 18.2697V10.2614H70.2714ZM76.3051 18.9687L74.2939 17.1867L73.826 17.6604L73.6386 17.4797L74.1767 16.916V10.397L73.1946 9.49469L72.8203 9.90102L72.633 9.72035L74.7376 7.50969L76.6085 9.13402L77.0764 8.63769L77.2869 8.79569L76.7021 9.40469V15.9917L77.8249 17.0067L78.3395 16.4877L78.5264 16.6684L76.3051 18.9687ZM74.9252 16.7584V10.036L73.7092 8.95335L73.3819 9.31435L74.4342 10.2844V16.984L76.3051 18.608L76.6558 18.247L74.9252 16.7584ZM75.6267 7.32935L73.7092 5.63769L75.4633 3.83302L77.3809 5.52469L75.6267 7.32935ZM74.4342 5.27635L74.0834 5.61469L75.6032 6.99069L75.954 6.60735L74.4342 5.27635ZM86.1936 18.9687L84.1589 17.1867V10.6L82.9193 9.51735L82.2645 10.194V16.2844L82.9895 16.9384V17.0287L81.0719 18.9687L78.8969 17.0514V16.9837L79.739 16.1267V10.442L78.6398 9.47202L78.1954 9.94569L78.0084 9.76535L80.1365 7.53202L82.2645 9.35935V9.81035L84.4862 7.53202L86.5672 9.33669L87.0351 8.86302L87.2456 9.04335L86.6843 9.60736V16.0587L87.7366 17.006L88.2512 16.4647L88.4381 16.645L86.1936 18.9687ZM80.0196 17.0064V16.9614C80.0196 17.0064 80.4875 16.51 80.4875 16.51V10.1034L79.1543 8.93036L78.8267 9.26869L79.9961 10.3064V16.2614L79.2711 16.9834V17.0284L81.0719 18.6074L81.4458 18.224L80.0196 17.0064ZM84.9071 16.826V10.2167L83.4574 8.95335L83.0831 9.33669L84.416 10.487V17.0514L86.1698 18.6304L86.544 18.2467L84.9071 16.826ZM92.7882 23.029C92.0169 22.217 91.4788 21.8787 90.7538 21.8787C89.9821 21.8787 89.0933 22.172 88.1814 22.6457L88.1112 22.5784L91.3385 18.969L89.0467 17.2097L88.6023 17.661L88.4153 17.503L88.9295 16.9617V10.5777L93.3729 7.50969L95.8517 9.40469L96.2729 8.95335L96.4599 9.13402L95.9688 9.65269V17.3677C95.9688 18.5407 96.6469 18.4957 96.6469 19.375C96.6469 20.39 95.1267 21.3374 92.7882 23.029ZM89.678 16.7807V10.397L89.187 10.7357V16.984L91.502 18.7887L91.8531 18.3824L89.678 16.7807ZM91.315 21.2924C90.5434 21.2924 89.8415 21.518 89.187 21.9464V21.9917C89.6079 21.8337 90.0755 21.6307 90.8706 21.6307C91.5956 21.6307 92.2035 22.014 92.8117 22.691L93.2796 22.33C92.6945 21.676 91.993 21.2924 91.315 21.2924ZM94.1681 19.1267C93.5837 18.7657 93.4431 18.3824 93.4431 17.4124V17.006L89.5609 21.337L89.5844 21.3594C90.3326 20.931 91.0109 20.6154 92.1102 20.6154C93.0456 20.6154 93.677 20.976 94.402 21.5627C94.8464 21.2017 95.1502 20.841 95.1502 20.277C95.1502 19.826 94.7524 19.4877 94.1681 19.1267ZM93.4431 10.5324L91.502 9.06635L91.455 9.11135V16.0364L92.952 17.1644L93.4431 16.623V10.5324ZM94.8696 18.811C94.2614 18.3597 94.1912 17.9764 94.1912 17.0064V10.149L92.2266 8.61502L91.7826 8.90835L93.7002 10.3744V17.322C93.7002 18.292 93.7472 18.563 94.3785 18.9687C94.9397 19.3297 95.3838 19.713 95.3838 20.232C95.3838 20.367 95.3606 20.5927 95.3606 20.5927L95.3838 20.6154C95.5009 20.5024 95.6412 20.322 95.6412 20.0287C95.6416 19.5327 95.3841 19.1944 94.8696 18.811ZM100.482 18.9687L98.3308 17.3447L97.8864 17.8184L97.6995 17.6377L98.2137 17.0964V9.20135H96.8573L96.8103 9.15635L97.629 7.98302H98.2133V6.47202L100.692 3.92302L100.739 3.96835V7.98335H102.61L102.657 8.02869L101.838 9.20169H100.739V16.0367L102.026 16.9844L102.517 16.4654L102.704 16.6457L100.482 18.9687ZM98.9622 6.08835L98.4711 6.60735V7.98335H98.9622V6.08835ZM98.9622 16.871V9.20135H98.4711V17.1417L100.459 18.6307L100.81 18.2697L98.9622 16.871ZM110.351 9.85569V16.1717L106.399 18.9914L103.428 16.826L103.078 17.2094L102.891 17.0287L103.312 16.5777V10.397L107.451 7.53202L110.211 9.60769L110.655 9.15635L110.842 9.33669L110.351 9.85569ZM104.06 16.3524V10.194L103.569 10.5324V16.6004L106.375 18.6757L106.82 18.36L104.06 16.3524ZM107.825 10.6L105.861 9.11102L105.838 9.13369V15.8557L107.825 17.2994V10.6ZM108.574 10.194L106.399 8.56969L105.955 8.88535L108.083 10.4644V17.48L108.574 17.1194V10.194ZM119.285 18.9687L117.25 17.1867V10.6L116.01 9.51735L115.355 10.194V16.2844L116.08 16.9384V17.0287L114.163 18.9687L111.988 17.0514V16.9837L112.83 16.1267V10.442L111.731 9.47202L111.286 9.94569L111.099 9.76535L113.227 7.53202L115.355 9.35935V9.81035L117.577 7.53202L119.659 9.33669L120.126 8.86302L120.337 9.04335L119.775 9.60736V16.0587L120.828 17.006L121.342 16.4647L121.529 16.645L119.285 18.9687ZM113.11 17.0064V16.9614C113.11 17.0064 113.578 16.51 113.578 16.51V10.1034L112.245 8.93036L111.918 9.26869L113.087 10.3064V16.2614L112.362 16.9834V17.0284L114.163 18.6074L114.537 18.224L113.11 17.0064ZM117.998 16.826V10.2167L116.548 8.95335L116.174 9.33669L117.507 10.487V17.0514L119.261 18.6304L119.635 18.2467L117.998 16.826ZM133.732 18.9687C133.077 18.292 132.843 18.0664 132.071 17.8634V22.2847L132.024 22.307L131.089 21.4947L128.376 23.9084L128.329 23.886V17.8184C127.511 17.9987 126.645 18.405 125.803 19.2167L125.756 19.1944C125.92 17.4574 126.809 16.1717 128.329 15.6754V11.2767H127.838C127.16 11.2767 126.785 11.615 126.458 12.224H126.388C126.318 12.0214 126.271 11.705 126.271 11.1867C126.271 10.239 126.996 9.24669 128.189 9.24669H128.329V6.81035L127.37 5.97569L126.902 6.42702L126.738 6.26902L129.1 3.85535L131.298 5.79535V7.84802L131.813 7.30669V4.71235H132.07V7.08102L135.18 3.85502L137.823 6.17869V15.9914L133.732 18.9687ZM128.33 16.9837C127.371 17.164 126.693 17.728 126.249 18.4724L126.272 18.5177C126.927 17.9764 127.534 17.7284 128.33 17.5477V16.9837ZM129.078 10.51H127.792C126.903 10.51 126.552 11.0514 126.529 11.683L126.552 11.7054C126.833 11.254 127.114 11.0964 127.675 11.029H128.587V23.3227L129.078 22.8714V10.51ZM129.078 6.44935L127.909 5.41202L127.534 5.79535L128.587 6.69735V9.24636H129.078V6.44935ZM131.814 7.73502L131.3 8.25402V21.315L131.814 21.7664V7.73502ZM134.878 7.21635L133.498 5.99835L132.071 7.48735V15.4274C133.288 15.5404 134.129 15.8787 134.854 16.6454L134.878 16.623V7.21635ZM132.071 16.9837V17.5704C132.867 17.7507 133.194 17.9764 133.755 18.6077L134.293 18.2017C133.732 17.525 133.17 17.1194 132.071 16.9837ZM135.626 6.85569L134.036 5.43435L133.661 5.81769L135.135 7.12602V17.6154L135.626 17.2544V6.85569ZM145.986 9.85569V16.1717L142.033 18.9914L139.063 16.826L138.712 17.2094L138.525 17.0287L138.946 16.5777V10.397L143.086 7.53202L145.845 9.60769L146.289 9.15635L146.477 9.33669L145.986 9.85569ZM139.695 16.3524V10.194L139.204 10.5324V16.6004L142.01 18.6757L142.455 18.36L139.695 16.3524ZM143.46 10.6L141.496 9.11102L141.472 9.13369V15.8557L143.46 17.2994V10.6ZM144.209 10.194L142.034 8.56969L141.59 8.88535L143.718 10.4644V17.48L144.209 17.1194V10.194ZM151.411 11.615H153.82V16.4424L150.102 18.9687C149.611 18.4274 148.909 18.044 148.044 18.044C147.342 18.044 146.781 18.2697 146.033 18.8787L145.916 18.8334L149.096 14.367H147.132V10.1714L151.037 7.55469C151.505 7.91569 151.855 8.11835 152.464 8.11835C152.932 8.11835 153.609 8.02802 154.124 7.62235L154.218 7.66735L151.411 11.615ZM148.792 17.3897C148.114 17.3897 147.576 17.6154 147.108 17.931V17.9764C147.483 17.8184 147.857 17.7734 148.208 17.7734C148.746 17.7734 149.587 18.0217 150.148 18.6534L150.686 18.27C150.242 17.7734 149.704 17.3897 148.792 17.3897ZM151.295 13.6H149.985L147.249 17.4127L147.272 17.4577C147.95 16.984 148.605 16.6684 149.4 16.6684C150.102 16.6684 150.827 16.984 151.271 17.5254L151.294 17.503V13.6H151.295ZM147.88 13.6V9.96869L147.389 10.307V14.0967H149.283L149.657 13.6004H147.88V13.6ZM152.768 9.17869C152.276 9.51735 151.996 9.69769 151.177 9.69769C150.709 9.69769 150.148 9.49469 149.704 9.04335L149.657 9.06602V12.3594H150.545L152.791 9.20102L152.768 9.17869ZM151.645 8.97569C151.224 8.97569 150.686 8.77302 150.336 8.32169L149.751 8.70502C150.195 9.22402 150.616 9.44935 151.271 9.44935C151.692 9.44935 152.3 9.33635 152.932 8.81735L152.955 8.75002C152.557 8.90835 152.066 8.97569 151.645 8.97569ZM152.043 12.856H150.523L150.172 13.3297H151.552V17.7057L152.043 17.3674V12.856ZM157.702 18.9687L155.551 17.3447L155.106 17.8184L154.919 17.6377L155.434 17.0964V9.20135H154.077L154.031 9.15635L154.849 7.98302H155.433V6.47202L157.912 3.92302L157.959 3.96835V7.98335H159.83L159.877 8.02869L159.058 9.20169H157.959V16.0367L159.246 16.9844L159.737 16.4654L159.924 16.6457L157.702 18.9687ZM156.182 6.08835L155.691 6.60735V7.98335H156.182V6.08835ZM156.182 16.871V9.20135H155.691V17.1417L157.679 18.6307L158.029 18.2697L156.182 16.871Z" fill="#231F20"/>
</svg>
