<svg width="129" height="22" viewBox="0 0 129 22" fill="none" xmlns="http://www.w3.org/2000/svg">
<g clip-path="url(#clip0_1_12216)">
<path d="M0 0.0709205V5.95582H4.00102V21.4733H10.7634V0.0709205H0ZM22.182 8.20444H19.0174V5.94569H20.6098V0.0709205H12.2651V21.4733H19.0174V13.3803H22.182V21.4733H28.9545V0.0709205H22.182V8.20444ZM30.4359 21.4733H42.963V15.5783H36.896V13.0866H40.7559V8.20444H36.896V5.95582H42.963V0.0709205H30.4359V21.4733ZM96.2259 7.31309C96.2259 2.69431 92.8296 0.0709205 88.0123 0.0709205H80.4839V21.4632H87.2463V15.9834L91.1163 21.4632H98.7455L93.263 13.2588C95.2383 12.175 96.2259 10.1998 96.2259 7.31309ZM87.2262 9.68326V5.7026C88.1634 5.7026 89.3123 5.98621 89.655 7.01936C89.6852 7.11052 89.7054 7.21181 89.7356 7.31309C89.7356 7.32322 89.7356 7.34348 89.7457 7.35361C89.7558 7.4549 89.7759 7.57645 89.7759 7.69799C89.7759 9.28823 88.3348 9.68326 87.2262 9.68326ZM56.3569 13.1068H56.2964L55.8127 11.3444L54.3009 5.96595H56.9616L58.7152 0.0709205H45.2105L52.9505 21.4632H59.8842L60.7207 19.1741C60.7207 19.1741 64.4295 9.0654 66.4552 3.55527V21.4632H78.9823V15.5682H72.9152V13.0764H76.7651V8.20444H72.9152V5.95582H78.9823V0.060791H60.2672L56.3569 13.1068ZM129 5.96595V0.0810501H116.473V21.4733H129V15.5783H122.923V13.0866H126.783V8.2247H122.923V5.96595" fill="#F94A2B"/>
<path d="M115.173 16.9862V8.26521H105.619V13.1271H109.176V14.8591C108.904 15.1022 108.32 15.2339 107.715 15.2339C105.236 15.2339 103.402 13.2689 103.402 10.8683C103.402 8.46779 105.186 6.34071 107.665 6.34071C109.166 6.34071 112.724 6.35084 112.724 6.35084V0.010144H111.101C108.078 0.010144 105.065 -0.232951 102.293 1.20535C100.106 2.33979 98.3727 4.26429 97.4556 6.55342C96.9215 7.90057 96.6494 9.35913 96.6494 10.8076C96.6494 16.8748 101.386 21.9899 107.524 21.9899C110.567 21.9899 113.54 20.8453 115.163 19.4171C115.173 17.9383 115.173 17.7155 115.173 16.9862Z" fill="#F94A2B"/>
</g>
<defs>
<clipPath id="clip0_1_12216">
<rect width="129" height="22" fill="white"/>
</clipPath>
</defs>
</svg>
