<svg width="43" height="32" viewBox="0 0 43 32" fill="none" xmlns="http://www.w3.org/2000/svg">
<path fill-rule="evenodd" clip-rule="evenodd" d="M29.9894 0.0249552C28.062 0.196397 26.051 0.587008 23.6678 1.25289C19.1849 2.50531 16.7948 2.68251 12.1708 2.10517C10.7247 1.92461 7.99888 1.48628 6.34242 1.16787C5.74861 1.05377 5.22859 0.960368 5.18673 0.960368C5.14269 0.960368 5.11059 2.18724 5.11059 3.8711C5.11059 6.5726 5.12118 6.78478 5.25767 6.82331C5.541 6.90324 7.59821 7.1984 8.46048 7.28276C10.8396 7.51549 13.4391 7.20793 16.4698 6.33511C21.4729 4.89441 24.9353 4.6041 29.5271 5.24017C30.4452 5.36733 36.7761 6.54935 37.7009 6.7663L37.8901 6.81066V14.7923V22.7739L39.0878 22.9636C39.7465 23.0679 40.8656 23.2612 41.5746 23.3931C42.2835 23.5251 42.8983 23.6331 42.9407 23.6331C42.9871 23.6331 43.0092 19.216 42.9964 12.5248L42.9751 1.41645L41.7564 1.18948C39.9236 0.848155 37.0257 0.411212 35.3265 0.219973C33.8983 0.0592107 30.8543 -0.052017 29.9894 0.0249552ZM23.6856 7.41855C21.7721 7.58704 19.7477 7.98019 17.3641 8.64616C11.945 10.1601 9.48496 10.1926 2.5769 8.8411C1.20647 8.57297 0.0622105 8.35364 0.0340537 8.35364C0.00598106 8.35364 -0.00746692 13.3525 0.00421601 19.4622L0.0255647 30.5708L2.43149 31.0343C6.57339 31.8323 8.66623 32.0679 10.868 31.984C13.0184 31.9022 15.5141 31.4802 17.7601 30.8187C20.3911 30.0438 22.4618 29.6683 24.6102 29.5767C26.6886 29.488 28.5749 29.7093 32.7839 30.5355C34.1592 30.8054 35.3034 31.0263 35.3268 31.0263C35.3501 31.0263 35.3596 26.0271 35.3479 19.917L35.3265 8.80758L33.3514 8.41878C29.4269 7.64635 27.9383 7.45059 25.7028 7.41288C24.8014 7.39769 23.8936 7.40023 23.6856 7.41855ZM27.0476 12.3794C28.4188 12.4949 30.3004 12.7236 30.4068 12.7879C30.4694 12.8257 30.4447 13.1888 30.3255 13.9812C30.2313 14.6077 30.138 15.1361 30.1181 15.1556C30.0982 15.175 29.4087 15.1089 28.5858 15.0089C27.7629 14.9088 26.4277 14.8107 25.6188 14.7908L24.1479 14.7547L24.0507 13.8748C23.9075 12.5784 23.9116 12.3976 24.0849 12.3533C24.361 12.2828 26.0793 12.2979 27.0476 12.3794ZM18.9287 14.9234C19.8782 15.1608 20.523 15.5254 21.251 16.237C21.9791 16.9486 22.3522 17.5788 22.5951 18.5067C22.899 19.6685 22.74 20.9335 22.1538 22.0159C21.7898 22.688 20.7717 23.6848 20.0979 24.0288C18.9803 24.5994 17.6924 24.7527 16.5074 24.4566C15.5719 24.2227 14.9156 23.8508 14.1844 23.1402C13.4558 22.4322 13.0856 21.8072 12.8411 20.8732C12.5381 19.715 12.695 18.4563 13.2787 17.3641C13.6311 16.7049 14.6506 15.7104 15.3396 15.354C16.4469 14.7812 17.7393 14.6261 18.9287 14.9234ZM16.9055 17.3726C14.7969 18.1092 14.6125 20.9254 16.6101 21.8841C17.2903 22.2106 18.1458 22.2106 18.826 21.8841C19.7276 21.4514 20.1941 20.7033 20.1941 19.69C20.1941 18.9902 20.0195 18.5221 19.5736 18.0256C18.9709 17.3549 17.7863 17.0649 16.9055 17.3726ZM6.91766 24.3786C7.6573 24.4713 8.94326 24.5649 9.77536 24.5866L11.2883 24.6261L11.4039 25.7759C11.4675 26.4082 11.4928 26.9518 11.4601 26.9839C11.3526 27.0892 9.71795 27.1016 8.51671 27.006C7.15518 26.8977 5.05183 26.6425 4.98544 26.5775C4.96047 26.5532 5.01628 26.0265 5.10941 25.4072C5.20254 24.788 5.27869 24.2648 5.27869 24.2446C5.27869 24.1836 5.51755 24.2031 6.91766 24.3786Z" fill="white"/>
</svg>
