<svg width="30" height="22" viewBox="0 0 30 22" fill="none" xmlns="http://www.w3.org/2000/svg">
<path fill-rule="evenodd" clip-rule="evenodd" d="M24.15 0H27C28.65 0 30 1.41429 30 3.14286V18.8571C30 20.5857 28.65 22 27 22H3C1.35 22 0 20.5857 0 18.8571V3.14286C0 1.41429 1.35 0 3 0H5.85H24.15ZM25.9882 2L15.4236 10.3034C15.2151 10.4631 14.8676 10.4631 14.6591 10.3034L4.16408 2H2L2.77401 2.63872L13.8251 11.5808C14.5201 12.1397 15.4931 12.1397 16.1882 11.5808L27.2392 2.63872L28 2H25.9882Z" fill="currentColor"/>
</svg>
