<svg width="59" height="46" viewBox="0 0 59 46" fill="none" xmlns="http://www.w3.org/2000/svg">
<path fill-rule="evenodd" clip-rule="evenodd" d="M41.1482 0.0364277C38.5037 0.279977 35.7444 0.834876 32.4744 1.78083C26.3235 3.56001 23.044 3.81173 16.6994 2.99157C14.7153 2.73507 10.9752 2.11237 8.70239 1.66005C7.88762 1.49796 7.17411 1.36527 7.11668 1.36527C7.05625 1.36527 7.0122 3.10816 7.0122 5.50024C7.0122 9.33797 7.02673 9.6394 7.21402 9.69413C7.60277 9.80768 10.4255 10.227 11.6086 10.3468C14.8729 10.6774 18.4397 10.2405 22.5982 9.0006C29.4628 6.95394 34.2135 6.54153 40.5139 7.44513C41.7737 7.62578 50.4602 9.30495 51.7292 9.61315L51.9887 9.67616V21.0148V32.3534L53.6321 32.6229C54.5358 32.7711 56.0714 33.0457 57.0442 33.2331C58.0169 33.4206 58.8605 33.574 58.9186 33.574C58.9823 33.574 59.0126 27.2991 58.9951 17.7936L58.9658 2.01318L57.2936 1.69074C54.7788 1.20586 50.8027 0.585142 48.4713 0.313469C46.5116 0.0850909 42.335 -0.0729185 41.1482 0.0364277ZM32.4989 10.5397C29.8734 10.7791 27.0957 11.3376 23.8251 12.2837C16.3897 14.4344 13.0143 14.4805 3.53575 12.5606C1.65538 12.1797 0.0853585 11.8681 0.0467249 11.8681C0.00820658 11.8681 -0.0102453 18.9694 0.00578476 27.6488L0.0350771 43.4297L3.33624 44.0881C9.0193 45.2217 11.8909 45.5564 14.9119 45.4373C17.8625 45.321 21.2868 44.7215 24.3685 43.7818C27.9785 42.681 30.8196 42.1477 33.7674 42.0174C36.6192 41.8915 39.2074 42.2059 44.9826 43.3795C46.8695 43.763 48.4396 44.0768 48.4716 44.0768C48.5036 44.0768 48.5166 36.9749 48.5006 28.2949L48.4713 12.513L45.7612 11.9606C40.3764 10.8633 38.3339 10.5852 35.2667 10.5317C34.0298 10.5101 32.7843 10.5137 32.4989 10.5397ZM37.1118 17.5871C38.9932 17.7511 41.575 18.0761 41.7209 18.1674C41.8068 18.221 41.7729 18.737 41.6094 19.8626C41.4801 20.7526 41.3521 21.5033 41.3249 21.5309C41.2975 21.5585 40.3515 21.4647 39.2224 21.3225C38.0933 21.1803 36.2613 21.0409 35.1513 21.0127L33.1332 20.9615L32.9998 19.7115C32.8033 17.8698 32.809 17.6129 33.0467 17.55C33.4255 17.4499 35.7832 17.4714 37.1118 17.5871ZM25.972 21.201C27.2747 21.5383 28.1594 22.0563 29.1584 23.0672C30.1573 24.078 30.6693 24.9733 31.0025 26.2915C31.4195 27.9419 31.2014 29.739 30.3971 31.2766C29.8976 32.2313 28.5007 33.6475 27.5761 34.1362C26.0428 34.9467 24.2757 35.1646 22.6497 34.7439C21.3662 34.4116 20.4656 33.8833 19.4623 32.8738C18.4626 31.8681 17.9546 30.9802 17.6192 29.6534C17.2034 28.008 17.4187 26.2199 18.2196 24.6683C18.7031 23.7319 20.102 22.3191 21.0474 21.8128C22.5667 20.999 24.34 20.7787 25.972 21.201ZM23.1959 24.6804C20.3027 25.7268 20.0497 29.7275 22.7906 31.0895C23.724 31.5532 24.8977 31.5532 25.831 31.0895C27.0681 30.4747 27.7082 29.4119 27.7082 27.9724C27.7082 26.9783 27.4687 26.3134 26.8567 25.608C26.0299 24.6552 24.4045 24.2432 23.1959 24.6804ZM9.49167 34.6331C10.5065 34.7647 12.271 34.8978 13.4127 34.9286L15.4885 34.9846L15.6472 36.618C15.7345 37.5163 15.7692 38.2886 15.7244 38.3341C15.5769 38.4838 13.3339 38.5013 11.6857 38.3656C9.81758 38.2117 6.93159 37.8492 6.84048 37.7569C6.80623 37.7222 6.8828 36.9741 7.01058 36.0943C7.13836 35.2146 7.24285 34.4714 7.24285 34.4428C7.24285 34.3561 7.5706 34.3837 9.49167 34.6331Z" fill="url(#paint0_linear_1_11500)"/>
<defs>
<linearGradient id="paint0_linear_1_11500" x1="-24.2843" y1="-34.283" x2="63.9996" y2="-42.8345" gradientUnits="userSpaceOnUse">
<stop offset="0.00520833" stop-color="#FCB42F"/>
<stop offset="1" stop-color="#CB34E3"/>
</linearGradient>
</defs>
</svg>
