<svg xmlns="http://www.w3.org/2000/svg" viewBox="0 0 160 34.16"><defs><style>.a{fill:#fff;}</style></defs><title>icon-microsoft</title><path class="a" d="M160,15.45V12.64h-3.49V8.26l-.12,0-3.28,1-.06,0v3.31h-5.18V10.79a2.93,2.93,0,0,1,.57-2,2,2,0,0,1,1.6-.65,3.73,3.73,0,0,1,1.52.35l.13.06v-3l-.06,0a5.92,5.92,0,0,0-1.94-.26,5.69,5.69,0,0,0-2.75.66A4.71,4.71,0,0,0,145,7.87a5.57,5.57,0,0,0-.67,2.74v2h-2.43v2.81h2.43V27.31h3.49V15.45H153V23c0,3.1,1.46,4.67,4.35,4.67a7.14,7.14,0,0,0,1.48-.16,4.1,4.1,0,0,0,1.08-.34l0,0V24.29l-.14.09a2.45,2.45,0,0,1-.7.31,2.67,2.67,0,0,1-.69.12,1.87,1.87,0,0,1-1.49-.54,2.92,2.92,0,0,1-.47-1.88V15.45H160ZM134.13,24.8a3.71,3.71,0,0,1-3-1.25A5.3,5.3,0,0,1,130.1,20a5.51,5.51,0,0,1,1.07-3.62,3.65,3.65,0,0,1,2.94-1.27A3.59,3.59,0,0,1,137,16.35a5.4,5.4,0,0,1,1,3.59,5.76,5.76,0,0,1-1,3.63,3.5,3.5,0,0,1-2.9,1.22m.16-12.52a7.66,7.66,0,0,0-5.71,2.11,7.9,7.9,0,0,0-2.06,5.75,7.48,7.48,0,0,0,2,5.49,7.31,7.31,0,0,0,5.4,2,7.45,7.45,0,0,0,5.6-2.14,7.88,7.88,0,0,0,2.06-5.69,7.68,7.68,0,0,0-1.94-5.53,7.13,7.13,0,0,0-5.37-2m-13.4,0a6.31,6.31,0,0,0-4,1.25,4,4,0,0,0-1.58,3.25,4.55,4.55,0,0,0,.34,1.82,3.65,3.65,0,0,0,1,1.36,9.08,9.08,0,0,0,2.12,1.19,15.82,15.82,0,0,1,1.77.82,2.45,2.45,0,0,1,.78.64,1.43,1.43,0,0,1,.22.83c0,1-.74,1.46-2.26,1.46a6.2,6.2,0,0,1-1.91-.35,7.17,7.17,0,0,1-2-1l-.15-.1v3.36l.05,0a8.65,8.65,0,0,0,1.85.57,9.93,9.93,0,0,0,2,.23,6.7,6.7,0,0,0,4.27-1.26A4.07,4.07,0,0,0,125,23.07a3.83,3.83,0,0,0-.86-2.52,7.34,7.34,0,0,0-2.91-1.85,7.5,7.5,0,0,1-2.07-1.08,1.51,1.51,0,0,1-.42-1.13,1.26,1.26,0,0,1,.53-1,2.38,2.38,0,0,1,1.49-.42,6.08,6.08,0,0,1,1.77.27,5.69,5.69,0,0,1,1.55.72l.14.1V12.92l-.05,0a7.62,7.62,0,0,0-1.57-.44,9.58,9.58,0,0,0-1.72-.18M106.16,24.8a3.71,3.71,0,0,1-3-1.25A5.3,5.3,0,0,1,102.12,20a5.51,5.51,0,0,1,1.07-3.62,3.64,3.64,0,0,1,2.94-1.27A3.59,3.59,0,0,1,109,16.35a5.4,5.4,0,0,1,1,3.59,5.76,5.76,0,0,1-1,3.63,3.5,3.5,0,0,1-2.9,1.22m.16-12.52a7.66,7.66,0,0,0-5.71,2.11,7.9,7.9,0,0,0-2.06,5.75,7.48,7.48,0,0,0,2,5.49,7.3,7.3,0,0,0,5.4,2,7.45,7.45,0,0,0,5.6-2.14,7.88,7.88,0,0,0,2.06-5.69,7.68,7.68,0,0,0-1.94-5.53,7.13,7.13,0,0,0-5.37-2M93.24,15.18V12.64H89.79V27.31h3.45V19.8a5.23,5.23,0,0,1,.86-3.12,2.64,2.64,0,0,1,2.23-1.18,4.05,4.05,0,0,1,1,.15,2.62,2.62,0,0,1,.8.33l.15.11V12.61l-.06,0a3.57,3.57,0,0,0-1.35-.21,3.54,3.54,0,0,0-2.31.83,4.67,4.67,0,0,0-1.33,2Zm-9.63-2.89a8.52,8.52,0,0,0-4.2,1,6.8,6.8,0,0,0-2.77,2.85,9.06,9.06,0,0,0-1,4.22,7.78,7.78,0,0,0,.92,3.78,6.49,6.49,0,0,0,2.58,2.61,7.69,7.69,0,0,0,3.77.92,8.26,8.26,0,0,0,4.16-1l0,0V23.5l-.15.11a6.49,6.49,0,0,1-1.69.88,5.1,5.1,0,0,1-1.65.32,4.25,4.25,0,0,1-3.23-1.26,4.9,4.9,0,0,1-1.19-3.49,5.08,5.08,0,0,1,1.24-3.58,4.23,4.23,0,0,1,3.24-1.34A5.54,5.54,0,0,1,87,16.28l.14.11V13.06l0,0a5.69,5.69,0,0,0-1.6-.54,9.53,9.53,0,0,0-1.93-.21m-10.29.35H69.87V27.31h3.45ZM71.63,6.39A2.08,2.08,0,0,0,70.16,7a1.9,1.9,0,0,0-.62,1.44,1.85,1.85,0,0,0,.61,1.41,2.1,2.1,0,0,0,1.48.56,2.13,2.13,0,0,0,1.48-.56,1.84,1.84,0,0,0,.62-1.41A1.94,1.94,0,0,0,73.13,7a2.06,2.06,0,0,0-1.5-.59M63,11.56V27.31h3.52V6.84H61.67L55.47,22l-6-15.2H44.39V27.31H47.7V11.56h.11l6.35,15.75h2.5l6.25-15.75H63Z"/><path class="a" d="M16.23,16.23H0V0H16.23Z"/><path class="a" d="M34.15,16.23H17.92V0H34.15V16.23Z"/><path class="a" d="M16.23,34.16H0V17.93H16.23Z"/><path class="a" d="M34.15,34.16H17.92V17.93H34.15V34.16Z"/></svg>