<svg width="52" height="50" viewBox="0 0 52 50" fill="none" xmlns="http://www.w3.org/2000/svg">
<path fill-rule="evenodd" clip-rule="evenodd" d="M16.3163 0.0738015C15.8878 0.205384 15.3528 0.768915 15.2331 1.21483C15.0288 1.97527 15.2238 2.32813 16.6445 3.76881L17.9284 5.07077L11.3056 11.7188C7.66292 15.3753 4.60479 18.5232 4.50951 18.7141C4.23596 19.2628 4.33592 20.2326 4.72316 20.7854C5.34621 21.6748 6.53213 21.9838 7.45964 21.4983C7.70533 21.3697 10.4631 18.68 14.423 14.7067L20.9796 8.12805L22.304 9.44184C23.3863 10.5154 23.6982 10.7686 24.0097 10.827C24.5474 10.9276 25.0439 10.8103 25.4189 10.4941C26.0131 9.99283 26.0181 9.95084 26.0181 5.4219C26.0181 1.50959 26.0073 1.26548 25.8179 0.893363C25.7078 0.676981 25.4447 0.392208 25.2332 0.260422L24.8487 0.0208016L20.7302 0.00194593C18.4651 -0.0084502 16.4788 0.0238593 16.3163 0.0738015ZM38.6669 11.0384C38.0649 11.2554 37.417 11.8544 37.1404 12.4497L36.901 12.965L36.9 28.228L36.899 43.4909H43.4088H49.9186L49.8916 28.228L49.8645 12.965L49.6485 12.5064C49.388 11.9532 48.902 11.4468 48.3445 11.1477C47.9415 10.9314 47.8345 10.9261 43.5089 10.907C39.8241 10.8908 39.0155 10.9127 38.6669 11.0384ZM21.6168 19.6477C20.8352 19.8375 20.1862 20.3557 19.7815 21.1134L19.5608 21.5265L19.5336 32.5087L19.5064 43.4909H26.0181H32.5299L32.5026 32.5087L32.4755 21.5265L32.2506 21.1052C31.9464 20.535 31.4531 20.0592 30.9004 19.8028C30.4607 19.5989 30.2666 19.5893 26.2215 19.5722C23.9004 19.5624 21.8283 19.5963 21.6168 19.6477ZM3.64005 28.586C3.3242 28.7514 2.95049 29.0579 2.76094 29.307C2.11867 30.151 2.1209 30.1233 2.1209 37.1393V43.4909H8.63122H15.1415L15.114 36.8404C15.0832 29.4164 15.1261 29.856 14.3576 29.0858C13.61 28.3364 13.7748 28.3586 8.72264 28.3269L4.18938 28.2984L3.64005 28.586ZM0.946379 46.8954C0.2738 47.1898 -0.114251 47.9717 0.0299463 48.7421C0.119129 49.2188 0.627072 49.7819 1.08803 49.9152C1.34572 49.9897 9.07021 50.0136 26.2395 49.9929L51.019 49.963L51.2999 49.7528C51.8334 49.3535 52 49.0278 52 48.3832C52 47.7386 51.8334 47.4129 51.2999 47.0136L51.019 46.8034L26.1378 46.7816C5.60695 46.7635 1.20233 46.7835 0.946379 46.8954Z" fill="url(#paint0_linear_1_1184)"/>
<defs>
<linearGradient id="paint0_linear_1_1184" x1="-21.4031" y1="-37.7086" x2="56.6661" y2="-43.7682" gradientUnits="userSpaceOnUse">
<stop offset="0.00520833" stop-color="#FCB42F"/>
<stop offset="1" stop-color="#CB34E3"/>
</linearGradient>
</defs>
</svg>
