<svg width="50" height="37" viewBox="0 0 50 37" fill="none" xmlns="http://www.w3.org/2000/svg">
<path fill-rule="evenodd" clip-rule="evenodd" d="M13.6946 36.5391L14.2822 35.7056L13.6946 36.5391ZM14.8699 36.5391L14.8739 36.537L14.8841 36.5299L14.9147 36.5064L15.0351 36.4197C15.1371 36.3442 15.2861 36.2341 15.4738 36.0892C15.8492 35.8015 16.3817 35.3781 17.0173 34.8344C18.6857 33.4084 20.2457 31.8602 21.6845 30.2029C25.0592 26.2997 28.5645 20.7286 28.5645 14.3598C28.5645 10.5546 27.0608 6.9024 24.3839 4.20918C23.0608 2.87623 21.4871 1.81811 19.7534 1.09573C18.0198 0.373344 16.1604 0.000957253 14.2822 0C12.4042 0.00082362 10.5448 0.37305 8.81117 1.09526C7.07752 1.81747 5.50382 2.87539 4.18062 4.20816C1.50109 6.90754 -0.00179856 10.5573 1.61534e-06 14.3608C1.61534e-06 20.7286 3.50527 26.2997 6.87996 30.2029C8.31877 31.8602 9.87881 33.4084 11.5472 34.8344C12.1838 35.3781 12.7153 35.8015 13.0907 36.0892C13.2748 36.2311 13.4609 36.3705 13.6487 36.5075L13.6814 36.5299L13.6905 36.537L13.6946 36.5391C14.0466 36.787 14.5179 36.787 14.8699 36.5391ZM14.2822 35.7056L14.8699 36.5391L14.2822 35.7056ZM19.383 14.2822C19.383 15.6351 18.8456 16.9325 17.8891 17.8891C16.9325 18.8456 15.6351 19.383 14.2822 19.383C12.9294 19.383 11.632 18.8456 10.6754 17.8891C9.71885 16.9325 9.18144 15.6351 9.18144 14.2822C9.18144 12.9294 9.71885 11.632 10.6754 10.6754C11.632 9.71885 12.9294 9.18144 14.2822 9.18144C15.6351 9.18144 16.9325 9.71885 17.8891 10.6754C18.8456 11.632 19.383 12.9294 19.383 14.2822Z" fill="white"/>
<path opacity="0.8" fill-rule="evenodd" clip-rule="evenodd" d="M25.2108 29.1996C28.3031 25.3718 31.252 20.2014 31.252 14.3598C31.252 10.5546 29.7483 6.9024 27.0714 4.20918C26.9468 4.0837 26.82 3.96065 26.6911 3.84009C27.4684 3.66996 28.2636 3.58336 29.0632 3.58301C30.5291 3.58375 31.9803 3.8744 33.3334 4.43822C34.6865 5.00203 35.9148 5.82788 36.9474 6.86824C39.0367 8.97028 40.2104 11.8208 40.2104 14.7907C40.2104 19.7615 37.4745 24.1097 34.8406 27.1561C33.7176 28.4497 32.5 29.658 31.1979 30.771C30.7018 31.1954 30.2862 31.5258 29.9932 31.7503C29.8477 31.8626 29.732 31.9482 29.6524 32.0071L29.6508 32.0083L29.5569 32.076L29.533 32.0943L29.525 32.0999L29.5218 32.1015C29.2471 32.295 28.8793 32.295 28.6046 32.1015L28.6014 32.0999L28.5942 32.0943L28.5687 32.0768C28.4221 31.9699 28.2769 31.8611 28.1332 31.7503C27.8402 31.5258 27.4254 31.1954 26.9285 30.771C26.3383 30.2665 25.7654 29.7424 25.2108 29.1996Z" fill="white"/>
<path opacity="0.6" fill-rule="evenodd" clip-rule="evenodd" d="M37.8148 27.085C40.3276 23.9748 42.7241 19.7734 42.7241 15.0266C42.7241 11.9349 41.5023 8.96755 39.3274 6.77931C39.226 6.67723 39.1229 6.57712 39.018 6.47904C39.6491 6.34104 40.2946 6.27079 40.9437 6.27051C42.1347 6.27111 43.3139 6.50726 44.4133 6.96536C45.5126 7.42346 46.5106 8.09446 47.3496 8.93974C49.0472 10.6476 50.0008 12.9637 50.0008 15.3767C50.0008 19.4155 47.7779 22.9484 45.6379 25.4235C44.7254 26.4746 43.7361 27.4563 42.6781 28.3606C42.2751 28.7054 41.9374 28.9739 41.6993 29.1563C41.5811 29.2475 41.4872 29.3171 41.4225 29.3649L41.4212 29.3659L41.3448 29.4209L41.3254 29.4358L41.3189 29.4403L41.3164 29.4416C41.0932 29.5988 40.7943 29.5988 40.5711 29.4416L40.5685 29.4403L40.5627 29.4358L40.542 29.4216C40.4228 29.3347 40.3049 29.2463 40.1881 29.1563C39.95 28.9739 39.613 28.7054 39.2093 28.3606C38.7301 27.951 38.265 27.5256 37.8148 27.085Z" fill="white"/>
</svg>
