<svg width="34" height="25" viewBox="0 0 34 25" fill="none" xmlns="http://www.w3.org/2000/svg">
<path fill-rule="evenodd" clip-rule="evenodd" d="M4.66263 0.11822C3.14422 0.484556 1.941 1.6504 1.54257 3.14137C1.40128 3.67007 1.40128 4.66239 1.54257 5.1911C2.1197 7.35077 4.32298 8.69652 6.53723 8.24176C8.08806 7.92322 9.42904 6.64568 9.78842 5.14434C9.84422 4.91123 9.88986 4.47108 9.88986 4.16623C9.88986 3.00163 9.50736 2.09374 8.66439 1.25752C8.24171 0.838241 8.01472 0.672744 7.56687 0.45756C6.61083 -0.00182623 5.63368 -0.116005 4.66263 0.11822ZM15.97 0.0865297C15.0162 0.272566 14.2184 0.633294 13.4709 1.21651C11.1835 3.00078 10.668 6.20338 12.2793 8.61925C12.7757 9.36352 13.5966 10.0784 14.4188 10.4824C15.3615 10.9457 15.9652 11.0907 16.9664 11.0947C18.5191 11.1008 19.77 10.6182 20.866 9.59038C21.7612 8.75083 22.3163 7.78094 22.5497 6.64842C22.6991 5.92338 22.653 4.73556 22.4484 4.03836C22.1294 2.95096 21.3488 1.8174 20.4668 1.1603C19.9334 0.762926 18.9886 0.306148 18.3946 0.158584C17.7957 0.00978075 16.5528 -0.0271921 15.97 0.0865297ZM27.4289 0.0943547C25.905 0.415632 24.5665 1.70243 24.2109 3.18812C24.1551 3.42124 24.1095 3.86139 24.1095 4.16623C24.1095 5.33084 24.4919 6.23872 25.3349 7.07494C25.9482 7.68339 26.6693 8.07894 27.4621 8.24176C29.674 8.69606 31.8606 7.36426 32.4491 5.20433C32.597 4.66168 32.6006 3.67946 32.4566 3.14085C31.8761 0.968395 29.6581 -0.375595 27.4289 0.0943547ZM3.68082 9.77094C2.03772 10.0295 0.724639 11.1042 0.211416 12.6106C0.037972 13.1197 0.0331228 13.178 0.00867725 15.0343C-0.012314 16.6296 0.000971587 17.0029 0.0909817 17.3491C0.373567 18.436 1.26869 19.2424 2.39119 19.4211C3.02837 19.5226 5.64045 19.5124 5.64052 19.4085C5.64052 19.3637 5.67127 19.0042 5.70874 18.6097C5.93951 16.1833 7.02887 14.0158 8.86514 12.3293C9.18027 12.0399 9.62986 11.6785 9.86421 11.5261C10.0986 11.3737 10.2904 11.2283 10.2904 11.2028C10.2904 11.1126 9.53407 10.4796 9.2006 10.2906C9.01447 10.1851 8.62307 10.0207 8.33079 9.92522C7.81125 9.75542 7.75705 9.75118 5.90616 9.73514C4.8649 9.72608 3.8635 9.74218 3.68082 9.77094ZM26.3253 9.77074C25.4825 9.90005 24.6985 10.2681 24.0885 10.8208C23.8615 11.0266 23.6906 11.2065 23.7089 11.2206C23.7272 11.2348 23.9812 11.4193 24.2735 11.6305C26.5717 13.2913 28.0249 15.816 28.2906 18.6097C28.328 19.0042 28.3588 19.3637 28.3588 19.4085C28.3589 19.5124 30.9709 19.5226 31.6081 19.4211C32.7306 19.2424 33.6257 18.436 33.9083 17.3491C33.9982 17.0036 34.0118 16.6263 33.9922 15.0343C33.9688 13.1528 33.9666 13.1267 33.785 12.6178C33.3931 11.5197 32.7052 10.7302 31.6819 10.204C30.8831 9.79318 30.6587 9.75972 28.5581 9.73814C27.5169 9.72745 26.5121 9.74212 26.3253 9.77074ZM14.3757 12.6176C11.7988 13.0693 9.70479 14.8411 8.85736 17.2869C8.569 18.1192 8.48052 18.8996 8.51001 20.3512C8.53492 21.5784 8.54954 21.7091 8.71142 22.1527C8.9576 22.8271 9.25932 23.2976 9.76185 23.7909C10.2617 24.2815 10.7385 24.5771 11.4307 24.8253L11.9179 25H16.9997H22.0814L22.5687 24.8253C23.2608 24.5771 23.7377 24.2815 24.2375 23.7909C24.7419 23.2957 25.0438 22.8238 25.2855 22.1527C25.4431 21.7149 25.4602 21.5649 25.4871 20.3823C25.5055 19.5729 25.4871 18.8931 25.4379 18.5627C25.2038 16.9911 24.5343 15.668 23.4129 14.5609C22.3492 13.5109 21.0792 12.8677 19.565 12.6123C18.7633 12.477 15.1567 12.4808 14.3757 12.6176Z" fill="url(#paint0_linear_1_1374)"/>
<path fill-rule="evenodd" clip-rule="evenodd" d="M4.66263 0.11822C3.14422 0.484556 1.941 1.6504 1.54257 3.14137C1.40128 3.67007 1.40128 4.66239 1.54257 5.1911C2.1197 7.35077 4.32298 8.69652 6.53723 8.24176C8.08806 7.92322 9.42904 6.64568 9.78842 5.14434C9.84422 4.91123 9.88986 4.47108 9.88986 4.16623C9.88986 3.00163 9.50736 2.09374 8.66439 1.25752C8.24171 0.838241 8.01472 0.672744 7.56687 0.45756C6.61083 -0.00182623 5.63368 -0.116005 4.66263 0.11822ZM15.97 0.0865297C15.0162 0.272566 14.2184 0.633294 13.4709 1.21651C11.1835 3.00078 10.668 6.20338 12.2793 8.61925C12.7757 9.36352 13.5966 10.0784 14.4188 10.4824C15.3615 10.9457 15.9652 11.0907 16.9664 11.0947C18.5191 11.1008 19.77 10.6182 20.866 9.59038C21.7612 8.75083 22.3163 7.78094 22.5497 6.64842C22.6991 5.92338 22.653 4.73556 22.4484 4.03836C22.1294 2.95096 21.3488 1.8174 20.4668 1.1603C19.9334 0.762926 18.9886 0.306148 18.3946 0.158584C17.7957 0.00978075 16.5528 -0.0271921 15.97 0.0865297ZM27.4289 0.0943547C25.905 0.415632 24.5665 1.70243 24.2109 3.18812C24.1551 3.42124 24.1095 3.86139 24.1095 4.16623C24.1095 5.33084 24.4919 6.23872 25.3349 7.07494C25.9482 7.68339 26.6693 8.07894 27.4621 8.24176C29.674 8.69606 31.8606 7.36426 32.4491 5.20433C32.597 4.66168 32.6006 3.67946 32.4566 3.14085C31.8761 0.968395 29.6581 -0.375595 27.4289 0.0943547ZM3.68082 9.77094C2.03772 10.0295 0.724639 11.1042 0.211416 12.6106C0.037972 13.1197 0.0331228 13.178 0.00867725 15.0343C-0.012314 16.6296 0.000971587 17.0029 0.0909817 17.3491C0.373567 18.436 1.26869 19.2424 2.39119 19.4211C3.02837 19.5226 5.64045 19.5124 5.64052 19.4085C5.64052 19.3637 5.67127 19.0042 5.70874 18.6097C5.93951 16.1833 7.02887 14.0158 8.86514 12.3293C9.18027 12.0399 9.62986 11.6785 9.86421 11.5261C10.0986 11.3737 10.2904 11.2283 10.2904 11.2028C10.2904 11.1126 9.53407 10.4796 9.2006 10.2906C9.01447 10.1851 8.62307 10.0207 8.33079 9.92522C7.81125 9.75542 7.75705 9.75118 5.90616 9.73514C4.8649 9.72608 3.8635 9.74218 3.68082 9.77094ZM26.3253 9.77074C25.4825 9.90005 24.6985 10.2681 24.0885 10.8208C23.8615 11.0266 23.6906 11.2065 23.7089 11.2206C23.7272 11.2348 23.9812 11.4193 24.2735 11.6305C26.5717 13.2913 28.0249 15.816 28.2906 18.6097C28.328 19.0042 28.3588 19.3637 28.3588 19.4085C28.3589 19.5124 30.9709 19.5226 31.6081 19.4211C32.7306 19.2424 33.6257 18.436 33.9083 17.3491C33.9982 17.0036 34.0118 16.6263 33.9922 15.0343C33.9688 13.1528 33.9666 13.1267 33.785 12.6178C33.3931 11.5197 32.7052 10.7302 31.6819 10.204C30.8831 9.79318 30.6587 9.75972 28.5581 9.73814C27.5169 9.72745 26.5121 9.74212 26.3253 9.77074ZM14.3757 12.6176C11.7988 13.0693 9.70479 14.8411 8.85736 17.2869C8.569 18.1192 8.48052 18.8996 8.51001 20.3512C8.53492 21.5784 8.54954 21.7091 8.71142 22.1527C8.9576 22.8271 9.25932 23.2976 9.76185 23.7909C10.2617 24.2815 10.7385 24.5771 11.4307 24.8253L11.9179 25H16.9997H22.0814L22.5687 24.8253C23.2608 24.5771 23.7377 24.2815 24.2375 23.7909C24.7419 23.2957 25.0438 22.8238 25.2855 22.1527C25.4431 21.7149 25.4602 21.5649 25.4871 20.3823C25.5055 19.5729 25.4871 18.8931 25.4379 18.5627C25.2038 16.9911 24.5343 15.668 23.4129 14.5609C22.3492 13.5109 21.0792 12.8677 19.565 12.6123C18.7633 12.477 15.1567 12.4808 14.3757 12.6176Z" fill="url(#paint1_linear_1_1374)"/>
<defs>
<linearGradient id="paint0_linear_1_1374" x1="-13.9943" y1="-18.8543" x2="36.8348" y2="-24.0135" gradientUnits="userSpaceOnUse">
<stop offset="0.00520833" stop-color="#FCB42F"/>
<stop offset="1" stop-color="#CB34E3"/>
</linearGradient>
<linearGradient id="paint1_linear_1_1374" x1="67.629" y1="24.9839" x2="-0.40456" y2="49.7152" gradientUnits="userSpaceOnUse">
<stop offset="0" stop-color="#FF45C8"/>
<stop offset="1" stop-color="#74BCFF"/>
</linearGradient>
</defs>
</svg>
