<svg xmlns="http://www.w3.org/2000/svg" viewBox="0 0 125 25.18"><defs><style>.a{fill:#fff;}</style></defs><title>icon-meta</title><path class="a" d="M4.1,16.61a6.32,6.32,0,0,0,.73,3.23A2.5,2.5,0,0,0,7,21.09c1.07,0,2-.27,3.93-2.87,1.51-2.09,3.29-5,4.48-6.85l2-3.11a30.19,30.19,0,0,1,4.9-6.19A7.43,7.43,0,0,1,27.17,0C30,0,32.6,1.61,34.62,4.63A21.18,21.18,0,0,1,37.92,16.4a11.5,11.5,0,0,1-1.36,5.92,5.69,5.69,0,0,1-5.16,2.87V21.09c2.32,0,2.9-2.14,2.9-4.58A19.35,19.35,0,0,0,31.7,6.4c-1.27-2-2.92-3.16-4.73-3.16s-3.53,1.48-5.3,4.11c-.94,1.4-1.91,3.1-3,5L17.48,14.5a53.39,53.39,0,0,1-4.21,6.82c-2.1,2.8-3.9,3.86-6.26,3.86a6.14,6.14,0,0,1-5.68-3A11,11,0,0,1,0,16.46Z"/><path class="a" d="M3.23,4.92C5.11,2,7.82,0,10.92,0a8.3,8.3,0,0,1,5.46,2.06c2,1.67,4.22,4.41,6.94,8.94l1,1.62a67.68,67.68,0,0,0,4.47,6.89c1,1.22,1.71,1.58,2.63,1.58,2.32,0,2.9-2.14,2.9-4.58l3.61-.11a11.5,11.5,0,0,1-1.36,5.92,5.69,5.69,0,0,1-5.16,2.87,6.42,6.42,0,0,1-4.84-1.93A26.85,26.85,0,0,1,22.66,18l-3.4-5.68A39.05,39.05,0,0,0,15.08,6.4a5.75,5.75,0,0,0-4.23-2.29c-1.62,0-3,1.14-4.14,2.87Z"/><path class="a" d="M10.86,4.12c-1.62,0-3,1.14-4.14,2.87A18.26,18.26,0,0,0,4.1,16.61a6.32,6.32,0,0,0,.73,3.23l-3.49,2.3A11,11,0,0,1,0,16.46,21.7,21.7,0,0,1,3.23,4.92C5.11,2,7.82,0,10.92,0Z"/><path class="a" d="M45.88.8h4.74l8.06,14.57L66.73.8h4.63V24.74H67.5V6.39L60.43,19.1H56.81L49.74,6.39V24.74H45.88ZM83.47,9.72c-2.77,0-4.44,2.09-4.84,4.67H88c-.19-2.66-1.73-4.67-4.57-4.67ZM74.8,15.86c0-5.44,3.51-9.39,8.74-9.39s8.21,3.91,8.21,9.68v1.06H78.63A5.16,5.16,0,0,0,84,21.92a7.06,7.06,0,0,0,5.32-2.07l2.05,2.51a10.67,10.67,0,0,1-7.51,2.8C78.17,25.17,74.8,21,74.8,15.86Zm21.64-5.8H92.88V6.9h3.56V1.67h3.73V6.9h5.4v3.16h-5.4v8c0,2.74.88,3.71,3,3.71a12.52,12.52,0,0,0,2.38-.22v3.13a11.1,11.1,0,0,1-3.1.43q-6,0-6-6.6Zm24.84,3.08a5,5,0,0,0-4.87-3.28c-3.19,0-5.23,2.26-5.23,6s1.88,6,5.08,6a5.25,5.25,0,0,0,5-3.28ZM125,24.74h-3.66v-2.5a6.88,6.88,0,0,1-5.9,2.92c-4.85,0-8.09-4.06-8.09-9.36s3.32-9.34,8.3-9.34a6.81,6.81,0,0,1,5.69,2.72V6.9H125Z"/></svg>