<svg width="24" height="17" viewBox="0 0 24 17" fill="none" xmlns="http://www.w3.org/2000/svg">
<path fill-rule="evenodd" clip-rule="evenodd" d="M21.6 0H19.32H4.68H2.4C1.08 0 0 1.08 0 2.4V14.4C0 15.72 1.08 16.8 2.4 16.8H21.6C22.92 16.8 24 15.72 24 14.4V2.4C24 1.08 22.92 0 21.6 0ZM4.68 1.2H19.32H21.48L12.36 7.44C12.18 7.56 11.88 7.56 11.7 7.44L2.64 1.2H4.68ZM22.8 14.4C22.8 15.06 22.26 15.6 21.6 15.6H2.4C1.74 15.6 1.2 15.06 1.2 14.4V2.4C1.2 2.1 1.32 1.86 1.44 1.68L10.98 8.4C11.58 8.82 12.42 8.82 13.02 8.4L22.56 1.68C22.68 1.86 22.8 2.1 22.8 2.4V14.4Z" fill="currentColor"/>
</svg>
