<svg width="26" height="25" viewBox="0 0 26 25" fill="none" xmlns="http://www.w3.org/2000/svg">
<path fill-rule="evenodd" clip-rule="evenodd" d="M10.9512 0.75C5.31709 0.75 0.75 5.32003 0.75 10.9571C0.75 16.5942 5.31709 21.1643 10.9512 21.1643C13.4818 21.1643 15.7976 20.242 17.5805 18.7154L23.8492 24.4122C24.1712 24.7309 24.6895 24.7292 25.0095 24.4073C25.3302 24.0847 25.3304 23.5619 25.0097 23.2392L18.7436 17.5448C20.2462 15.7671 21.1524 13.4677 21.1524 10.9571C21.1524 5.32003 16.5853 0.75 10.9512 0.75ZM2.45 10.9571C2.45 6.25796 6.25692 2.45 10.9512 2.45C15.6455 2.45 19.4524 6.25796 19.4524 10.9571C19.4524 15.6563 15.6455 19.4643 10.9512 19.4643C6.25692 19.4643 2.45 15.6563 2.45 10.9571Z"/>
</svg>
