<svg width="134" height="30" viewBox="0 0 134 30" fill="none" xmlns="http://www.w3.org/2000/svg">
<path d="M19.8588 30L0.09375 10.2L10.2613 0H29.4503L39.6237 10.2L19.8588 30ZM2.85015 10.2L19.8588 27.264L36.8673 10.2L28.6393 1.98H11.0665L2.85015 10.2ZM20.7815 11.514V8.478C20.7815 5.772 21.616 4.2 22.9208 4.2C23.1088 4.2 23.5673 4.2 23.5673 4.362C23.5673 4.716 23.3557 4.74 23.3557 5.04C23.3351 5.19836 23.3485 5.3594 23.3952 5.5119C23.4418 5.66439 23.5204 5.80466 23.6257 5.92292C23.7309 6.04118 23.8601 6.13457 24.0043 6.19659C24.1485 6.25861 24.3042 6.28776 24.4606 6.282C24.7045 6.28951 24.9422 6.20289 25.1263 6.03941C25.3104 5.87594 25.4273 5.64762 25.4538 5.4C25.4538 4.128 24.2373 3.642 23.1852 3.642C20.5934 3.642 18.6774 5.592 18.6774 10.242V11.568H16.5969V12.168H18.6774V21.63H16.5969V22.23H22.9678V21.63H20.7815V12.156H22.9678V11.556L20.7815 11.514ZM27.5696 11.79C27.5731 11.5923 27.5189 11.398 27.4138 11.2318C27.3088 11.0657 27.1577 10.9352 26.9797 10.8571C26.8018 10.7789 26.6051 10.7566 26.4147 10.793C26.2243 10.8294 26.0488 10.9228 25.9106 11.0613C25.7724 11.1999 25.6777 11.3773 25.6386 11.571C25.5995 11.7647 25.6178 11.9658 25.6911 12.1489C25.7644 12.3319 25.8894 12.4886 26.0502 12.5988C26.211 12.7091 26.4003 12.768 26.594 12.768C26.8497 12.768 27.0953 12.6656 27.2777 12.4827C27.4602 12.2998 27.565 12.051 27.5696 11.79Z" fill="white"/>
<path d="M48.4751 11.4897V8.39971C48.4234 7.31116 48.6248 6.22557 49.0629 5.23171C49.1898 4.91198 49.4041 4.63624 49.6803 4.43732C49.9564 4.2384 50.2827 4.12468 50.6203 4.10971C50.7085 4.10971 50.8436 4.10971 51.0141 4.10971C51.1845 4.10971 51.2727 4.17571 51.2727 4.24771C51.2808 4.31332 51.275 4.37995 51.2558 4.44309C51.2365 4.50623 51.2042 4.56442 51.161 4.61371C51.1227 4.6551 51.0935 4.70432 51.0753 4.75811C51.0571 4.81189 51.0502 4.86902 51.0552 4.92571C51.043 5.24836 51.1429 5.56504 51.3373 5.81971C51.4397 5.93957 51.5676 6.03383 51.7113 6.0952C51.855 6.15658 52.0106 6.18344 52.166 6.17371C52.4019 6.19123 52.637 6.13018 52.836 5.99971C52.9392 5.92805 53.0233 5.8313 53.0808 5.71818C53.1383 5.60506 53.1672 5.47912 53.1651 5.35171C53.1753 5.06512 53.1039 4.78166 52.9594 4.53571C52.822 4.31835 52.6419 4.13244 52.4305 3.98971C52.214 3.83707 51.9734 3.72343 51.7193 3.65371C51.4509 3.59444 51.1771 3.56428 50.9024 3.56371C50.2834 3.55724 49.6702 3.68613 49.104 3.94171C48.5342 4.21394 48.0394 4.62626 47.6641 5.14171C47.2135 5.75641 46.886 6.45573 46.7002 7.19971C46.4568 8.17985 46.3421 9.1887 46.3593 10.1997V11.5317H44.2729V12.1317H46.3593V21.5997H44.2729V22.1997H50.6673V21.5997H48.4751V12.1137H50.6673V11.5137L48.4751 11.4897Z" fill="white"/>
<path d="M62.2983 20.3998C62.2091 20.6702 62.0991 20.9331 61.9692 21.1858C61.9213 21.3148 61.8361 21.4259 61.7247 21.5042C61.6134 21.5824 61.4814 21.6242 61.3462 21.6238C61.0582 21.6238 60.8937 21.5158 60.8466 21.3118C60.7939 21.0028 60.7723 20.6892 60.782 20.3758V13.8778C60.7817 13.5887 60.762 13.3001 60.7232 13.0138C60.681 12.6875 60.5391 12.3831 60.3177 12.1438C60.0159 11.8289 59.6392 11.5994 59.2245 11.4778C58.5328 11.2794 57.815 11.1924 57.097 11.2198C56.4057 11.2023 55.7159 11.2934 55.0517 11.4898C54.5741 11.6305 54.1245 11.856 53.7235 12.1558C53.4182 12.3814 53.167 12.6747 52.9888 13.0138C52.851 13.2537 52.7686 13.5225 52.7479 13.7998C52.734 14.1403 52.8403 14.4746 53.0476 14.7418C53.1512 14.8641 53.2807 14.9606 53.4263 15.024C53.572 15.0874 53.7299 15.1161 53.888 15.1078C54.0369 15.1146 54.1855 15.0905 54.325 15.0368C54.4644 14.9832 54.5917 14.9012 54.6991 14.7958C54.8005 14.685 54.8792 14.5548 54.9306 14.4126C54.9821 14.2704 55.0053 14.1192 54.9988 13.9678C55.006 13.7778 54.9634 13.5893 54.8754 13.4218C54.8035 13.2888 54.7054 13.1723 54.5874 13.0798L54.3053 12.8758C54.223 12.8238 54.1819 12.7698 54.1819 12.7138C54.1851 12.6114 54.2159 12.5119 54.2708 12.4261C54.3258 12.3404 54.4028 12.2718 54.4934 12.2278C54.723 12.0925 54.9704 11.9915 55.228 11.9278C55.5043 11.8571 55.7851 11.8069 56.0685 11.7778C56.3447 11.7778 56.5563 11.7358 56.7032 11.7358C56.9406 11.7371 57.1772 11.7652 57.4085 11.8198C57.631 11.8687 57.8424 11.9603 58.0315 12.0898C58.2166 12.2202 58.3695 12.3927 58.4781 12.5938C58.6043 12.8394 58.6651 13.1146 58.6544 13.3918V15.9718C56.9535 15.8905 55.2593 16.241 53.7235 16.9918C53.176 17.2524 52.7108 17.6642 52.3806 18.1805C52.0503 18.6969 51.8681 19.2972 51.8545 19.9138C51.8378 20.3491 51.9266 20.7819 52.1131 21.1738C52.2747 21.4983 52.5106 21.7782 52.8008 21.9898C53.1045 22.2039 53.4457 22.3566 53.8058 22.4398C54.205 22.5313 54.6132 22.5756 55.0223 22.5718C55.7016 22.5768 56.3756 22.4506 57.0088 22.1998C57.6612 21.9288 58.2355 21.4932 58.6779 20.9338C58.7487 21.3858 58.9539 21.8048 59.2657 22.1338C59.4231 22.2834 59.6081 22.3997 59.8099 22.4759C60.0116 22.5521 60.2262 22.5867 60.4411 22.5778C60.7357 22.5863 61.0289 22.5343 61.3035 22.4251C61.5781 22.3159 61.8284 22.1515 62.0397 21.9418C62.4699 21.5267 62.7232 20.9557 62.745 20.3518L62.2983 20.3998ZM58.6544 19.0918C58.6964 19.5048 58.6209 19.9214 58.437 20.2918C58.1179 20.7929 57.6475 21.1742 57.097 21.3778C56.7361 21.5049 56.3561 21.5658 55.9744 21.5578C55.6932 21.5807 55.4105 21.5407 55.1459 21.4406C54.8814 21.3405 54.6415 21.1827 54.4428 20.9782C54.2442 20.7737 54.0916 20.5274 53.9958 20.2565C53.9 19.9856 53.8632 19.6967 53.888 19.4098C53.8607 18.8702 54.0398 18.341 54.3876 17.9338C54.7297 17.5557 55.1518 17.2622 55.6218 17.0758C56.1217 16.8745 56.6453 16.7413 57.1793 16.6798C57.669 16.6215 58.1614 16.5894 58.6544 16.5838V19.0918Z" fill="white"/>
<path d="M70.4797 11.49L69.9918 12.222C69.2883 11.6036 68.3985 11.25 67.4705 11.22C66.8473 11.1946 66.227 11.32 65.6604 11.586C65.2336 11.7972 64.8551 12.0977 64.5496 12.468C64.2817 12.7842 64.0815 13.1542 63.9619 13.554C63.8594 13.8801 63.8039 14.2196 63.7973 14.562C63.7765 15.0473 63.8692 15.5306 64.0676 15.972C64.246 16.3084 64.5048 16.5932 64.8199 16.8C65.1477 17.0185 65.5094 17.1788 65.8896 17.274L67.1767 17.598C68.1048 17.8221 69.0145 18.1189 69.8978 18.486C70.5737 18.78 70.9146 19.194 70.9146 19.716C70.9201 20.0542 70.8369 20.3877 70.6736 20.682C70.5096 20.9632 70.2964 21.2113 70.0447 21.414C69.5476 21.8301 68.9244 22.057 68.2816 22.056C67.83 22.068 67.3805 21.9888 66.9589 21.823C66.5374 21.6573 66.152 21.4082 65.8249 21.09C65.1643 20.4331 64.6944 19.6025 64.4673 18.69H63.8443V22.29H64.432L65.0197 21.312C65.4118 21.7267 65.8869 22.0501 66.4126 22.26C66.951 22.4802 67.5253 22.5942 68.1053 22.596C68.6216 22.6012 69.1348 22.5139 69.6216 22.338C70.0758 22.1785 70.4951 21.9298 70.8558 21.606C71.2163 21.282 71.5048 20.8831 71.7021 20.436C71.9152 19.9451 72.0215 19.4129 72.0136 18.876C72.0568 18.143 71.8351 17.4193 71.3906 16.842C70.7914 16.2557 70.0223 15.8831 69.1984 15.78C68.164 15.564 67.3589 15.372 66.7711 15.21C66.3178 15.0978 65.8767 14.939 65.4547 14.736C65.2342 14.6442 65.0487 14.4822 64.9257 14.274C64.8625 14.1055 64.8306 13.9265 64.8317 13.746C64.8464 13.5939 64.8739 13.4433 64.914 13.296C64.9793 13.0455 65.0999 12.8136 65.2666 12.618C65.4825 12.3688 65.7441 12.1649 66.0365 12.018C66.4571 11.8199 66.9205 11.7352 67.3824 11.772C67.748 11.7692 68.1106 11.841 68.4487 11.9831C68.7868 12.1253 69.0936 12.3351 69.3512 12.6C69.8529 13.1493 70.2036 13.824 70.368 14.556H70.9557V11.49H70.4797Z" fill="white"/>
<path d="M74.3645 21.5998H72.8776V22.1998H77.9437V21.5998H76.4803V16.5658C76.4845 16.0321 76.5678 15.5021 76.7271 14.9938C76.8829 14.4677 77.1147 13.9682 77.4148 13.5118C77.6945 13.0907 78.0446 12.7231 78.4491 12.4258C78.8247 12.152 79.2748 12.0052 79.7363 12.0058C79.9777 12.0036 80.2186 12.0318 80.4533 12.0898C80.6597 12.1438 80.8471 12.2561 80.994 12.4138C81.1627 12.6108 81.2799 12.8482 81.3348 13.1038C81.4151 13.4983 81.4506 13.901 81.4406 14.3038V21.5998H80.0301V22.1998H85.0199V21.5998H83.5564V13.9318C83.5819 13.4167 83.4528 12.9059 83.1862 12.4678C82.9542 12.1214 82.6437 11.8373 82.2811 11.6398C81.9492 11.455 81.5864 11.335 81.2114 11.2858C80.9091 11.2476 80.605 11.2256 80.3005 11.2198C79.4483 11.1738 78.61 11.4541 77.9496 12.0058C77.331 12.5916 76.842 13.3055 76.5156 14.0998H76.4568V3.2998C75.961 3.39182 75.4607 3.45592 74.9581 3.4918C74.4409 3.5278 73.9296 3.5458 73.4241 3.5458H72.8364V4.1458H74.3292L74.3645 21.5998Z" fill="white"/>
<path d="M86.189 22.2421V21.6001H88.005V12.1141H86.189V11.5141H87.0823C87.5877 11.5141 88.0991 11.5141 88.6162 11.4721C89.124 11.448 89.6281 11.3716 90.1208 11.2441V21.6001H91.7194V22.2001L86.189 22.2421Z" fill="white"/>
<path d="M87.7349 5.62736C87.7346 5.45107 87.7724 5.27688 87.8455 5.11718C87.9186 4.95748 88.0253 4.81619 88.158 4.70336C88.276 4.58077 88.4169 4.48361 88.5724 4.41765C88.7279 4.35169 88.8947 4.31827 89.0631 4.31936C89.4103 4.32558 89.743 4.4623 89.9976 4.70336C90.1372 4.81141 90.2502 4.95116 90.3277 5.11154C90.4053 5.27192 90.4452 5.44852 90.4442 5.62736C90.4508 5.81678 90.4193 6.00556 90.3515 6.18203C90.2838 6.3585 90.1813 6.51892 90.0505 6.65336C89.9233 6.78845 89.7696 6.89461 89.5994 6.96491C89.4293 7.03522 89.2465 7.06808 89.0631 7.06136C88.8845 7.06944 88.7064 7.0358 88.5424 6.96302C88.3785 6.89024 88.2329 6.78023 88.1169 6.64136C87.8805 6.35952 87.7549 5.99825 87.7643 5.62736" fill="white"/>
<path d="M102.469 14.6279C102.209 13.961 101.828 13.3503 101.346 12.8279C100.88 12.3141 100.313 11.9054 99.6832 11.6279C99.0448 11.3508 98.3582 11.208 97.6644 11.208C96.9707 11.208 96.2841 11.3508 95.6456 11.6279C95.0128 11.9037 94.4441 12.3126 93.9765 12.8279C93.4945 13.3503 93.1137 13.961 92.8539 14.6279C92.2896 16.085 92.2896 17.7068 92.8539 19.1639C93.1152 19.83 93.4959 20.4404 93.9765 20.9639C94.4479 21.4748 95.0156 21.8829 95.6456 22.1639C96.282 22.4489 96.9694 22.5961 97.6644 22.5961C98.3594 22.5961 99.0468 22.4489 99.6832 22.1639C100.311 21.8812 100.876 21.4732 101.346 20.9639C101.827 20.4404 102.208 19.83 102.469 19.1639C103.033 17.7068 103.033 16.085 102.469 14.6279ZM100.383 18.6719C100.366 19.2373 100.261 19.7964 100.071 20.3279C99.9077 20.8064 99.6239 21.2326 99.2483 21.5639C98.7786 21.8843 98.2264 22.0553 97.6615 22.0553C97.0966 22.0553 96.5443 21.8843 96.0746 21.5639C95.699 21.2326 95.4153 20.8064 95.2518 20.3279C95.0623 19.7964 94.9571 19.2373 94.9403 18.6719C94.9403 18.0719 94.8992 17.4719 94.8992 16.8719C94.8992 16.2719 94.8992 15.7259 94.9403 15.1199C94.9571 14.5545 95.0623 13.9954 95.2518 13.4639C95.4153 12.9854 95.699 12.5592 96.0746 12.2279C96.5443 11.9075 97.0966 11.7365 97.6615 11.7365C98.2264 11.7365 98.7786 11.9075 99.2483 12.2279C99.6239 12.5592 99.9077 12.9854 100.071 13.4639C100.261 13.9954 100.366 14.5545 100.383 15.1199C100.383 15.7199 100.424 16.3199 100.424 16.8719C100.424 17.4239 100.412 18.0659 100.383 18.6719Z" fill="white"/>
<path d="M105.108 21.6001H103.615V22.2001H108.681V21.6001H107.224V16.5661C107.232 15.4787 107.55 14.4173 108.141 13.5121C108.416 13.0896 108.765 12.7217 109.169 12.4261C109.552 12.1402 110.017 11.9905 110.492 12.0001C110.733 11.9979 110.974 12.0261 111.209 12.0841C111.415 12.1381 111.602 12.2504 111.749 12.4081C111.918 12.6051 112.035 12.8425 112.09 13.0981C112.17 13.4926 112.206 13.8953 112.196 14.2981V21.6001H110.785V22.2001H115.781V21.6001H114.318V13.9321C114.343 13.4178 114.216 12.9078 113.953 12.4681C113.726 12.1263 113.424 11.8429 113.072 11.6401C112.74 11.4544 112.377 11.3343 112.002 11.2861C111.696 11.2475 111.388 11.2254 111.079 11.2201C110.228 11.1724 109.39 11.4505 108.728 12.0001C108.11 12.5859 107.621 13.2998 107.294 14.0941H107.241V11.2201C106.983 11.2741 106.73 11.3161 106.477 11.3581C106.225 11.4001 105.972 11.4181 105.719 11.4361C105.468 11.472 105.215 11.49 104.961 11.4901H103.615V12.0901H105.108V21.6001Z" fill="white"/>
<path d="M115.834 12.114H117.38V20.232C117.379 20.5412 117.401 20.85 117.444 21.156C117.482 21.4255 117.58 21.6824 117.732 21.906C117.898 22.1319 118.122 22.3064 118.379 22.41C118.755 22.5497 119.154 22.6129 119.554 22.596C120.138 22.5854 120.711 22.4375 121.229 22.164C121.767 21.9193 122.208 21.4965 122.481 20.964L122.046 20.664C121.841 20.9074 121.623 21.1397 121.394 21.36C121.278 21.4685 121.141 21.5519 120.993 21.6055C120.844 21.6591 120.687 21.6817 120.53 21.672C120.327 21.6803 120.125 21.637 119.942 21.546C119.814 21.4792 119.706 21.3775 119.631 21.252C119.566 21.1303 119.529 20.9947 119.525 20.856C119.525 20.712 119.525 20.574 119.525 20.448V12.114H121.911V11.514H119.525V8.04004C119.19 8.09524 118.853 8.12731 118.514 8.13604C118.179 8.13604 117.832 8.13604 117.468 8.13604V11.478H115.869L115.834 12.114Z" fill="white"/>
<path d="M124.309 12.1142L127.941 22.5962H128.863L132.601 12.1142H133.9V11.4902H130.215V12.1142H131.867L129.134 19.9082H129.075L126.448 12.1142H127.888V11.4902H123.01V12.1142H124.309Z" fill="white"/>
</svg>
