<svg width="16" height="32" viewBox="0 0 16 32" fill="none" xmlns="http://www.w3.org/2000/svg">
<path d="M7 1C7 0.447715 7.44772 -2.41411e-08 8 0C8.55228 2.41411e-08 9 0.447715 9 1L7 1ZM8.70711 31.7071C8.31658 32.0976 7.68342 32.0976 7.29289 31.7071L0.928931 25.3431C0.538407 24.9526 0.538407 24.3195 0.928931 23.9289C1.31946 23.5384 1.95262 23.5384 2.34314 23.9289L8 29.5858L13.6569 23.9289C14.0474 23.5384 14.6805 23.5384 15.0711 23.9289C15.4616 24.3195 15.4616 24.9526 15.0711 25.3431L8.70711 31.7071ZM9 1L9 31L7 31L7 1L9 1Z" fill="white"/>
</svg>
