<svg width="32" height="24" viewBox="0 0 32 24" fill="none" xmlns="http://www.w3.org/2000/svg">
<path fill-rule="evenodd" clip-rule="evenodd" d="M3.72122 0.0203787C3.37918 0.0796165 2.72913 0.321194 2.31404 0.543303C1.76661 0.836151 0.909417 1.69741 0.575945 2.28973C0.446609 2.51942 0.264113 2.93864 0.170363 3.22134L0 3.73533V11.9914V20.2474L0.170363 20.7614C0.421718 21.5195 0.746058 22.0437 1.34364 22.6579C1.90289 23.2326 2.36595 23.53 3.15835 23.8234L3.56487 23.9738L15.7605 23.9911C29.4444 24.0104 28.4231 24.045 29.4626 23.526C30.7161 22.9001 31.6355 21.6575 31.9014 20.2297C32.0328 19.5241 32.0328 4.45865 31.9014 3.753C31.5896 2.07841 30.4655 0.775821 28.8004 0.15935L28.3939 0.00887808L16.1357 0.00110378C9.39374 -0.00320092 3.80722 0.00547293 3.72122 0.0203787ZM18.9037 3.95988C19.1753 4.12995 19.3561 4.44927 19.3564 4.75934C19.3566 4.9287 18.5282 7.42375 16.85 12.3086C15.4714 16.3216 14.3019 19.6713 14.2512 19.7525C14.0022 20.1508 13.3644 20.2779 12.9773 20.0064C12.7377 19.8384 12.5396 19.4904 12.5396 19.2375C12.5396 19.1403 13.6404 15.8583 14.9858 11.9442C16.3313 8.03007 17.4732 4.70652 17.5233 4.55862C17.6191 4.27612 17.8634 3.98076 18.0745 3.89229C18.3028 3.79656 18.694 3.82849 18.9037 3.95988ZM11.4138 5.88402C11.7925 6.15483 11.9624 6.69902 11.7825 7.06447C11.7446 7.14163 10.6121 8.33937 9.26597 9.72612L6.81853 12.2475L9.01518 14.5127C11.3358 16.9057 11.4145 17.0068 11.3171 17.4688C11.1796 18.1218 10.4413 18.4524 9.89814 18.1044C9.78582 18.0325 8.56382 16.8083 7.18252 15.384C4.44327 12.5596 4.46084 12.5825 4.60287 12.0255C4.65966 11.8029 5.07062 11.353 7.52763 8.82426C10.5302 5.73393 10.6167 5.65857 11.0699 5.73895C11.173 5.75726 11.3278 5.82253 11.4138 5.88402ZM22.0772 5.89257C22.1804 5.95669 23.3951 7.17447 24.7767 8.59868C26.9209 10.8092 27.2983 11.2262 27.3552 11.4473C27.5 12.0095 27.5452 11.952 24.4641 15.1279C22.9105 16.7294 21.5549 18.0855 21.4518 18.1416C21.1959 18.2805 20.7548 18.2654 20.5516 18.1108C20.162 17.8145 19.9955 17.2854 20.1762 16.9182C20.2142 16.8411 21.3468 15.6432 22.6932 14.2561L25.1411 11.7344L22.9703 9.5017C21.4506 7.93865 20.7695 7.19432 20.6993 7.01995C20.5022 6.53005 20.7598 5.97088 21.2641 5.79362C21.5498 5.6932 21.8066 5.72449 22.0772 5.89257Z" fill="url(#paint0_linear_1_1388)"/>
<path fill-rule="evenodd" clip-rule="evenodd" d="M3.72122 0.0203787C3.37918 0.0796165 2.72913 0.321194 2.31404 0.543303C1.76661 0.836151 0.909417 1.69741 0.575945 2.28973C0.446609 2.51942 0.264113 2.93864 0.170363 3.22134L0 3.73533V11.9914V20.2474L0.170363 20.7614C0.421718 21.5195 0.746058 22.0437 1.34364 22.6579C1.90289 23.2326 2.36595 23.53 3.15835 23.8234L3.56487 23.9738L15.7605 23.9911C29.4444 24.0104 28.4231 24.045 29.4626 23.526C30.7161 22.9001 31.6355 21.6575 31.9014 20.2297C32.0328 19.5241 32.0328 4.45865 31.9014 3.753C31.5896 2.07841 30.4655 0.775821 28.8004 0.15935L28.3939 0.00887808L16.1357 0.00110378C9.39374 -0.00320092 3.80722 0.00547293 3.72122 0.0203787ZM18.9037 3.95988C19.1753 4.12995 19.3561 4.44927 19.3564 4.75934C19.3566 4.9287 18.5282 7.42375 16.85 12.3086C15.4714 16.3216 14.3019 19.6713 14.2512 19.7525C14.0022 20.1508 13.3644 20.2779 12.9773 20.0064C12.7377 19.8384 12.5396 19.4904 12.5396 19.2375C12.5396 19.1403 13.6404 15.8583 14.9858 11.9442C16.3313 8.03007 17.4732 4.70652 17.5233 4.55862C17.6191 4.27612 17.8634 3.98076 18.0745 3.89229C18.3028 3.79656 18.694 3.82849 18.9037 3.95988ZM11.4138 5.88402C11.7925 6.15483 11.9624 6.69902 11.7825 7.06447C11.7446 7.14163 10.6121 8.33937 9.26597 9.72612L6.81853 12.2475L9.01518 14.5127C11.3358 16.9057 11.4145 17.0068 11.3171 17.4688C11.1796 18.1218 10.4413 18.4524 9.89814 18.1044C9.78582 18.0325 8.56382 16.8083 7.18252 15.384C4.44327 12.5596 4.46084 12.5825 4.60287 12.0255C4.65966 11.8029 5.07062 11.353 7.52763 8.82426C10.5302 5.73393 10.6167 5.65857 11.0699 5.73895C11.173 5.75726 11.3278 5.82253 11.4138 5.88402ZM22.0772 5.89257C22.1804 5.95669 23.3951 7.17447 24.7767 8.59868C26.9209 10.8092 27.2983 11.2262 27.3552 11.4473C27.5 12.0095 27.5452 11.952 24.4641 15.1279C22.9105 16.7294 21.5549 18.0855 21.4518 18.1416C21.1959 18.2805 20.7548 18.2654 20.5516 18.1108C20.162 17.8145 19.9955 17.2854 20.1762 16.9182C20.2142 16.8411 21.3468 15.6432 22.6932 14.2561L25.1411 11.7344L22.9703 9.5017C21.4506 7.93865 20.7695 7.19432 20.6993 7.01995C20.5022 6.53005 20.7598 5.97088 21.2641 5.79362C21.5498 5.6932 21.8066 5.72449 22.0772 5.89257Z" fill="url(#paint1_linear_1_1388)"/>
<defs>
<linearGradient id="paint0_linear_1_1388" x1="-13.1711" y1="-18.1001" x2="34.687" y2="-22.8625" gradientUnits="userSpaceOnUse">
<stop offset="0.00520833" stop-color="#FCB42F"/>
<stop offset="1" stop-color="#CB34E3"/>
</linearGradient>
<linearGradient id="paint1_linear_1_1388" x1="63.6509" y1="23.9845" x2="-0.672301" y2="46.9086" gradientUnits="userSpaceOnUse">
<stop offset="0" stop-color="#FF45C8"/>
<stop offset="1" stop-color="#74BCFF"/>
</linearGradient>
</defs>
</svg>
