<svg width="52" height="52" viewBox="0 0 52 52" fill="none" xmlns="http://www.w3.org/2000/svg">
<path fill-rule="evenodd" clip-rule="evenodd" d="M0.788227 0.209422C0.556156 0.332008 0.329062 0.565602 0.204242 0.810266C0.00853124 1.19397 0 1.40268 0 5.81202C0 10.0963 0.013 10.4375 0.187992 10.7639C0.490547 11.3281 0.839211 11.5273 1.52344 11.5273C2.20766 11.5273 2.55633 11.3281 2.85888 10.7639C3.03195 10.4411 3.04688 10.1209 3.04688 6.73014V3.04688H6.73014C10.1209 3.04688 10.4411 3.03195 10.7639 2.85888C11.3281 2.55633 11.5273 2.20766 11.5273 1.52344C11.5273 0.839211 11.3281 0.490547 10.7639 0.187992C10.4371 0.0126953 10.1007 0.000304687 5.79069 0.00446875C1.38897 0.00873438 1.14979 0.0185859 0.788227 0.209422ZM41.2361 0.187992C40.6719 0.490547 40.4727 0.839211 40.4727 1.52344C40.4727 2.20766 40.6719 2.55633 41.2361 2.85888C41.5589 3.03195 41.8791 3.04688 45.2699 3.04688H48.9531V6.73014C48.9531 10.1209 48.9681 10.4411 49.1411 10.7639C49.4437 11.3281 49.7923 11.5273 50.4766 11.5273C51.1608 11.5273 51.5095 11.3281 51.812 10.7639C51.987 10.4375 52 10.0963 52 5.81202C52 1.40085 51.9916 1.19407 51.7956 0.809859C51.6639 0.551789 51.4482 0.33607 51.1901 0.204445C50.8059 0.00842969 50.5991 0 46.188 0C41.9037 0 41.5625 0.013 41.2361 0.187992ZM9.85359 9.0674C9.34263 9.32699 9.34192 9.33502 9.36914 14.7608L9.39453 19.8224L9.67952 20.0674C9.9643 20.3124 9.96602 20.3125 12.5046 20.3125C14.1299 20.3125 15.1185 20.273 15.2496 20.2028C15.6545 19.9861 15.7422 19.5214 15.7422 17.5912V15.7776L16.0041 15.5313L16.266 15.2852L19.0943 15.2553C22.2085 15.2224 22.5524 15.2731 22.7506 15.7947C22.8889 16.1585 22.8889 39.904 22.7506 40.2678C22.5838 40.7066 22.1143 40.8281 20.5873 40.8281C18.6562 40.8281 18.7891 40.6013 18.7891 43.8987C18.7891 45.3289 18.8175 46.573 18.8521 46.6634C19.0271 47.1194 19.1143 47.125 26 47.125C32.8857 47.125 32.9729 47.1194 33.1479 46.6634C33.1825 46.573 33.2109 45.3225 33.2109 43.8844C33.2109 40.5997 33.3464 40.8281 31.3984 40.8281C29.8865 40.8281 29.4157 40.7053 29.2494 40.2678C29.1111 39.904 29.1111 16.1585 29.2494 15.7947C29.4476 15.2731 29.7915 15.2224 32.9057 15.2553C36.5673 15.294 36.2311 15.0408 36.2757 17.793L36.3086 19.8227L36.5936 20.0675L36.8786 20.3125H39.457H42.0355L42.3205 20.0674L42.6055 19.8223V14.6366V9.451L42.3741 9.21964L42.1429 8.98828L26.1241 8.96391C13.4033 8.94451 10.0536 8.96584 9.85359 9.0674ZM0.852719 40.5614C0.679352 40.64 0.427984 40.8578 0.294125 41.0455L0.0507812 41.3867L0.0224453 46.0823C-0.00497656 50.6392 0.00030469 50.7899 0.201602 51.1845C0.33607 51.4481 0.549859 51.6629 0.809859 51.7956C1.19407 51.9916 1.40085 52 5.81202 52C10.0963 52 10.4375 51.987 10.7639 51.812C11.3281 51.5095 11.5273 51.1608 11.5273 50.4766C11.5273 49.7923 11.3281 49.4437 10.7639 49.1411C10.4411 48.9681 10.1209 48.9531 6.73014 48.9531H3.04688V45.2699C3.04688 41.8791 3.03195 41.5589 2.85888 41.2361C2.75539 41.0432 2.55318 40.7977 2.40937 40.6903C2.07512 40.4407 1.26679 40.3738 0.852719 40.5614ZM49.8058 40.5614C49.6325 40.64 49.3811 40.8578 49.2472 41.0455L49.0039 41.3867L48.975 45.1699L48.946 48.9531H45.2664C41.8791 48.9531 41.5588 48.9681 41.2361 49.1411C40.6719 49.4437 40.4727 49.7923 40.4727 50.4766C40.4727 51.1608 40.6719 51.5095 41.2361 51.812C41.5625 51.987 41.9037 52 46.188 52C50.5991 52 50.8059 51.9916 51.1901 51.7956C51.4482 51.6639 51.6639 51.4482 51.7956 51.1901C51.9916 50.8059 52 50.5991 52 46.188C52 41.9037 51.987 41.5625 51.812 41.2361C51.7085 41.0432 51.5063 40.7977 51.3625 40.6903C51.0282 40.4407 50.2199 40.3738 49.8058 40.5614Z" fill="url(#paint0_linear_1_12138)"/>
<defs>
<linearGradient id="paint0_linear_1_12138" x1="-21.4031" y1="-39.217" x2="56.7014" y2="-45.0461" gradientUnits="userSpaceOnUse">
<stop offset="0.00520833" stop-color="#FCB42F"/>
<stop offset="1" stop-color="#CB34E3"/>
</linearGradient>
</defs>
</svg>
