<svg width="50" height="50" viewBox="0 0 50 50" fill="none" xmlns="http://www.w3.org/2000/svg">
<path fill-rule="evenodd" clip-rule="evenodd" d="M0 2.46683V4.93354L2.52271 4.96515L5.04543 4.99687L9.54385 14.5076L14.0424 24.0182L13.7702 24.4952C12.2463 27.1666 10.4055 30.6563 10.2585 31.1527C9.89532 32.3791 10.0897 33.9854 10.7352 35.0921C11.0993 35.7166 12.12 36.6835 12.7617 37.0118C13.9228 37.6059 13.7316 37.5993 29.904 37.6016L44.9878 37.6036V35.0773V32.551H30.4201C16.1009 32.551 15.8488 32.5471 15.6445 32.3207C15.5121 32.1739 15.4614 31.9921 15.5047 31.819C15.5421 31.6696 16.0681 30.6497 16.6736 29.5524L17.7746 27.5572L27.7201 27.4984C37.1962 27.4425 37.6904 27.429 38.1928 27.214C38.9509 26.8893 39.6238 26.4058 40.1425 25.813C40.3953 25.5241 42.6524 21.5523 45.2644 16.8C49.5227 9.05268 49.9394 8.24591 49.9912 7.649C50.0704 6.73766 49.6129 5.85569 48.7993 5.35114L48.228 4.99687L29.3723 4.93812L10.5166 4.87937L9.38382 2.47059L8.25104 0.061806L4.12552 0.030903L0 0V2.46683ZM13.8244 40.2309C11.0535 40.9875 9.46653 43.8388 10.3068 46.5507C10.7426 47.9571 11.6863 49.0232 13.0711 49.6737C13.6988 49.9685 13.8902 50 15.057 50C16.285 50 16.3872 49.9807 17.146 49.6061C20.2443 48.0763 20.9704 44.1528 18.6171 41.657C17.3763 40.3412 15.4833 39.7779 13.8244 40.2309ZM38.6377 40.2903C37.692 40.6045 37.0406 41.0166 36.394 41.71C34.1145 44.1542 34.894 48.1223 37.9483 49.6213C38.6759 49.9784 38.7939 50 40.0148 50C41.2758 50 41.3328 49.9885 42.2022 49.5575C43.2733 49.0266 44.0382 48.2368 44.562 47.1212C45.0511 46.0796 45.1349 44.5932 44.7644 43.5374C44.2592 42.0983 43.1448 40.9185 41.8028 40.4023C40.9051 40.057 39.4907 40.007 38.6377 40.2903Z" fill="url(#paint0_linear_1_1227)"/>
<defs>
<linearGradient id="paint0_linear_1_1227" x1="-20.5799" y1="-37.7086" x2="54.5206" y2="-43.3136" gradientUnits="userSpaceOnUse">
<stop offset="0.00520833" stop-color="#FCB42F"/>
<stop offset="1" stop-color="#CB34E3"/>
</linearGradient>
</defs>
</svg>
