<svg width="44" height="31" viewBox="0 0 44 31" fill="none" xmlns="http://www.w3.org/2000/svg">
<path fill-rule="evenodd" clip-rule="evenodd" d="M13.2692 0H11.6138C9.57943 0.000211364 7.60797 0.705267 6.03485 1.99521C4.46174 3.28515 3.38414 5.08029 2.9854 7.0752L0 22V24.8556C0.000162013 25.8832 0.305013 26.8877 0.876012 27.7421C1.44701 28.5965 2.25852 29.2624 3.20793 29.6557C4.15735 30.0489 5.20205 30.1518 6.20994 29.9514C7.21784 29.7509 8.14367 29.2562 8.8704 28.5296L15.4 22H28.6L35.1296 28.5274C35.8563 29.254 36.7822 29.7487 37.7901 29.9492C38.798 30.1496 39.8426 30.0467 40.7921 29.6535C41.7415 29.2602 42.553 28.5943 43.124 27.7399C43.695 26.8855 43.9998 25.881 44 24.8534V22L41.0146 7.0752C40.6159 5.08029 39.5383 3.28515 37.9651 1.99521C36.392 0.705267 34.4206 0.000211364 32.3862 0H30.7299C30.7299 0.160396 30.6989 0.323464 30.6334 0.480769L28.4334 5.76077C28.2393 6.22658 27.7842 6.53 27.2795 6.53H16.7195C16.2149 6.53 15.7598 6.22658 15.5657 5.76077L13.3657 0.480769C13.3001 0.323464 13.2691 0.160396 13.2692 0ZM28.1254 0H15.8737L17.5529 4.03H26.4462L28.1254 0Z" fill="white"/>
</svg>
