<svg width="54" height="54" viewBox="0 0 54 54" fill="none" xmlns="http://www.w3.org/2000/svg">
<circle cx="27" cy="27" r="27" fill="url(#paint0_linear_1_12080)"/>
<path fill-rule="evenodd" clip-rule="evenodd" d="M25.0358 14.094C24.9425 14.1458 24.8212 14.2503 24.7663 14.3263C24.6723 14.4564 24.6657 14.5487 24.652 15.9085L24.6376 17.3527H27.0002H29.3627L29.3483 15.9085C29.3347 14.5487 29.328 14.4564 29.234 14.3263C29.1791 14.2503 29.0578 14.1458 28.9645 14.094C28.8084 14.0074 28.6531 14 27.0002 14C25.3472 14 25.192 14.0074 25.0358 14.094ZM22.3328 14.8718C21.8573 14.9412 21.1062 15.2245 20.6551 15.5046C20.0336 15.8906 19.2807 16.6721 19.0112 17.2109L18.9403 17.3527H21.0541H23.168V16.0827V14.8128L22.9101 14.819C22.7682 14.8225 22.5084 14.8462 22.3328 14.8718ZM30.8323 16.0827V17.3527H32.9466H35.061L35.0036 17.2384C34.7204 16.6743 33.9752 15.8951 33.3458 15.5046C32.6986 15.1032 31.7244 14.8128 31.0253 14.8128H30.8323V16.0827ZM18.6741 18.9326C17.5014 19.1115 16.5779 19.9122 16.1512 21.1201L16.0196 21.4927L16.0047 24.4103C15.988 27.6718 15.9999 27.8283 16.3152 28.5029C16.7071 29.3415 17.4884 29.996 18.3759 30.2292C18.8023 30.3413 23.8261 30.3419 24.2853 30.23C24.8704 30.0873 25.396 29.7903 25.9494 29.2895C26.6011 28.6999 27.4012 28.6887 28.0173 29.2605C28.5805 29.7834 29.2185 30.134 29.8252 30.254C30.0315 30.2948 30.9386 30.3076 32.8467 30.2966L35.5734 30.2808L35.9046 30.1476C36.8639 29.7617 37.5335 29.0556 37.8458 28.1005L37.9799 27.6901L37.9949 24.7963C38.0079 22.295 37.9992 21.8478 37.9309 21.4989C37.6917 20.2789 36.8564 19.3521 35.6717 18.9925C35.3958 18.9088 34.8487 18.9026 27.1721 18.8955C22.6525 18.8913 18.8357 18.908 18.6741 18.9326ZM26.4785 30.4596C26.3402 30.5161 26.1022 30.6753 25.9496 30.8133C25.5686 31.158 25.2816 31.3559 24.9087 31.5306C24.2815 31.8247 24.2333 31.8286 21.187 31.8294L18.3953 31.8302L18.4279 32.1222C18.4814 32.6012 18.6301 33.2959 18.7949 33.8367C19.0024 34.5173 19.5533 35.6566 19.9616 36.2496C20.3945 36.8782 21.3964 37.9135 21.9889 38.3445C23.3835 39.3587 24.9562 39.9137 26.6563 39.9914C29.5506 40.1238 32.3273 38.7141 34.0387 36.2433C34.4464 35.6546 35.0001 34.5128 35.2052 33.8376C35.3675 33.3033 35.5154 32.6107 35.5715 32.1222L35.605 31.8302L32.8134 31.8294C29.6933 31.8286 29.6928 31.8285 28.9899 31.4769C28.767 31.3654 28.448 31.1461 28.253 30.9702C27.6151 30.3953 27.041 30.23 26.4785 30.4596ZM25.3543 33.7652C26.3653 34.034 27.7306 34.0299 28.6789 33.755C29.2301 33.5952 29.5461 33.5808 29.7396 33.7064C30.2033 34.0074 30.2092 34.6381 29.7515 34.988C29.5926 35.1095 28.6333 35.3587 28.0182 35.4383C26.6771 35.6119 24.5173 35.3075 24.1424 34.892C23.9624 34.6925 23.9049 34.5577 23.9052 34.3353C23.9055 33.9613 24.2393 33.6085 24.5928 33.6084C24.6874 33.6084 25.0301 33.6789 25.3543 33.7652Z" fill="white"/>
<defs>
<linearGradient id="paint0_linear_1_12080" x1="-22.2263" y1="-40.7253" x2="58.8823" y2="-46.7787" gradientUnits="userSpaceOnUse">
<stop offset="0.00520833" stop-color="#FCB42F"/>
<stop offset="1" stop-color="#CB34E3"/>
</linearGradient>
</defs>
</svg>
