<svg width="49" height="35" viewBox="0 0 49 35" fill="none" xmlns="http://www.w3.org/2000/svg">
<path opacity="0.6" fill-rule="evenodd" clip-rule="evenodd" d="M38.2493 30.6181C42.1821 27.4673 44.7005 22.6243 44.7005 17.193C44.7005 11.7616 42.1819 6.91837 38.2489 3.76758C44.4004 5.13808 48.9991 10.6285 48.9991 17.1929C48.9991 23.7572 44.4006 29.2475 38.2493 30.6181Z" fill="white"/>
<path opacity="0.8" fill-rule="evenodd" clip-rule="evenodd" d="M27.3034 32.6528C33.0236 29.8606 36.9641 23.9871 36.9641 17.1932C36.9641 10.3984 33.0224 4.52416 27.3009 1.73242C35.5447 2.07382 42.1232 8.86498 42.1232 17.1926C42.1232 25.5195 35.546 32.3101 27.3034 32.6528Z" fill="white"/>
<path d="M16.3116 21.884C17.9034 21.8783 21.3836 21.8654 21.3435 19.6518C21.3048 17.388 17.9622 17.5241 16.3331 17.5914C16.1511 17.5986 15.9892 17.6058 15.8574 17.6072L15.9319 21.8869C16.0394 21.884 16.1683 21.884 16.3116 21.884Z" fill="white"/>
<path d="M16.1427 15.6474C17.4709 15.646 20.3694 15.6431 20.335 13.6301C20.2977 11.5712 17.5139 11.693 16.1542 11.7531C16.0009 11.7603 15.8676 11.766 15.7559 11.7675L15.8232 15.6488L16.1427 15.6474Z" fill="white"/>
<path fill-rule="evenodd" clip-rule="evenodd" d="M13.0313 33.8713C22.244 36.1681 31.5742 30.5617 33.8709 21.3518C36.1676 12.1406 30.5598 2.81038 21.3471 0.515087C12.1401 -1.78307 2.80993 3.82478 0.514634 13.0375C-1.78209 22.2473 3.82433 31.5775 13.0327 33.8728L13.0313 33.8713ZM19.1664 9.48564C21.6795 9.66331 23.6796 10.3997 23.9418 12.6979C24.1367 14.38 23.4489 15.4044 22.3328 15.9976C24.1954 16.4102 25.3774 17.4919 25.1912 19.9678C24.9605 23.0411 22.6867 23.905 19.4229 24.1486L19.4773 27.3723L17.5345 27.4081L17.4786 24.2274C16.9757 24.236 16.4599 24.2417 15.9255 24.2388L15.9828 27.4339L14.04 27.4683L13.9826 24.2388L13.4339 24.2431C13.1559 24.2446 12.8751 24.246 12.5943 24.2517L10.064 24.2947L10.4093 21.9679C10.4093 21.9679 11.8478 21.965 11.822 21.9436C12.3722 21.9321 12.5112 21.5352 12.5413 21.2859L12.4539 16.1896L12.5929 16.1867H12.6588C12.5903 16.1789 12.5214 16.1755 12.4525 16.1767L12.3894 12.5374C12.3077 12.1449 12.0441 11.6921 11.2575 11.7064C11.279 11.6778 9.84482 11.7308 9.84482 11.7308L9.80756 9.65614L12.4897 9.6103V9.62033C12.8923 9.61316 13.3064 9.59883 13.7262 9.58307L13.6717 6.38943L15.6146 6.35648L15.669 9.48564C16.1877 9.46702 16.7092 9.44696 17.2207 9.43836L17.1663 6.32926L19.1105 6.29487L19.1664 9.48851V9.48564Z" fill="white"/>
</svg>
