<svg width="52" height="52" viewBox="0 0 52 52" fill="none" xmlns="http://www.w3.org/2000/svg">
<path fill-rule="evenodd" clip-rule="evenodd" d="M32.3765 3.69909C19.959 5.09406 16.8915 5.46516 16.6214 5.60487C16.4369 5.70032 16.1594 5.95793 16.0047 6.1774L15.7234 6.5764L15.6988 22.117C15.6853 30.6644 15.6525 37.6576 15.6258 37.6576C15.5992 37.6576 15.3359 37.5361 15.0407 37.3875C12.4098 36.063 8.99746 35.9984 6.3522 37.2227C3.51489 38.5361 1.83341 40.9807 2.01309 43.5315C2.2211 46.4843 4.60677 48.8861 8.23596 49.7968C8.93078 49.9711 9.31547 50.004 10.6124 49.9996C11.9724 49.9951 12.2707 49.9649 13.0766 49.7496C16.0341 48.96 18.0916 47.1848 18.9251 44.7039C19.0904 44.212 19.0999 43.5385 19.1247 30.7301L19.1507 17.2731L19.3595 17.2289C19.4744 17.2046 25.5187 16.5261 32.7914 15.721C40.064 14.916 46.1304 14.2344 46.2722 14.2063L46.5301 14.1552V24.2094V34.2635L45.649 33.8453C40.926 31.604 34.9679 33.4801 33.246 37.7506C31.7098 41.5609 34.8918 45.7651 39.8633 46.4933C40.97 46.6555 42.9792 46.5613 43.9981 46.2996C46.9254 45.5476 49.1936 43.511 49.8151 41.0766C49.9961 40.3676 50 39.957 50 21.8417V3.33128L49.8011 2.91968C49.5269 2.35223 49.0362 2.04313 48.3417 2.00039C48.0268 1.98094 41.2787 2.699 32.3765 3.69909Z" fill="url(#paint0_linear_1_12123)"/>
<defs>
<linearGradient id="paint0_linear_1_12123" x1="-17.7567" y1="-34.2003" x2="54.3398" y2="-39.581" gradientUnits="userSpaceOnUse">
<stop offset="0.00520833" stop-color="#FCB42F"/>
<stop offset="1" stop-color="#CB34E3"/>
</linearGradient>
</defs>
</svg>
