<svg width="130" height="25" viewBox="0 0 130 25" fill="none" xmlns="http://www.w3.org/2000/svg">
<path fill-rule="evenodd" clip-rule="evenodd" d="M0 10.163V20.326L6.08229 20.2715L12.1646 20.2167L13.1117 19.7525C14.7671 18.9413 15.7956 17.5097 16.1671 15.4994C16.604 13.1355 15.7194 10.9049 13.9187 9.83022L13.0569 9.31591L13.5464 9.04995C14.2111 8.68871 14.7331 8.07609 15.0487 7.28657C15.3656 6.49422 15.3937 4.54382 15.103 3.52622C14.7945 2.44658 13.4293 1.07076 12.1646 0.564622C11.1923 0.175645 10.8787 0.152534 5.57189 0.0780449L0 0V10.163ZM17.1835 10.2612V20.4834H19.6505H22.1174V10.2612V0.0389336H19.6505H17.1835V10.2612ZM76.5603 10.1723V20.3056H78.8571H81.1539V19.4162V18.5267L81.7803 19.2514C82.7865 20.4151 83.5431 20.739 85.2371 20.7312C86.4573 20.7257 86.8195 20.6514 87.5557 20.2563C89.7415 19.0835 90.8432 16.709 90.849 13.1587C90.8522 11.2228 90.6196 10.0356 89.959 8.61422C88.9977 6.54613 87.4437 5.51182 85.3111 5.52053C83.883 5.5264 82.9399 5.88213 81.9533 6.7872L81.324 7.36462V3.70186V0.0389336H78.9421H76.5603V10.1723ZM9.76024 4.99467C10.3394 5.5632 10.4678 6.27662 10.1265 7.02826C9.74034 7.87875 9.26651 8.03893 7.13763 8.03893H5.27415V6.24249V4.44587L7.30215 4.50915C9.15899 4.56693 9.36638 4.60782 9.76024 4.99467ZM120.46 5.56178C118.848 5.90275 117.376 7.46329 116.615 9.63893C116.234 10.7273 116.1 13.606 116.373 14.818C117.026 17.7152 118.842 19.4233 121.419 19.565C122.891 19.6457 123.583 19.4297 124.513 18.5977L125.219 17.9667V18.8752C125.219 20.7115 124.542 21.55 123.06 21.55C122.311 21.55 122.074 21.4642 121.587 21.0167L121.005 20.4834H118.774C116.643 20.4834 116.542 20.4997 116.542 20.8448C116.542 21.4814 117.356 22.9123 118.095 23.5731C119.362 24.7059 120.37 24.9989 123.007 25C124.963 25.0009 125.439 24.9443 126.215 24.6187C127.435 24.1068 128.087 23.6178 128.746 22.7182C129.883 21.1671 129.884 21.1564 129.945 13.15L130 5.9056H127.694H125.389V6.63733V7.36924L124.689 6.70897C124.305 6.34595 123.75 5.94542 123.456 5.8192C122.692 5.49049 121.344 5.37475 120.46 5.56178ZM28.6836 5.73795C27.4208 5.95893 25.8069 6.86809 25.0209 7.80124C22.5572 10.7259 22.5572 15.6631 25.0209 18.5877C27.4919 21.5212 33.2372 21.5093 35.7429 18.5657C38.1866 15.6953 38.1745 10.7186 35.7169 7.80124C34.2408 6.04889 31.5003 5.24498 28.6836 5.73795ZM43.687 5.72178C40.3292 6.36071 38.11 9.33422 38.11 13.1945C38.11 18.2092 41.7701 21.469 46.5321 20.6953C50.437 20.061 52.5792 17.1074 52.3591 12.6613C52.1922 9.29369 50.6824 6.99164 47.9893 5.99875C47.0815 5.664 44.7718 5.51538 43.687 5.72178ZM60.5677 5.78151C60.2391 5.88924 59.5338 6.43253 58.9939 6.9936L58.0157 8.01049V6.95804V5.9056H55.7189H53.422V13.1056V20.3056H55.9741H58.5261V15.8435C58.5261 11.0338 58.6144 10.4683 59.4385 10.0076C60.0921 9.64195 61.0788 9.83449 61.4866 10.4071C61.8248 10.8821 61.8464 11.1564 61.8942 15.6071L61.9446 20.3056H64.3057H66.6666L66.7221 15.8167C66.7701 11.9385 66.8182 11.25 67.077 10.7554C67.4379 10.0658 67.8419 9.81671 68.6 9.81671C69.3695 9.81671 69.8764 10.2274 70.0877 11.0219C70.1862 11.3929 70.2638 13.5765 70.2643 15.9945L70.2653 20.3056H72.6472H75.0291V15.1173C75.0291 10.941 74.977 9.736 74.7619 8.93955C74.3783 7.51875 73.7338 6.6288 72.6669 6.0464C71.9015 5.62844 71.5508 5.55004 70.4494 5.55004C68.8717 5.55004 67.7485 6.05049 66.7599 7.19378L66.1248 7.92835L65.8578 7.49475C65.4332 6.8048 64.6437 6.08498 64.0066 5.80675C63.3245 5.50915 61.4411 5.49529 60.5677 5.78151ZM96.5711 5.74773C95.5215 6.00515 93.941 6.9728 93.2844 7.75982C90.7925 10.7467 90.8479 15.891 93.4018 18.6626C95.8444 21.3134 100.925 21.5141 103.494 19.0613C104.288 18.3027 105.313 16.6064 105.313 16.0501C105.313 15.9259 104.508 15.8611 102.958 15.8611H100.604L100.406 16.3148C100.005 17.235 98.377 17.5067 97.3613 16.8231C96.9241 16.5291 96.2958 15.3369 96.2958 14.8016C96.2958 14.4455 96.3793 14.4389 100.889 14.4389H105.483L105.48 13.4167C105.473 10.5525 104.101 7.70364 102.153 6.51111C100.721 5.63395 98.3546 5.31022 96.5711 5.74773ZM113.936 5.80426C113.08 6.04462 112.016 6.95129 111.418 7.95004L111.099 8.48337L111.098 7.19449L111.097 5.9056H108.801H106.504V13.1056V20.3056H108.869H111.233L111.293 16.6167C111.351 13.0206 111.364 12.9029 111.817 11.9406C112.449 10.595 113.248 10.12 114.863 10.1307L116.031 10.1383V7.952C116.031 6.12249 115.987 5.74827 115.762 5.65795C115.374 5.50204 114.867 5.54275 113.936 5.80426ZM99.6702 9.40355C100.047 9.65351 100.708 10.8967 100.716 11.3723C100.718 11.5388 100.165 11.5945 98.5075 11.5945C96.0078 11.5945 96.0157 11.6002 96.6378 10.2574C97.2205 8.99946 98.5116 8.63591 99.6702 9.40355ZM31.4465 9.55253C32.157 10.1772 32.4956 11.3525 32.4956 13.1945C32.4956 15.0364 32.157 16.2117 31.4465 16.8364C30.7616 17.4387 29.8097 17.4418 29.1298 16.8441C27.7376 15.6199 27.7376 10.7691 29.1298 9.54489C29.8097 8.9472 30.7616 8.95022 31.4465 9.55253ZM46.4083 9.54364C47.171 10.2142 47.5233 11.6107 47.4335 13.6075C47.3224 16.0805 46.6015 17.2834 45.2308 17.2834C43.841 17.2834 43.0439 15.7932 43.0439 13.1945C43.0439 10.5758 43.8391 9.1056 45.2556 9.1056C45.7029 9.1056 46.0677 9.24426 46.4083 9.54364ZM84.8978 9.7904C85.8877 10.8247 86.2029 13.6368 85.5187 15.3278C84.6673 17.4313 82.3475 17.3522 81.5499 15.1922C81.154 14.1203 81.1534 11.7936 81.5486 10.8603C82.2143 9.28853 83.9017 8.74951 84.8978 9.7904ZM124.555 9.92195C125.107 10.4436 125.436 11.6553 125.357 12.8757C125.229 14.8576 124.475 15.8611 123.113 15.8611C121.345 15.8611 120.373 12.7868 121.446 10.5892C122.062 9.32693 123.581 9.00089 124.555 9.92195ZM9.92902 12.0171C10.2803 12.1705 10.5959 12.4956 10.7742 12.8884C11.1213 13.6526 11.1276 13.9223 10.8169 14.6996C10.4299 15.6672 9.86113 15.8611 7.40933 15.8611H5.27415V13.8167V11.7723H7.3212C8.67462 11.7723 9.55829 11.8553 9.92902 12.0171Z" fill="black"/>
</svg>
