<svg width="24" height="17" viewBox="0 0 24 17" fill="none" xmlns="http://www.w3.org/2000/svg">
<path fill-rule="evenodd" clip-rule="evenodd" d="M23.76 3.68561C23.76 3.68561 23.52 2.00304 22.8 1.28194C21.92 0.32047 20.88 0.32048 20.4 0.240357C17.04 -9.79011e-06 12 0 12 0C12 0 6.96 -9.79011e-06 3.6 0.240357C3.12 0.32048 2.08 0.32047 1.2 1.28194C0.48 2.00304 0.240002 3.68561 0.240002 3.68561C0.240002 3.68561 0 5.60857 0 7.61162V9.37433C0 11.2973 0.240002 13.3003 0.240002 13.3003C0.240002 13.3003 0.48 14.9829 1.2 15.704C2.08 16.6654 3.28 16.6655 3.84 16.7456C5.76 16.9058 12 16.986 12 16.986C12 16.986 17.04 16.986 20.4 16.7456C20.88 16.6655 21.92 16.6654 22.8 15.704C23.52 14.9829 23.76 13.3003 23.76 13.3003C23.76 13.3003 24 11.3774 24 9.37433V7.61162C24 5.60857 23.76 3.68561 23.76 3.68561ZM9.52 11.5376V4.80734L16 8.17249L9.52 11.5376Z"/>
</svg>
