<svg width="50" height="52" viewBox="0 0 50 52" fill="none" xmlns="http://www.w3.org/2000/svg">
<path fill-rule="evenodd" clip-rule="evenodd" d="M30.7611 15.3809C30.9603 15.3809 31.1587 15.384 31.3563 15.3904C30.0245 9.41249 24.6891 4.94366 18.3099 4.94366C10.9279 4.94366 4.94366 10.9279 4.94366 18.3099C4.94366 23.7021 8.13664 28.3485 12.735 30.4616C14.2603 21.8894 21.7506 15.3809 30.7611 15.3809ZM18.3099 0C27.7436 0 35.511 7.13432 36.511 16.3019C43.8065 18.7129 49.071 25.5871 49.071 33.6908C49.071 43.8031 40.8734 52.0007 30.7611 52.0007C21.3274 52.0007 13.56 44.8664 12.56 35.6988C5.26449 33.2877 0 26.4136 0 18.3099C0 8.19763 8.19763 0 18.3099 0ZM18.3099 36.6198C27.3204 36.6198 34.8107 30.1113 36.336 21.5391C40.9343 23.6522 44.1273 28.2986 44.1273 33.6908C44.1273 41.0727 38.1431 47.057 30.7611 47.057C24.3819 47.057 19.0465 42.5882 17.7146 36.6103C17.9123 36.6166 18.1107 36.6198 18.3099 36.6198Z" fill="url(#paint0_linear_1_1233)"/>
<defs>
<linearGradient id="paint0_linear_1_1233" x1="-20.1975" y1="-39.2175" x2="53.5523" y2="-44.4115" gradientUnits="userSpaceOnUse">
<stop offset="0.00520833" stop-color="#FCB42F"/>
<stop offset="1" stop-color="#CB34E3"/>
</linearGradient>
</defs>
</svg>
