<svg width="59" height="58" viewBox="0 0 59 58" fill="none" xmlns="http://www.w3.org/2000/svg">
<g clip-path="url(#clip0_1_525)">
<path d="M55.2923 25.3545L33.2091 3.64553C31.161 1.63216 27.8404 1.63216 25.7924 3.64553L3.70913 25.3545C1.66105 27.3678 1.66105 30.6321 3.70913 32.6455L25.7924 54.3544C27.8404 56.3678 31.161 56.3678 33.2091 54.3544L55.2923 32.6455C57.3404 30.6321 57.3404 27.3678 55.2923 25.3545Z" fill="#FF46AA"/>
<path fill-rule="evenodd" clip-rule="evenodd" d="M37.6693 15.8809C36.4544 19.1595 33.2555 21.5007 29.5003 21.5007C25.745 21.5007 22.546 19.1595 21.3312 15.8809C16.8468 18.5852 13.8555 23.4491 13.8555 28.9999C13.8555 37.4938 20.8599 44.3795 29.5003 44.3795C38.1407 44.3795 45.145 37.4938 45.145 28.9999C45.145 23.4491 42.1537 18.5852 37.6693 15.8809Z" fill="white"/>
<path opacity="0.9" fill-rule="evenodd" clip-rule="evenodd" d="M29.5005 37.5448C33.3406 37.5448 36.4537 34.4844 36.4537 30.7094C36.4537 30.5586 36.4487 30.4088 36.439 30.2605C35.9309 30.5461 35.3425 30.7094 34.7154 30.7094C32.7953 30.7094 31.2387 29.1792 31.2387 27.2916C31.2387 26.19 31.7689 25.2102 32.5922 24.5851C31.6609 24.13 30.6111 23.874 29.5005 23.874C25.6603 23.874 22.5472 26.9342 22.5472 30.7094C22.5472 34.4844 25.6603 37.5448 29.5005 37.5448Z" fill="#413245"/>
<path d="M47.9377 13.2917L54.0835 7.25L50.396 3.62499L44.2502 9.66667L47.9377 13.2917Z" fill="white"/>
<path d="M45.4794 47.1253L51.6252 53.167L55.3127 49.542L49.1669 43.5003L45.4794 47.1253Z" fill="white"/>
<path d="M7.37565 53.1676L13.5215 47.126L9.83398 43.501L3.68815 49.5426L7.37565 53.1676Z" fill="white"/>
<path d="M4.91691 7.24935L11.0627 13.291L14.7502 9.66601L8.60441 3.62434L4.91691 7.24935Z" fill="white"/>
</g>
<defs>
<clipPath id="clip0_1_525">
<rect width="59" height="58" fill="white"/>
</clipPath>
</defs>
</svg>
