<svg width="15" height="24" viewBox="0 0 15 24" fill="none" xmlns="http://www.w3.org/2000/svg">
<path fill-rule="evenodd" clip-rule="evenodd" d="M12.6 1.2H2.4C1.73726 1.2 1.2 1.73726 1.2 2.4V21.6C1.2 22.2627 1.73726 22.8 2.4 22.8H12.6C13.2627 22.8 13.8 22.2627 13.8 21.6V2.4C13.8 1.73726 13.2627 1.2 12.6 1.2ZM2.4 0C1.07452 0 0 1.07452 0 2.4V21.6C0 22.9255 1.07452 24 2.4 24H12.6C13.9255 24 15 22.9255 15 21.6V2.4C15 1.07452 13.9255 0 12.6 0H2.4Z"/>
<path fill-rule="evenodd" clip-rule="evenodd" d="M3.6 1.2H11.4V1.80158C11.4 2.46433 10.8627 3.00158 10.2 3.00158H4.8C4.13726 3.00158 3.6 2.46433 3.6 1.80158V1.2ZM10.2 1.2H4.8V1.80158H10.2V1.2Z"/>
</svg>
