<svg width="118" height="48" viewBox="0 0 118 48" fill="none" xmlns="http://www.w3.org/2000/svg">
<path fill-rule="evenodd" clip-rule="evenodd" d="M42.3 12.8168V25.6337H45.5H48.7V20.7041C48.7 17.4506 48.7 15.676 48.7 15.4788C48.8 14.9858 48.9 14.4929 49.2 14.0985C49.6 13.4084 50.3 13.1126 51.1 13.2112C52.2 13.3098 52.9 13.9013 53.1 15.183C53.1 15.3802 53.1 17.352 53.1 20.5069V25.5351H56.3H59.5V19.6196C59.5 14.5915 59.5 13.6056 59.4 13.1126C59.2 11.338 58.6 9.9577 57.5 8.97179C56.6 8.08447 55.5 7.59151 54.2 7.39433C53.7 7.29574 52.3 7.39433 51.9 7.49292C50.7 7.78869 49.8 8.18306 49 9.07038L48.5 9.46474V4.73237V0H45.3H42.1V12.8168H42.3ZM110.3 0.197183C110.1 0.591547 103.6 16.0703 103.6 16.0703C103.6 16.0703 105.3 16.0703 107.4 16.0703H111.2L114.6 8.08447C116.5 3.64787 118 0 118 0C118 0 116.3 0 114.2 0H110.4L110.3 0.197183ZM28.3 7.49292C26.9 7.6901 25.8 8.08447 24.7 8.77461C22.5 10.1549 21.1 12.5211 20.7 15.2816C20.5 16.5633 20.6 18.1408 20.9 19.3238C21.7 22.3802 23.8 24.7464 26.5 25.6337C27.5 25.9295 27.9 26.028 29.1 26.028C30 26.028 30.3 26.028 30.6 25.9294C31.9 25.6337 32.8 25.1407 33.6 24.352L34 23.9576V24.7464V25.5351H37.1H40.2V16.6619V7.7887H37.1H34V8.57742V9.36615L33.7 9.07038C33 8.28165 32 7.78869 30.7 7.49292C30.3 7.39433 30.1 7.39433 29.3 7.39433C28.8 7.49292 28.4 7.49292 28.3 7.49292ZM69.1 7.49292C67.4 7.6901 65.6 8.47883 64.3 9.46474C61.8 11.5352 60.5 14.7887 61 18.1408C61.5 21.8872 64.2 24.7464 68 25.7323C68.8 25.9294 69.6 26.028 70.6 26.028C72.4 26.028 73.7 25.7323 75.1 25.0421C77.9 23.6619 79.7 21.1971 80.1 18.1408C80.2 17.352 80.2 16.0703 80.1 15.3802C79.9 13.9013 79.3 12.4225 78.4 11.2394C78 10.7464 77.2 9.85911 76.7 9.46474C75.3 8.38024 73.7 7.6901 71.9 7.49292C71.2 7.39433 69.8 7.39433 69.1 7.49292ZM89.5 7.49292C87.8 7.6901 86.1 8.38024 84.8 9.46474C84.3 9.85911 83.4 10.7464 83.1 11.2394C82.2 12.4225 81.7 13.9013 81.4 15.3802C81.3 16.0703 81.3 17.4506 81.4 18.1408C82 22.0844 84.9 25.1407 88.9 25.9294C89.7 26.1266 90.1 26.1266 91 26.1266C92.7 26.1266 94.2 25.8309 95.6 25.0421C99.3 23.1689 101.3 19.0281 100.4 14.7887C99.6 10.845 96.4 7.98587 92.3 7.49292C91.6 7.39433 90.2 7.39433 89.5 7.49292ZM0 7.88729C0 7.88729 1.7 11.9295 3.8 16.8591C5.9 21.7886 7.6 25.8309 7.6 25.8309C7.6 25.8309 7 27.3097 6.2 29.0844C5.4 30.859 4.8 32.2393 4.8 32.3379C4.8 32.4365 6.3 32.3379 8.2 32.3379H11.6L16.7 20.2112C19.5 13.507 21.8 8.08447 21.8 7.98587C21.8 7.98587 21.1 7.88728 18.4 7.98587H15L12.9 13.1126C12 15.8732 11.1 18.2393 11.1 18.2393C11.1 18.2393 10.2 15.8732 9 13.1126L7 7.98587H3.5C1.6 7.88728 0 7.88729 0 7.88729ZM31.4 13.2112C32.7 13.507 33.7 14.4929 34.1 15.7746C34.2 16.2675 34.2 17.1548 34.1 17.6478C33.8 18.9295 32.8 19.9154 31.5 20.2112C31 20.3098 30.1 20.3098 29.6 20.2112C28.5 19.9154 27.5 19.1267 27.1 18.1408C26.6 17.0563 26.8 15.676 27.4 14.6901C28.3 13.4084 29.8 12.9154 31.4 13.2112ZM71.3 13.3098C72.7 13.507 73.8 14.5915 74.1 15.9718C74.2 16.4647 74.2 17.2534 74.1 17.7464C73.8 19.0281 72.8 19.9154 71.6 20.3098C71.2 20.4083 70.1 20.4083 69.7 20.3098C68.7 20.014 67.9 19.3238 67.4 18.4365C67.1 17.845 67.1 17.5492 67.1 16.8591C67.1 16.2675 67.2 15.9718 67.4 15.4788C67.7 14.8873 68.1 14.2957 68.7 13.9013C69.3 13.3098 70.3 13.1126 71.3 13.3098ZM91.6 13.3098C92.8 13.507 93.8 14.2957 94.2 15.3802C94.4 15.8732 94.5 16.1689 94.5 16.7605C94.5 17.4506 94.4 17.7464 94.2 18.3379C93.8 19.2253 92.9 19.9154 91.9 20.2112C91.5 20.3098 90.4 20.3098 90 20.2112C88.8 19.9154 87.8 18.9295 87.5 17.6478C87.4 17.1548 87.4 16.2675 87.5 15.7746C87.9 14.1971 89.3 13.1126 90.9 13.1126C91.1 13.2112 91.4 13.2112 91.6 13.3098ZM105.2 17.6478C103.3 17.845 101.9 19.2253 101.5 20.9999C101.4 21.4929 101.4 22.3802 101.5 22.8731C101.9 24.4506 103.1 25.5351 104.7 25.9294C104.9 25.9294 105.3 26.028 105.6 26.028C106.8 26.028 107.8 25.6337 108.6 24.8449C109.5 23.9576 109.8 23.0703 109.8 21.8872C109.8 20.4084 109.1 19.1267 107.9 18.4365C107.1 17.7464 106 17.5492 105.2 17.6478Z" fill="#B376FF"/>
<path fill-rule="evenodd" clip-rule="evenodd" d="M52.5984 32.4804C51.2984 32.8748 50.6984 34.3537 51.3984 35.4382C51.5984 35.7339 51.9984 36.1283 52.2984 36.2269C52.5984 36.3255 52.5984 36.3255 53.1984 36.3255C53.6984 36.3255 53.7984 36.3255 54.0984 36.2269C54.4984 36.0297 54.8984 35.6353 55.0984 35.241C55.5984 34.2551 55.0984 33.072 54.0984 32.579C53.7984 32.3818 53.6984 32.3818 53.2984 32.3818C52.8984 32.3818 52.7984 32.3818 52.5984 32.4804ZM47.1984 32.579C45.4984 32.8748 44.3984 33.9593 43.8984 35.7339C43.7984 36.0297 43.7984 36.3255 43.7984 36.7198V37.41H43.0984H42.3984V38.8888V40.3677H43.0984H43.7984V43.917V47.4663H45.6984H47.5984V43.917V40.3677H48.8984H50.1984V38.8888V37.41H48.8984H47.5984V37.1142C47.6984 36.4241 47.9984 35.9311 48.5984 35.8325C48.9984 35.7339 49.5984 35.7339 49.9984 35.9311C50.1984 36.0297 50.2984 36.0297 50.2984 36.0297C50.2984 36.0297 50.2984 35.3396 50.2984 34.4523V32.8748L49.9984 32.7762C49.5984 32.579 49.0984 32.579 48.3984 32.579C47.8984 32.4804 47.4984 32.579 47.1984 32.579ZM62.3984 37.2128C61.5984 37.41 60.9984 37.8043 60.5984 38.2973L60.3984 38.5931V38.0015V37.41H58.4984H56.5984V42.4381V47.4663H58.4984H60.3984V44.7057C60.3984 43.1283 60.3984 41.8466 60.3984 41.6494C60.4984 41.255 60.6984 40.8607 60.8984 40.6635C61.3984 40.2691 62.2984 40.3677 62.6984 40.8607C62.9984 41.255 62.9984 41.255 62.9984 44.41V47.3677H64.8984H66.7984V44.0156C66.7984 40.4663 66.7984 40.0719 66.5984 39.3818C66.3984 38.7903 66.1984 38.2973 65.6984 37.9029C65.2984 37.5086 64.8984 37.2128 64.2984 37.1142C63.7984 37.1142 62.7984 37.1142 62.3984 37.2128ZM71.8984 37.1142C71.2984 37.2128 70.3984 37.5086 69.8984 37.9029C68.7984 38.6917 68.0984 39.8748 67.7984 41.3536C67.6984 41.9452 67.6984 43.0297 67.7984 43.6212C67.9984 44.5085 68.2984 45.3959 68.7984 45.9874C69.4984 46.8747 70.3984 47.4663 71.4984 47.6635C72.0984 47.762 73.0984 47.762 73.5984 47.5649C74.1984 47.3677 74.5984 47.1705 75.0984 46.7761L75.4984 46.3818V46.8747V47.3677H77.3984H79.2984V42.3395V37.3114H77.3984H75.4984V37.8043V38.2973L75.1984 38.1987C74.6984 37.7058 73.9984 37.3114 73.1984 37.2128C72.8984 37.1142 72.1984 37.1142 71.8984 37.1142ZM86.3984 37.2128C85.6984 37.3114 84.9984 37.8043 84.5984 38.2973L84.3984 38.4945V37.9029V37.3114H82.4984H80.5984V42.3395V47.3677H82.4984H84.3984V44.5085C84.3984 41.4522 84.3984 41.4522 84.5984 40.9593C84.7984 40.5649 85.1984 40.3677 85.5984 40.3677C85.9984 40.3677 86.1984 40.4663 86.4984 40.6635C86.8984 41.0579 86.8984 40.9593 86.8984 44.3114V47.2691H88.7984H90.6984V43.6212C90.6984 39.9734 90.6984 39.9734 90.5984 39.579C90.4984 39.3818 90.3984 38.9874 90.2984 38.6917C90.0984 38.2973 89.9984 38.1987 89.6984 37.9029C89.2984 37.5086 88.9984 37.3114 88.5984 37.1142C87.8984 37.1142 87.0984 37.0156 86.3984 37.2128ZM96.2984 37.2128C94.5984 37.5086 93.2984 38.2973 92.4984 39.6776C92.2984 40.0719 92.0984 40.5649 91.8984 41.0579C91.7984 41.5508 91.7984 41.6494 91.7984 42.4381C91.7984 43.3254 91.7984 43.6212 92.0984 44.3114C92.6984 45.9874 94.0984 47.2691 95.9984 47.6635C96.2984 47.762 96.5984 47.762 97.2984 47.762C98.2984 47.762 98.6984 47.6635 99.3984 47.3677L99.7984 47.1705V45.4945V43.8184L99.4984 44.0156C98.9984 44.3114 98.6984 44.41 98.0984 44.41C97.4984 44.41 97.1984 44.4099 96.7984 44.2128C96.3984 44.0156 96.0984 43.7198 95.8984 43.3254C95.7984 43.0297 95.7984 43.0297 95.7984 42.5367C95.7984 42.1424 95.7984 42.0438 95.8984 41.748C96.1984 40.9593 96.8984 40.5649 97.8984 40.4663C98.5984 40.4663 98.8984 40.4663 99.8984 40.9593C99.8984 40.9593 99.8984 40.1705 99.8984 39.2832V37.6072L99.5984 37.5086C98.4984 37.1142 97.2984 37.0156 96.2984 37.2128ZM104.898 37.2128C101.998 37.7058 100.198 40.1705 100.398 43.0297C100.498 44.0156 100.798 44.9029 101.298 45.593C101.998 46.6775 103.098 47.3677 104.498 47.6635C105.098 47.762 106.698 47.762 107.398 47.6635C108.398 47.4663 109.298 46.9733 109.998 46.2832C110.298 45.9874 110.798 45.2973 110.798 45.2973C110.798 45.2973 110.098 45.0015 109.198 44.7057L107.598 44.1142L107.398 44.3114C107.098 44.6071 106.898 44.7057 106.498 44.8043C105.398 45.1001 104.298 44.5085 104.098 43.5226V43.3254H107.598H111.098V42.4381C111.098 41.8466 111.098 41.4522 110.998 41.255C110.798 40.0719 110.298 39.2832 109.598 38.4945C108.898 37.8043 108.098 37.41 106.998 37.2128C106.598 37.1142 105.398 37.1142 104.898 37.2128ZM51.2984 42.4381V47.4663H53.1984H55.0984V42.4381V37.41H53.1984H51.2984V42.4381ZM106.398 39.9734C106.698 40.0719 106.798 40.1705 107.098 40.3677C107.298 40.5649 107.498 40.7621 107.498 41.0579V41.255H105.798C103.898 41.255 103.998 41.255 104.198 40.8607C104.498 40.1705 105.398 39.7762 106.398 39.9734ZM74.0984 40.4663C74.5984 40.5649 75.1984 41.0579 75.3984 41.5508C75.8984 42.6353 75.3984 43.917 74.1984 44.3114C73.7984 44.4099 73.1984 44.4099 72.7984 44.3114C72.1984 44.1142 71.5984 43.6212 71.4984 43.0297C71.3984 42.7339 71.3984 42.6353 71.3984 42.3395C71.3984 41.9452 71.3984 41.8466 71.5984 41.5508C71.9984 40.6635 72.9984 40.2691 74.0984 40.4663Z" fill="black"/>
</svg>
