<svg width="117" height="49" viewBox="0 0 117 49" fill="none" xmlns="http://www.w3.org/2000/svg">
<path d="M58.8572 5.34701C59.6531 5.3847 60.4132 5.69254 61.0153 6.22096C61.8357 7.00751 62.0509 8.31906 61.6625 9.36843C60.1529 12.5153 56.5628 14.6172 54.1096 15.3125C52.6419 15.6621 50.7865 15.6621 49.4482 15.1377C48.8004 15.531 48.2538 16.802 47.4627 16.2739C46.3177 15.3683 47.3089 13.9509 46.6479 12.9453C46.5116 12.7382 46.1683 12.723 45.9957 12.3842C45.0889 10.3735 46.2114 8.45016 47.4627 6.92075C49.5489 4.56363 55.5341 1.93736 58.8572 5.34701ZM51.9083 6.92012C50.7427 7.1386 49.4263 7.65221 48.7147 8.49385C48.0024 9.33487 47.5497 10.155 47.9812 11.0289C49.492 9.8928 50.2255 8.31907 51.909 7.35773C51.9083 7.1823 52.1672 7.05121 51.9083 6.92012ZM58.9441 7.35773C55.9656 7.09491 53.7212 9.36843 51.6063 11.5533C51.4769 11.9029 50.7002 12.2962 51.3043 12.6894C54.1533 12.9516 56.8724 12.122 58.9441 10.1981C59.5488 9.62999 59.9791 8.88713 59.6783 8.09994C59.5488 7.7947 59.2443 7.48882 58.9441 7.35773ZM84.7529 20.3827C86.1343 23.7923 87.2993 29.1677 84.7529 32.4463C84.0625 33.2329 82.8543 33.958 82.0776 33.3639C79.2285 31.048 78.021 27.7257 76.2513 24.753C75.9924 24.622 75.9924 24.9722 75.8629 25.1033C75.2157 28.119 76.4239 32.053 74.3959 34.4127C73.6192 34.5438 72.8925 34.1391 72.6261 33.3639C71.6331 30.2608 72.668 27.0259 72.9269 23.9228C73.5316 22.3491 73.7905 20.5138 75.1288 19.3333C77.2868 20.2073 78.3224 22.6556 79.5731 24.4478C80.4805 25.8024 81.2134 27.3325 82.249 28.556C83.1551 28.1627 82.7092 26.9632 82.6811 26.2394C82.3346 23.3984 81.558 20.776 80.8238 18.0661C80.7819 17.3669 80.3936 16.1865 81.1258 15.7495C83.0707 16.6241 83.8893 18.6779 84.7529 20.3827V20.3827ZM71.7187 19.3333C71.7187 19.9894 71.2009 20.8089 70.7682 20.907C66.6253 21.5625 62.0071 21.1692 58.123 22.4802C57.9936 22.9608 58.5545 23.0482 58.8566 23.1793C62.1791 23.7037 65.676 23.8348 68.9134 24.6656C70.625 25.1058 71.2447 27.1577 71.3742 28.8619C71.4536 30.2057 70.9433 31.8339 69.6476 32.7522C66.4546 34.8066 61.5775 34.7186 58.3394 32.8402C57.1019 32.1373 55.9224 31.0049 55.8362 29.606C55.8437 28.4952 56.3114 27.6206 57.0881 27.202C60.1961 25.9341 64.037 26.6346 66.7134 28.2507C66.8848 29.1253 65.9505 29.0778 65.5034 29.3875C62.5249 31.136 60.2811 27.4217 57.519 28.7751C57.1306 29.0373 56.8498 29.7687 57.3032 29.9993C60.7126 31.5293 64.511 30.4362 67.8772 29.4749C68.2656 29.3438 68.7408 28.9505 68.7834 28.5572C68.6539 27.1583 67.1005 26.853 66.1075 26.4598C63.1727 25.7169 59.9359 25.7169 56.7848 25.411C56.1807 25.2799 55.4109 24.8537 55.2314 24.3623C54.8862 23.3136 54.8862 21.8709 55.6629 20.997C59.6764 17.4125 65.7617 17.719 70.8545 18.6804C71.2003 18.8089 71.5887 18.94 71.7187 19.3333V19.3333ZM52.8582 20.9944C53.2466 25.19 53.4623 29.081 53.376 33.495C53.2897 34.0625 52.6425 34.1942 52.211 34.4127C51.5206 34.5438 50.6283 34.3949 50.355 34.0194C49.3626 32.4013 49.7077 30.2171 49.6214 28.2501C49.7509 25.1476 49.7077 21.7816 50.5713 18.8963C50.7364 18.4771 51.2186 18.1098 51.6069 18.3713C52.6425 18.8963 52.8151 19.9457 52.8582 20.9944V20.9944ZM100.81 20.3827C101.018 20.7361 101.235 21.282 100.81 21.5188C98.8676 22.3928 96.2355 21.9995 93.9905 22.2617C93.3864 22.786 92.9111 23.66 93.1263 24.4472C93.3433 24.5783 93.5365 24.7777 93.7748 24.7524C95.1549 24.8404 97.2273 24.097 98.1347 25.4079C98.3561 25.798 98.1047 27.2546 97.4874 27.2875C95.8034 27.5072 93.0343 27.0734 92.2208 27.5072C91.1852 28.2064 91.2709 29.561 90.8825 30.6547C91.6167 31.1354 92.3852 30.6433 93.2557 30.523C94.8541 30.2608 96.6238 29.7801 98.2197 30.1297C98.5218 30.6978 98.9539 31.3102 98.6512 32.0093C95.9303 34.1948 92.4209 36.4348 88.6819 34.8503C87.2786 34.2132 86.6533 32.053 87.1286 30.2184C87.43 28.9068 88.7676 27.6396 87.9484 26.2407C87.8189 25.6283 88.1648 25.1045 88.6825 24.9734C90.1065 24.9734 89.8038 23.1812 90.538 22.3503C89.7181 21.4327 87.647 21.4764 87.8627 19.6405C88.8558 19.1161 90.0646 19.2909 91.1852 19.1161C93.7316 18.5911 96.5801 18.2852 99.1715 18.5911C99.6874 18.6962 100.378 19.7272 100.81 20.3827ZM39.1763 10.4172C43.1591 13.7141 48.3263 19.3339 47.6791 25.8024C46.9018 30.9169 41.5501 34.7629 37.0182 35.9871C32.6157 37.298 27.0914 37.1669 22.602 36.1181C22.3 36.949 21.998 37.9534 21.0487 38.3036C20.4446 38.5221 19.6673 38.391 19.1926 37.9978C17.855 36.7299 18.9337 34.2822 16.9914 33.4963C13.1931 31.8789 9.09265 28.6877 7.15095 24.7543C6.89205 23.9678 7.19409 23.1812 7.66873 22.5694C10.6473 20.1655 14.4019 19.2041 18.1571 18.4606C18.3728 18.548 18.2865 18.2421 18.4591 18.1548C18.6749 15.5323 18.7612 12.8655 19.581 10.5052C19.768 10.174 20.2282 10.0682 20.5309 10.2867C22.9047 12.122 21.7822 15.576 22.8184 18.0667C27.3503 18.2852 31.8822 18.5037 35.4642 21.0831C36.673 22.0881 36.9675 24.0077 36.5861 25.1045C36.2052 26.1995 34.9464 26.9841 33.7808 27.0703C33.0035 27.0703 31.5364 27.1469 31.6227 26.5465C31.709 25.9455 34.2629 24.962 33.4787 24.1419C32.3512 22.9634 26.71 22.2623 23.2136 21.8253C22.7821 21.7379 22.3863 21.869 22.3863 22.3497C22.3 25.6713 22.0411 29.3425 22.602 32.5343C22.6452 32.7534 22.9041 33.0156 23.1205 33.0581C29.292 34.0637 35.8094 33.495 40.6433 29.9112C42.8877 28.0766 43.6219 25.4959 43.2329 22.6556C41.2906 14.7445 33.1335 9.97956 26.4436 6.92012C19.9268 4.03546 12.7184 2.54912 4.99287 2.94303C3.76281 3.03423 1.8136 3.46423 1.79922 3.905C1.78484 4.34578 4.00732 4.20708 3.74092 5.04113C3.47515 5.87455 1.21639 5.37995 0.547272 5.17223C-0.12185 4.9645 -0.0568139 3.99177 0.115782 3.38C1.79922 0.364258 6.49683 0.12044 8.61864 0.0146797C20.3577 -0.291835 31.7096 4.23559 39.1763 10.4172V10.4172ZM18.0276 22.1312C15.0491 22.1749 11.8986 22.4808 9.13642 23.5295C8.57549 23.748 7.88448 24.3598 8.31597 25.1033C9.43784 26.6327 11.0425 27.8885 12.5458 28.7745C14.0492 29.6592 16.0421 30.7852 17.855 31.048C18.2865 28.2064 18.2865 25.4091 18.2434 22.4808C18.0701 22.3934 18.2427 22.2186 18.0276 22.1312V22.1312ZM107.24 18.1535C107.11 21.9558 103.613 24.3167 103.613 28.119C103.743 28.2501 103.83 28.4249 104.002 28.3388C106.808 25.235 109.57 20.8203 113.67 19.5094C114.751 19.422 115.727 20.3725 116.131 21.0831C117.555 23.9678 117.212 28.0329 115.225 30.6553C113.176 33.2297 109.614 35.8129 105.558 35.3753C103.875 39.5715 102.708 43.9862 102.061 48.5757C101.715 49.4933 100.896 48.6631 100.378 48.4883C96.8827 45.691 99.7531 38.2859 99.9901 37.341C100.227 36.3987 101.163 34.1758 101.847 32.3146C100.206 29.3432 101.242 25.7581 102.58 23.0045C103.615 21.1686 105.041 19.3327 106.724 17.9344C106.938 17.935 107.11 17.9787 107.24 18.1535V18.1535ZM114.19 22.8741C113.672 22.7867 113.456 23.4865 113.025 23.6175C111.04 25.8904 109.054 28.1633 108.061 30.8732C109.4 31.048 110.521 30.174 111.687 29.6934C113.672 28.4255 114.924 26.3287 114.795 23.9241C114.708 23.5295 114.362 23.2236 114.19 22.8741Z" fill="white"/>
</svg>
