<svg width="42" height="51" viewBox="0 0 42 51" fill="none" xmlns="http://www.w3.org/2000/svg">
<path fill-rule="evenodd" clip-rule="evenodd" d="M31.1427 0.0252558C28.8136 0.24391 25.9691 1.67118 24.2691 3.47414C22.1073 5.76694 20.8792 8.80459 21.0278 11.4911C21.0618 12.1073 21.0225 12.0433 21.38 12.0644C22.2454 12.1154 23.342 11.9322 24.2569 11.5839C26.0499 10.9011 27.819 9.47704 29.2317 7.57928C30.34 6.09045 31.0523 4.50151 31.3468 2.86099C31.4719 2.16423 31.4949 1.88134 31.4955 1.03036C31.4962 0.169838 31.4825 -0.00540416 31.4154 0.000125093C31.3928 0.00199308 31.27 0.0133007 31.1427 0.0252558ZM30.0946 12.0935C28.775 12.1563 27.2398 12.5227 25.2928 13.2396C23.6454 13.8462 22.7369 14.1551 22.0267 14.35C21.6793 14.4454 21.6244 14.4537 21.3442 14.454C21.1115 14.4543 20.9791 14.4404 20.7836 14.3955C20.1378 14.2469 19.154 13.9238 17.7977 13.4146C15.5048 12.5538 14.1339 12.2229 12.862 12.2231C10.5434 12.2236 8.20535 12.9613 6.16051 14.3376C5.83634 14.5558 5.32489 14.9465 4.97687 15.2419C4.6309 15.5355 3.75024 16.4407 3.45248 16.8087C0.644562 20.2791 -0.446675 24.7964 0.164462 30.4201C0.593766 34.3705 2.11636 38.9672 4.18751 42.5657C5.27755 44.4595 7.00776 46.8296 8.3649 48.2881C8.61015 48.5516 9.29249 49.189 9.59792 49.4399C10.9386 50.541 12.2838 51.0627 13.6054 50.994C14.671 50.9386 15.6884 50.6629 17.5418 49.9276C19.2681 49.2426 20.5771 48.9581 22.0145 48.9553C23.4591 48.9525 24.713 49.2354 26.5725 49.9836C29.0887 50.9961 30.7194 51.1784 32.3231 50.6268C34.0335 50.0383 35.5195 48.7249 37.4599 46.0863C39.0637 43.9053 40.0125 42.301 40.9584 40.171C41.3559 39.2757 42.045 37.4265 41.9977 37.3816C41.9863 37.3708 41.8948 37.3258 41.7942 37.2816C41.5064 37.1549 40.98 36.8772 40.665 36.6858C39.8001 36.1602 39.1457 35.6399 38.3612 34.8541C37.3988 33.8902 36.782 33.0363 36.2259 31.8984C35.6615 30.7434 35.3288 29.5606 35.1758 28.1656C35.1225 27.6796 35.1019 26.4704 35.1383 25.9618C35.3724 22.6896 36.7971 20.0785 39.4668 18.0291C39.6678 17.8748 40.475 17.3156 40.6383 17.2176C40.6797 17.1927 40.674 17.1776 40.5629 17.0183C40.0286 16.2529 39.2586 15.4292 38.4949 14.8058C36.7375 13.3715 34.5293 12.4923 31.8946 12.1782C31.1375 12.0879 30.6724 12.066 30.0946 12.0935Z" fill="white"/>
</svg>
