<svg width="49" height="50" viewBox="0 0 49 50" fill="none" xmlns="http://www.w3.org/2000/svg">
<path d="M48.1818 35.9369V12.4998H4.66276V20.2121C7.2706 18.9103 10.2175 18.459 13.0927 18.9212C15.9678 19.3833 18.6279 20.7359 20.7019 22.7902C22.7759 24.8446 24.1606 27.4984 24.6628 30.3816C25.165 33.2648 24.7597 36.2337 23.5034 38.8743L28.3527 43.7492H40.4106C42.4716 43.7492 44.4483 42.9262 45.9057 41.4611C47.3631 39.9959 48.1818 38.0088 48.1818 35.9369V35.9369ZM48.1818 7.81236C48.1818 5.7404 47.3631 3.75329 45.9057 2.28819C44.4483 0.823086 42.4716 0 40.4106 0H12.434C10.373 0 8.3963 0.823086 6.93891 2.28819C5.48151 3.75329 4.66276 5.7404 4.66276 7.81236V9.37484H48.1818V7.81236ZM17.3952 41.5712C15.1923 43.2271 12.4473 43.9828 9.71251 43.6861C6.97774 43.3894 4.45626 42.0624 2.65552 39.9722C0.854779 37.8819 -0.0915486 35.1835 0.00698976 32.4201C0.105528 29.6567 1.24162 27.0334 3.18662 25.0781C5.13161 23.1228 7.74114 21.9807 10.49 21.8816C13.2389 21.7826 15.9231 22.7339 18.0023 24.5442C20.0816 26.3545 21.4016 28.8893 21.6967 31.6385C21.9919 34.3877 21.2401 37.1473 19.5929 39.3618L27.5196 47.3304C27.8114 47.6234 27.9756 48.0209 27.9758 48.4356C27.9761 48.8502 27.8126 49.2479 27.5211 49.5413C27.2297 49.8347 26.8343 49.9997 26.4218 50C26.0094 50.0003 25.6137 49.8359 25.3219 49.5429L17.3952 41.5743V41.5712ZM18.651 32.8119C18.651 30.74 17.8323 28.7529 16.3749 27.2878C14.9175 25.8227 12.9408 24.9996 10.8798 24.9996C8.8187 24.9996 6.84205 25.8227 5.38465 27.2878C3.92726 28.7529 3.1085 30.74 3.1085 32.8119C3.1085 34.8839 3.92726 36.871 5.38465 38.3361C6.84205 39.8012 8.8187 40.6243 10.8798 40.6243C12.9408 40.6243 14.9175 39.8012 16.3749 38.3361C17.8323 36.871 18.651 34.8839 18.651 32.8119Z" fill="url(#paint0_linear_1_11493)"/>
<defs>
<linearGradient id="paint0_linear_1_11493" x1="-19.8315" y1="-37.7086" x2="52.5667" y2="-42.9154" gradientUnits="userSpaceOnUse">
<stop offset="0.00520833" stop-color="#FCB42F"/>
<stop offset="1" stop-color="#CB34E3"/>
</linearGradient>
</defs>
</svg>
