<svg width="145" height="17" viewBox="0 0 145 17" fill="none" xmlns="http://www.w3.org/2000/svg">
<path d="M0 16.7163V15.9537C0.36487 15.9078 0.617167 15.8043 0.760792 15.6396C0.904398 15.4747 0.978153 15.1988 0.978153 14.808V2.14615C0.978153 1.74744 0.904398 1.46398 0.760792 1.29141C0.617167 1.11904 0.36487 1.0117 0 0.96564V0.214676H4.66171C6.2842 0.214676 7.54956 0.547954 8.46178 1.21866C9.37003 1.88937 9.82813 2.81666 9.82813 3.99698C9.82813 5.05098 9.47101 5.93241 8.76075 6.64127C8.0465 7.35033 7.0335 7.83325 5.71376 8.09378C7.2004 8.33514 8.33372 8.8143 9.11787 9.53087C9.90183 10.2474 10.294 11.1672 10.294 12.2825C10.294 13.7196 9.82813 14.8195 8.89659 15.5781C7.96504 16.337 6.61423 16.7163 4.84814 16.7163H0ZM3.88931 7.74508H4.17273C5.06165 7.74508 5.70201 7.48059 6.09398 6.95182C6.48995 6.42284 6.68414 5.55307 6.68414 4.34192C6.68414 3.03134 6.53277 2.1422 6.2338 1.67094C5.93484 1.19949 5.40324 0.961885 4.63462 0.961885C4.33187 0.961885 4.12991 1.01565 4.03291 1.12279C3.93591 1.23013 3.88552 1.45251 3.88552 1.78975V7.74508H3.88931ZM3.88931 8.46561V14.7428C3.88931 15.1988 3.95922 15.5169 4.09505 15.6932C4.23089 15.8695 4.46771 15.9577 4.80153 15.9577C5.5584 15.9577 6.12127 15.6855 6.48994 15.1375C6.85882 14.5896 7.04126 13.7465 7.04126 12.6006C7.04126 11.1328 6.79668 10.0788 6.30372 9.43895C5.80677 8.79513 5.0033 8.47312 3.88931 8.46561Z" fill="#AC2121"/>
<path d="M17.1954 7.70297C17.1954 7.2928 17.1371 7.00538 17.0245 6.84447C16.912 6.68357 16.7025 6.57227 16.3997 6.51495V5.79443C17.1215 5.79443 17.7425 5.78672 18.2628 5.76754C18.7868 5.74837 19.268 5.72168 19.7066 5.68333V14.8309C19.7066 15.2563 19.7688 15.5514 19.893 15.7086C20.0171 15.8657 20.2502 15.9654 20.5918 16.0112V16.7624C19.6757 16.8007 18.9848 16.8314 18.5267 16.8583C18.0686 16.8849 17.6455 16.9118 17.2574 16.9425L17.2109 15.3138C16.7644 15.9039 16.322 16.3332 15.8912 16.5975C15.4602 16.862 14.9905 16.9962 14.482 16.9962C13.6475 16.9962 13.0575 16.724 12.7082 16.1838C12.3588 15.6396 12.1841 14.7006 12.1841 13.3594V7.70297C12.1841 7.27758 12.13 6.98621 12.0212 6.83301C11.9125 6.67961 11.7067 6.57227 11.4117 6.51495V5.79443C12.1338 5.79443 12.7548 5.78672 13.275 5.76754C13.7989 5.74837 14.2803 5.72168 14.7189 5.68333V13.62C14.7189 14.2638 14.7965 14.7236 14.9517 14.9958C15.1071 15.2678 15.3632 15.4058 15.7203 15.4058C16.1822 15.4058 16.5433 15.1873 16.7994 14.7505C17.0556 14.3136 17.1876 13.6967 17.1876 12.9032V7.70297H17.1954Z" fill="#AC2121"/>
<path d="M21.8105 12.3515H22.618C22.8313 13.547 23.2002 14.4937 23.728 15.1796C24.256 15.8695 24.8615 16.2144 25.5525 16.2144C25.9482 16.2144 26.2705 16.0879 26.5228 15.8389C26.775 15.5898 26.9031 15.2678 26.9031 14.8807C26.9031 14.5664 26.8023 14.2561 26.5965 13.9495C26.3908 13.6429 26.0958 13.3632 25.7076 13.1064C25.6029 13.0374 25.4515 12.9415 25.2535 12.8152C23.6465 11.7689 22.6606 10.9488 22.2957 10.3548C22.1288 10.0942 22.0045 9.80682 21.9271 9.50023C21.8454 9.19364 21.8068 8.87182 21.8068 8.53439C21.8068 7.67985 22.0667 6.96703 22.5869 6.38844C23.107 5.8136 23.7435 5.52223 24.5044 5.52223C24.846 5.52223 25.2342 5.61039 25.6766 5.78672C26.1151 5.96305 26.387 6.05121 26.484 6.05121C26.6121 6.05121 26.7324 6.00515 26.8411 5.91699C26.9497 5.82882 27.0429 5.70251 27.1206 5.54536H27.8386V9.58839H27.0662C26.7712 8.51146 26.4025 7.68756 25.9638 7.12418C25.5252 6.56081 25.0322 6.27735 24.4849 6.27735C24.1588 6.27735 23.8794 6.3922 23.6503 6.62605C23.4175 6.8597 23.305 7.14336 23.305 7.48059C23.305 8.08607 23.9571 8.79117 25.2613 9.59215L25.3079 9.61528C26.5151 10.3625 27.3456 11.0407 27.8037 11.6464C28.2617 12.2519 28.4907 12.9415 28.4907 13.7119C28.4907 14.6162 28.1919 15.3905 27.594 16.0344C26.9963 16.6782 26.2705 17 25.4204 17C24.9974 17 24.5548 16.9004 24.0969 16.6972C23.6388 16.4941 23.3671 16.3945 23.2856 16.3945C23.1962 16.3945 23.0954 16.4329 22.9827 16.5056C22.8741 16.5823 22.6995 16.7432 22.4666 17H21.8183V12.3515H21.8105Z" fill="#AC2121"/>
<path d="M32.9313 14.8309C32.9313 15.2334 32.9973 15.5208 33.1253 15.6894C33.2534 15.858 33.4862 15.9729 33.8201 16.0304V16.7163H29.531V16.0304C29.8726 15.9691 30.1054 15.858 30.2297 15.6894C30.3538 15.5208 30.4159 15.2334 30.4159 14.8309V7.74508C30.4159 7.31197 30.35 7.01309 30.2219 6.85218C30.0939 6.69108 29.8648 6.59145 29.5388 6.5531V5.79067C29.9541 5.77525 30.4122 5.75608 30.9051 5.72919C31.3981 5.70251 32.0735 5.66416 32.9273 5.61039V14.8309H32.9313ZM32.8652 1.53672C32.8652 1.9123 32.7216 2.23806 32.4384 2.51777C32.1549 2.79748 31.8211 2.93941 31.4447 2.93941C31.0643 2.93941 30.7342 2.80144 30.451 2.52548C30.1676 2.24953 30.024 1.92001 30.024 1.53672C30.024 1.16114 30.1676 0.835368 30.451 0.555659C30.7342 0.27595 31.068 0.134216 31.4447 0.134216C31.8327 0.134216 32.1665 0.27595 32.4461 0.555659C32.7256 0.835368 32.8652 1.16509 32.8652 1.53672Z" fill="#AC2121"/>
<path d="M38.3577 14.8309C38.3577 15.2334 38.4236 15.5208 38.5517 15.6894C38.68 15.858 38.9128 15.9729 39.2466 16.0304V16.7163H34.9574V16.0304C35.2912 15.9691 35.5202 15.858 35.6405 15.6932C35.7608 15.5283 35.823 15.2409 35.823 14.8272V7.74508C35.823 7.30426 35.7608 7.00538 35.6368 6.84823C35.5125 6.69108 35.2912 6.5954 34.9729 6.55705V5.79443C35.8618 5.75608 36.5334 5.72544 36.9953 5.69855C37.4572 5.67187 37.8843 5.64498 38.2685 5.61434L38.3151 7.24298C38.7614 6.66815 39.2038 6.2467 39.6348 5.98597C40.0656 5.72544 40.5353 5.59122 41.0438 5.59122C41.8783 5.59122 42.4683 5.85946 42.8176 6.3999C43.167 6.94035 43.3417 7.8791 43.3417 9.21656V14.8309C43.3417 15.2409 43.3998 15.5283 43.5124 15.6894C43.6251 15.8503 43.8269 15.9654 44.1141 16.0304V16.7163H40.8032V8.94832C40.8032 8.28928 40.7293 7.82929 40.5819 7.56875C40.4343 7.30822 40.1821 7.174 39.825 7.174C39.3631 7.174 39.002 7.38867 38.7459 7.81782C38.4897 8.24697 38.3577 8.86016 38.3577 9.65343V14.8309Z" fill="#AC2121"/>
<path d="M52.0946 13.0145H52.8437C52.7545 14.2638 52.3856 15.2409 51.7453 15.9462C51.1047 16.6513 50.2664 17 49.2261 17C48.0189 17 47.033 16.4827 46.2644 15.4518C45.4959 14.417 45.1115 13.0795 45.1115 11.4317C45.1115 9.6726 45.4882 8.24698 46.2373 7.15878C46.9864 6.07038 47.953 5.52618 49.1369 5.52618C50.2975 5.52618 51.2057 6.0435 51.8616 7.08208C52.5177 8.12066 52.8437 9.56922 52.8437 11.4317V11.5199H47.9297V11.9338C47.9297 13.2137 48.0888 14.1794 48.4071 14.8347C48.7254 15.4902 49.2028 15.8157 49.8394 15.8157C50.4293 15.8157 50.9223 15.5744 51.3183 15.0877C51.7142 14.6048 51.9743 13.9111 52.0946 13.0145ZM47.9102 10.6001H50.2431V9.89103C50.2431 8.5421 50.1577 7.59939 49.9947 7.06291C49.8278 6.52246 49.5444 6.25422 49.1407 6.25422C48.7332 6.25422 48.4226 6.59541 48.2209 7.27758C48.0151 7.95956 47.9141 8.99063 47.9141 10.3779V10.6001H47.9102Z" fill="#AC2121"/>
<path d="M54.0392 12.3515H54.8466C55.0602 13.547 55.4288 14.4937 55.9566 15.1796C56.4847 15.8695 57.0902 16.2144 57.7811 16.2144C58.1771 16.2144 58.4991 16.0879 58.7515 15.8389C59.0038 15.5898 59.1319 15.2678 59.1319 14.8807C59.1319 14.5664 59.0309 14.2561 58.8252 13.9495C58.6194 13.6429 58.3245 13.3632 57.9363 13.1064C57.8315 13.0374 57.6801 12.9415 57.4821 12.8152C55.8752 11.7689 54.8893 10.9488 54.5244 10.3548C54.3575 10.0942 54.2334 9.80682 54.1557 9.50023C54.0742 9.19364 54.0354 8.87182 54.0354 8.53439C54.0354 7.67985 54.2953 6.96703 54.8156 6.38844C55.3356 5.8136 55.9722 5.52223 56.733 5.52223C57.0746 5.52223 57.4628 5.61039 57.9052 5.78672C58.344 5.96305 58.6156 6.05121 58.7126 6.05121C58.8407 6.05121 58.961 6.00515 59.0698 5.91699C59.1785 5.82882 59.2715 5.70251 59.3492 5.54536H60.0672V9.58839H59.2948C58.9999 8.51146 58.6312 7.68756 58.1926 7.12418C57.7538 6.56081 57.2609 6.27735 56.7137 6.27735C56.3877 6.27735 56.108 6.3922 55.8792 6.62605C55.6461 6.8597 55.5336 7.14336 55.5336 7.48059C55.5336 8.08607 56.1857 8.79117 57.4899 9.59215L57.5365 9.61528C58.7437 10.3625 59.5743 11.0407 60.0324 11.6464C60.4905 12.2519 60.7193 12.9415 60.7193 13.7119C60.7193 14.6162 60.4206 15.3905 59.8228 16.0344C59.2249 16.6782 58.4991 17 57.649 17C57.226 17 56.7834 16.9004 56.3255 16.6972C55.8674 16.4941 55.5957 16.3945 55.5143 16.3945C55.425 16.3945 55.3241 16.4329 55.2115 16.5056C55.1028 16.5823 54.9281 16.7432 54.6953 17H54.0469V12.3515H54.0392Z" fill="#AC2121"/>
<path d="M61.9072 12.3515H62.7145C62.928 13.547 63.2969 14.4937 63.8247 15.1796C64.3525 15.8695 64.9582 16.2144 65.6489 16.2144C66.0449 16.2144 66.3672 16.0879 66.6193 15.8389C66.8717 15.5898 66.9997 15.2678 66.9997 14.8807C66.9997 14.5664 66.899 14.2561 66.6932 13.9495C66.4875 13.6429 66.1925 13.3632 65.8043 13.1064C65.6995 13.0374 65.5481 12.9415 65.3502 12.8152C63.7432 11.7689 62.7573 10.9488 62.3924 10.3548C62.2255 10.0942 62.1012 9.80682 62.0235 9.50023C61.9421 9.19364 61.9032 8.87182 61.9032 8.53439C61.9032 7.67985 62.1634 6.96703 62.6834 6.38844C63.2036 5.8136 63.8402 5.52223 64.6011 5.52223C64.9427 5.52223 65.3306 5.61039 65.7732 5.78672C66.2118 5.96305 66.4835 6.05121 66.5807 6.05121C66.7087 6.05121 66.829 6.00515 66.9376 5.91699C67.0463 5.82882 67.1396 5.70251 67.2172 5.54536H67.9353V9.58839H67.1629C66.8679 8.51146 66.499 7.68756 66.0604 7.12418C65.6218 6.56081 65.1289 6.27735 64.5815 6.27735C64.2555 6.27735 63.976 6.3922 63.747 6.62605C63.5142 6.8597 63.4016 7.14336 63.4016 7.48059C63.4016 8.08607 64.0537 8.79117 65.3579 9.59215L65.4045 9.61528C66.6115 10.3625 67.4423 11.0407 67.9004 11.6464C68.3583 12.2519 68.5874 12.9415 68.5874 13.7119C68.5874 14.6162 68.2884 15.3905 67.6907 16.0344C67.093 16.6782 66.3672 17 65.5171 17C65.094 17 64.6515 16.9004 64.1934 16.6972C63.7355 16.4941 63.4638 16.3945 63.3821 16.3945C63.2929 16.3945 63.1919 16.4329 63.0794 16.5056C62.9708 16.5823 62.7961 16.7432 62.5631 17H61.915V12.3515H61.9072Z" fill="#AC2121"/>
<path d="M74.5417 17V11.3398H75.5199C75.9081 12.8726 76.4204 14.0568 77.0647 14.8807C77.709 15.7086 78.4388 16.1223 79.2461 16.1223C79.7779 16.1223 80.2089 15.95 80.5387 15.605C80.8688 15.2601 81.0317 14.8117 81.0317 14.2561C81.0317 13.7233 80.8686 13.1869 80.5425 12.6389C80.2165 12.0908 79.4441 11.2056 78.2215 9.9792C78.0391 9.80683 77.7827 9.56151 77.4489 9.2397C76.4321 8.25093 75.7722 7.53436 75.4693 7.08584C75.1432 6.59145 74.8989 6.09332 74.7357 5.58747C74.5728 5.08162 74.4911 4.57181 74.4911 4.0545C74.4911 2.90878 74.8289 1.94689 75.5081 1.16885C76.1875 0.390801 77.0103 0 77.9807 0C78.3844 0 78.8425 0.115048 79.3548 0.348699C79.8711 0.582548 80.1971 0.697395 80.333 0.697395C80.5077 0.697395 80.6708 0.643824 80.8221 0.540441C80.9735 0.436859 81.1054 0.279709 81.2219 0.0689882H81.9827V5.44573H81.051C80.7094 3.92048 80.2748 2.76685 79.743 1.99275C79.2112 1.21866 78.594 0.831616 77.8877 0.831616C77.4103 0.831616 77.0181 0.981059 76.7153 1.27994C76.4126 1.57883 76.2612 1.96587 76.2612 2.43733C76.2612 3.29187 77.1695 4.59099 78.9899 6.34634L79.219 6.56081C79.2734 6.61458 79.3626 6.69504 79.4907 6.80613C80.3407 7.59169 81.0395 8.34285 81.5946 9.06337C82.0021 9.61904 82.3126 10.2053 82.5143 10.8262C82.7201 11.4469 82.8211 12.0947 82.8211 12.7692C82.8211 13.9878 82.4835 14.9958 81.8041 15.789C81.1249 16.5823 80.2708 16.9808 79.2383 16.9808C78.7145 16.9808 78.1476 16.8506 77.5344 16.5861C76.9211 16.3218 76.5484 16.1913 76.4204 16.1913C76.2457 16.1913 76.0865 16.2411 75.9429 16.3447C75.7993 16.4481 75.5936 16.6628 75.3297 17H74.5417Z" fill="#AC2121"/>
<path d="M84.7891 14.417V6.71422H83.6285V5.79444C84.432 5.37675 85.0608 4.75961 85.5149 3.94717C85.9691 3.13473 86.2603 2.10386 86.3921 0.854553H87.3003V5.79444H89.3228V6.71422H87.3003V14.4593C87.3003 14.8922 87.3432 15.195 87.4324 15.3637C87.5216 15.5323 87.6692 15.6165 87.8827 15.6165C88.1777 15.6165 88.4068 15.4095 88.5697 14.9995C88.7328 14.5896 88.8143 14.0185 88.8143 13.2942H89.5634V13.4743C89.5634 14.6279 89.3461 15.5016 88.9113 16.1032C88.4765 16.7011 87.8361 17 86.9938 17C86.2369 17 85.6779 16.793 85.3207 16.3754C84.9636 15.9577 84.7891 15.3061 84.7891 14.417Z" fill="#AC2121"/>
<path d="M94.7376 15.471C94.4115 15.9729 94.0389 16.3524 93.6236 16.6092C93.2081 16.8658 92.754 16.9962 92.2688 16.9962C91.5934 16.9962 91.0423 16.7586 90.6075 16.2834C90.1729 15.8082 89.9594 15.1988 89.9594 14.4593C89.9594 13.4705 90.3631 12.566 91.1703 11.746C91.9778 10.9259 93.1151 10.2706 94.5862 9.77619V8.228C94.5862 7.56105 94.489 7.0898 94.295 6.80613C94.101 6.52247 93.775 6.38449 93.3131 6.38449C93.1073 6.38449 92.9093 6.42284 92.7151 6.49578C92.5211 6.57228 92.3465 6.67191 92.1873 6.79842C92.4901 6.902 92.7269 7.06291 92.8938 7.28134C93.0607 7.49977 93.1422 7.75279 93.1422 8.04397C93.1422 8.40413 93.0179 8.6955 92.7735 8.92164C92.5289 9.14759 92.2029 9.25888 91.8031 9.25888C91.3643 9.25888 91.0074 9.13236 90.7395 8.87558C90.4716 8.62256 90.3358 8.29304 90.3358 7.88682C90.3358 7.24299 90.6774 6.69108 91.3605 6.23129C92.0437 5.7715 92.8898 5.54141 93.8953 5.54141C95.0015 5.54141 95.8165 5.77902 96.3328 6.25423C96.853 6.72944 97.1129 7.4806 97.1129 8.50376V14.4093C97.1129 14.8272 97.1402 15.0992 97.1946 15.218C97.249 15.3368 97.342 15.3981 97.4778 15.3981C97.6525 15.3981 97.7806 15.2947 97.866 15.0877C97.9475 14.8807 97.9903 14.5664 97.9903 14.1373H98.5803V14.4516C98.5803 15.2755 98.4172 15.9039 98.0951 16.337C97.7728 16.7701 97.3109 16.9885 96.7132 16.9885C96.2746 16.9885 95.8942 16.8658 95.5721 16.6167C95.2499 16.3676 94.9742 15.996 94.7376 15.471ZM94.59 10.6653C93.9379 10.8531 93.4294 11.2362 93.0645 11.815C92.6996 12.3936 92.5172 13.1218 92.5172 13.9993C92.5172 14.5091 92.5871 14.8884 92.7269 15.1452C92.8665 15.3981 93.0763 15.5283 93.3595 15.5283C93.7011 15.5283 93.9923 15.333 94.2291 14.9383C94.4659 14.5435 94.5862 14.0491 94.5862 13.4514V10.6653H94.59Z" fill="#AC2121"/>
<path d="M102.609 14.8309C102.609 15.2334 102.675 15.5208 102.803 15.6894C102.931 15.858 103.165 15.9729 103.498 16.0304V16.7163H99.2131V16.0304C99.5469 15.9691 99.7757 15.858 99.896 15.6932C100.017 15.5283 100.078 15.2409 100.078 14.8272V7.74508C100.078 7.30426 100.017 7.00538 99.8923 6.84823C99.768 6.69108 99.5469 6.5954 99.2286 6.55705V5.79443C100.117 5.75608 100.789 5.72544 101.251 5.69855C101.713 5.67187 102.14 5.64498 102.524 5.61434L102.571 7.24298C103.017 6.66815 103.459 6.2467 103.89 5.98597C104.321 5.72544 104.791 5.59122 105.299 5.59122C106.134 5.59122 106.724 5.85946 107.073 6.3999C107.422 6.94035 107.597 7.8791 107.597 9.21656V14.8309C107.597 15.2409 107.655 15.5283 107.768 15.6894C107.881 15.8503 108.082 15.9654 108.37 16.0304V16.7163H105.059V8.94832C105.059 8.28928 104.985 7.82929 104.837 7.56875C104.69 7.30822 104.438 7.174 104.081 7.174C103.619 7.174 103.258 7.38867 103.001 7.81782C102.745 8.24697 102.613 8.86016 102.613 9.65343V14.8309H102.609Z" fill="#AC2121"/>
<path d="M115.116 2.08863C115.116 1.68616 115.038 1.39874 114.887 1.23408C114.735 1.06922 114.448 0.958128 114.021 0.896849V0.214674C114.666 0.184035 115.291 0.153197 115.892 0.118802C116.494 0.0844066 117.08 0.0460581 117.65 0V14.877C117.65 15.3099 117.709 15.5973 117.821 15.7315C117.934 15.8655 118.159 15.95 118.493 15.9768V16.7163C118.438 16.7163 118.361 16.7203 118.252 16.728C116.963 16.7893 115.946 16.8506 115.205 16.9195L115.158 15.7278C114.794 16.1455 114.429 16.4635 114.056 16.6782C113.683 16.8927 113.322 16.9962 112.965 16.9962C111.925 16.9962 111.106 16.4942 110.508 15.4902C109.911 14.486 109.612 13.0949 109.612 11.3129C109.612 9.58444 109.934 8.1857 110.578 7.12043C111.223 6.05496 112.045 5.52223 113.047 5.52223C113.443 5.52223 113.808 5.61811 114.149 5.81361C114.491 6.00911 114.813 6.30799 115.116 6.71026V2.08863ZM115.116 9.08255C115.116 8.36973 114.992 7.81407 114.739 7.40785C114.487 7.00163 114.149 6.80237 113.714 6.80237C113.206 6.80237 112.853 7.08979 112.659 7.66838C112.461 8.24322 112.364 9.41978 112.364 11.1941C112.364 13.0412 112.469 14.2638 112.678 14.8616C112.888 15.4593 113.257 15.7545 113.788 15.7545C114.192 15.7545 114.514 15.5629 114.755 15.1836C114.995 14.804 115.12 14.283 115.12 13.6237V9.08255H115.116Z" fill="#AC2121"/>
<path d="M123.966 15.471C123.64 15.9729 123.267 16.3524 122.852 16.6092C122.436 16.8658 121.982 16.9962 121.497 16.9962C120.822 16.9962 120.271 16.7586 119.836 16.2834C119.401 15.8082 119.188 15.1988 119.188 14.4593C119.188 13.4705 119.591 12.566 120.399 11.746C121.206 10.9259 122.343 10.2706 123.814 9.77619V8.228C123.814 7.56105 123.717 7.0898 123.523 6.80613C123.329 6.52247 123.003 6.38449 122.541 6.38449C122.336 6.38449 122.138 6.42284 121.943 6.49578C121.749 6.57228 121.575 6.67191 121.416 6.79842C121.718 6.902 121.955 7.06291 122.122 7.28134C122.289 7.49977 122.37 7.75279 122.37 8.04397C122.37 8.40413 122.246 8.6955 122.002 8.92164C121.757 9.14759 121.431 9.25888 121.031 9.25888C120.593 9.25888 120.236 9.13236 119.968 8.87558C119.7 8.62256 119.564 8.29304 119.564 7.88682C119.564 7.24299 119.906 6.69108 120.589 6.23129C121.272 5.7715 122.118 5.54141 123.124 5.54141C124.23 5.54141 125.045 5.77902 125.561 6.25423C126.081 6.72944 126.341 7.4806 126.341 8.50376V14.4093C126.341 14.8272 126.369 15.0992 126.423 15.218C126.477 15.3368 126.57 15.3981 126.706 15.3981C126.881 15.3981 127.009 15.2947 127.094 15.0877C127.176 14.8807 127.219 14.5664 127.219 14.1373H127.809V14.4516C127.809 15.2755 127.645 15.9039 127.323 16.337C127.001 16.7701 126.539 16.9885 125.941 16.9885C125.503 16.9885 125.122 16.8658 124.8 16.6167C124.478 16.3676 124.199 15.996 123.966 15.471ZM123.814 10.6653C123.162 10.8531 122.654 11.2362 122.289 11.815C121.924 12.3936 121.742 13.1218 121.742 13.9993C121.742 14.5091 121.812 14.8884 121.951 15.1452C122.091 15.3981 122.301 15.5283 122.584 15.5283C122.926 15.5283 123.217 15.333 123.453 14.9383C123.69 14.5435 123.81 14.0491 123.81 13.4514V10.6653H123.814Z" fill="#AC2121"/>
<path d="M128.321 16.7163V16.0304C128.729 15.9422 129 15.8234 129.128 15.678C129.256 15.5323 129.322 15.2409 129.322 14.808V7.70297C129.322 7.28509 129.249 6.99391 129.101 6.83301C128.954 6.6719 128.67 6.56081 128.255 6.50329V5.79443L128.461 5.78296C129.877 5.72168 130.972 5.66791 131.748 5.61434L131.772 7.95955C132.036 7.18942 132.377 6.60311 132.789 6.19689C133.2 5.79067 133.662 5.59122 134.17 5.59122C134.609 5.59122 134.97 5.72919 135.246 6.00139C135.521 6.27339 135.661 6.6298 135.661 7.0629C135.661 7.47288 135.525 7.81011 135.257 8.0746C134.989 8.33514 134.64 8.46936 134.217 8.46936C133.891 8.46936 133.619 8.37744 133.398 8.18965C133.177 8.00185 133.006 7.7259 132.886 7.35803C132.529 7.84471 132.257 8.5077 132.074 9.34683C131.888 10.1862 131.795 11.1749 131.795 12.3094V14.6777C131.795 15.1644 131.877 15.4862 132.039 15.6471C132.203 15.8082 132.525 15.8887 133.01 15.8887H133.146V16.7203H128.321V16.7163Z" fill="#AC2121"/>
<path d="M141.623 2.08863C141.623 1.68616 141.546 1.39874 141.394 1.23408C141.243 1.06922 140.955 0.958128 140.529 0.896849V0.214674C141.173 0.184035 141.798 0.153197 142.399 0.118802C143.001 0.0844066 143.587 0.0460581 144.158 0V14.877C144.158 15.3099 144.216 15.5973 144.329 15.7315C144.441 15.8655 144.666 15.95 145 15.9768V16.7163C144.946 16.7163 144.868 16.7203 144.759 16.728C143.471 16.7893 142.454 16.8506 141.712 16.9195L141.666 15.7278C141.301 16.1455 140.936 16.4635 140.563 16.6782C140.191 16.8927 139.83 16.9962 139.473 16.9962C138.432 16.9962 137.613 16.4942 137.016 15.4902C136.418 14.486 136.119 13.0949 136.119 11.3129C136.119 9.58444 136.441 8.1857 137.086 7.12043C137.73 6.05496 138.553 5.52223 139.554 5.52223C139.95 5.52223 140.315 5.61811 140.657 5.81361C140.998 6.00911 141.32 6.30799 141.623 6.71026V2.08863ZM141.623 9.08255C141.623 8.36973 141.499 7.81407 141.247 7.40785C140.994 7.00163 140.657 6.80237 140.222 6.80237C139.713 6.80237 139.36 7.08979 139.166 7.66838C138.968 8.24322 138.871 9.41978 138.871 11.1941C138.871 13.0412 138.976 14.2638 139.185 14.8616C139.395 15.4593 139.764 15.7545 140.295 15.7545C140.699 15.7545 141.021 15.5629 141.262 15.1836C141.503 14.804 141.627 14.283 141.627 13.6237V9.08255H141.623Z" fill="#AC2121"/>
</svg>
