<svg width="52" height="52" viewBox="0 0 52 52" fill="none" xmlns="http://www.w3.org/2000/svg">
<path fill-rule="evenodd" clip-rule="evenodd" d="M1.76379 5.19951C1.53886 5.31824 1.31875 5.54448 1.19777 5.78145C1.00139 6.16617 0.999812 6.32701 1.00001 26.019C1.00011 44.7205 1.01005 45.8885 1.17228 46.2111C1.26687 46.3994 1.49486 46.6539 1.67884 46.7767L2.01333 47H26.2H50.3867L50.7212 46.7767C50.9051 46.6539 51.1331 46.3994 51.2277 46.2111C51.3899 45.8885 51.3999 44.7205 51.4 26.019C51.4002 6.31904 51.3987 6.16637 51.202 5.78106C51.0745 5.53111 50.8654 5.32217 50.6152 5.19469C50.229 4.99775 50.0905 4.99667 26.1793 5.001C2.4315 5.00533 2.12722 5.00779 1.76379 5.19951ZM8.97331 9.22651V10.5053H6.46313H3.95296V9.22651V7.94772H6.46313H8.97331V9.22651ZM16.9468 9.22651V10.5053H14.4366H11.9265V9.22651V7.94772H14.4366H16.9468V9.22651ZM24.8219 9.22651V10.5053H22.3609H19.9V9.22651V7.94772H22.3609H24.8219V9.22651ZM32.6969 9.22651V10.5053H30.236H27.775V9.22651V7.94772H30.236H32.6969V9.22651ZM40.6704 9.22651V10.5053H38.1602H35.6501V9.22651V7.94772H38.1602H40.6704V9.22651ZM48.447 9.22651V10.5053H46.0353H43.6236V9.22651V7.94772H46.0353H48.447V9.22651ZM27.2073 21.8962C32.2387 24.8292 32.3045 24.8787 32.3801 25.7896C32.4358 26.4608 32.2872 26.9132 31.8829 27.3028C31.5899 27.5854 24.3157 31.8949 23.0282 32.5489C21.965 33.0888 20.8444 32.8507 20.2826 31.9654L19.9984 31.5176V26.0838C19.9984 22.4838 20.0337 20.5566 20.1031 20.3731C20.3861 19.6245 21.2208 19.1302 22.0885 19.1974C22.6182 19.2385 22.9325 19.4042 27.2073 21.8962ZM8.97331 42.7702V44.0489H6.46313H3.95296V42.7702V41.4914H6.46313H8.97331V42.7702ZM16.9251 42.7948L16.9527 44.0489H14.4396H11.9265V42.7685V41.488L14.412 41.5143L16.8976 41.5406L16.9251 42.7948ZM24.8219 42.7702V44.0489H22.3609H19.9V42.7702V41.4914H22.3609H24.8219V42.7702ZM32.6969 42.7702V44.0489H30.236H27.775V42.7702V41.4914H30.236H32.6969V42.7702ZM40.6488 42.7948L40.6763 44.0489H38.1632H35.6501V42.7685V41.488L38.1356 41.5143L40.6212 41.5406L40.6488 42.7948ZM48.447 42.7702V44.0489H46.0353H43.6236V42.7702V41.4914H46.0353H48.447V42.7702Z" fill="url(#paint0_linear_1_12128)"/>
<defs>
<linearGradient id="paint0_linear_1_12128" x1="-19.7445" y1="-26.6753" x2="55.7727" y2="-33.4385" gradientUnits="userSpaceOnUse">
<stop offset="0.00520833" stop-color="#FCB42F"/>
<stop offset="1" stop-color="#CB34E3"/>
</linearGradient>
</defs>
</svg>
