<svg width="80" height="60" viewBox="0 0 80 60" fill="none" xmlns="http://www.w3.org/2000/svg">
<path fill-rule="evenodd" clip-rule="evenodd" d="M19.67 45.8203C19.44 44.7003 18.52 44.4003 17.5 44.3003C14.18 43.9903 13.59 46.4803 13.59 47.5303C13.59 49.3303 14.11 50.8103 17.37 50.8103C17.97 50.8103 19.63 50.1903 19.63 49.1803H24.32C24.13 52.1703 19.12 52.8903 16.93 52.8903C12.4 52.8903 8.51999 52.0403 8.69999 47.5703C8.82999 44.3703 11.85 42.1303 17.84 42.2703C21.18 42.3503 24.39 43.3903 24.4 45.8103H19.67V45.8203Z" fill="#001A54"/>
<path fill-rule="evenodd" clip-rule="evenodd" d="M66.65 45.8203C66.42 44.7003 65.5 44.4003 64.47 44.3003C61.15 43.9903 60.56 46.4803 60.56 47.5303C60.56 49.3303 61.08 50.8103 64.35 50.8103C64.95 50.8103 66.61 50.1903 66.61 49.1803H71.3C71.11 52.1703 66.1 52.8903 63.91 52.8903C59.38 52.8903 55.5 52.0403 55.68 47.5703C55.81 44.3703 58.83 42.1303 64.82 42.2703C68.16 42.3503 71.37 43.3903 71.38 45.8103H66.65V45.8203Z" fill="#001A54"/>
<path fill-rule="evenodd" clip-rule="evenodd" d="M25.24 42.4901H31.33L36.52 49.7901H36.56V42.4901H40.47V52.6301H34.63L29.18 45.3301H29.14V52.6301H25.24V42.4901Z" fill="#001A54"/>
<path fill-rule="evenodd" clip-rule="evenodd" d="M41.6699 42.4901H49.0699C52.6199 42.4901 54.7099 43.4901 54.7099 44.9901C54.7099 45.8801 53.8399 46.9701 51.8799 47.3001V47.3301C54.2299 47.4701 55.0999 48.9601 55.0999 49.8501C55.0999 51.6401 53.0599 52.6301 49.0899 52.6301H41.6699V42.4901ZM45.9499 46.4301H47.1799C49.0699 46.4301 50.0699 46.2801 50.0699 45.5001C50.0699 44.6601 49.2399 44.3801 47.5399 44.3801H45.9599V46.4301H45.9499ZM45.9499 50.5101H47.1799C49.4599 50.5101 50.2899 50.2701 50.2899 49.4801C50.2899 48.6401 49.2399 48.3601 47.5399 48.3601H45.9599V50.5101H45.9499Z" fill="#001A54"/>
<path fill-rule="evenodd" clip-rule="evenodd" d="M66.07 40.8403C65.07 41.2803 63.97 41.4803 62.79 41.4803L15.66 41.4403C12.99 41.2303 10.38 39.0303 9.62997 36.4003C8.83997 33.7703 9.60997 31.0603 11.35 29.1403C13.03 27.4103 15.19 26.6803 17.59 26.9503C15.33 25.4103 14.38 22.8703 14.71 20.1403C15.01 17.7703 16.73 15.4603 18.92 14.5103C21.43 13.3803 24.6 13.9903 26.57 15.9003C26.16 14.5103 25.95 12.5203 26.51 11.1003C27.18 8.85025 29.37 6.85025 31.59 6.38025C34.56 5.74025 37.38 6.86025 39.08 9.40025C39.4 9.88025 39.6 10.4203 39.85 10.9203C40.7 8.49025 43.16 6.47025 45.66 6.21025C48.24 5.88025 50.68 6.98025 52.3 9.16025C53.56 10.9703 53.99 13.6603 53.18 15.8303H53.28C55.15 14.1503 57.99 13.5303 60.4 14.4703C62.7 15.2303 64.66 17.6903 64.97 20.1103C65.32 22.7903 64.41 25.1303 62.38 26.8703C65.45 26.6903 68.37 28.3203 69.63 31.1803C70.74 33.6703 70.41 37.0203 68.54 39.0403C67.78 39.8203 66.97 40.4503 66.07 40.8403Z" fill="white"/>
<path fill-rule="evenodd" clip-rule="evenodd" d="M61.08 26.9505L43.65 38.6105L49.52 24.6605L52.31 18.1605C53.44 16.0605 55.56 14.7205 57.88 14.6805C60.1 14.6805 62.07 15.7505 63.32 17.6705C64.61 19.5905 64.68 22.7205 63.39 24.6605C62.81 25.5705 61.96 26.3805 61.08 26.9505Z" fill="#0080C8"/>
<path fill-rule="evenodd" clip-rule="evenodd" d="M52.4002 15.9499L43.7802 36.3299L43.4002 34.0999L40.8002 17.3999C40.6902 16.3799 41.1102 15.5199 41.9302 14.9599L43.1702 14.2199C43.2402 13.9599 42.8802 13.8799 42.7102 13.7899L40.2802 13.7699C40.1202 11.3599 41.1802 9.17992 43.2202 7.85992C44.8102 6.82992 47.2202 6.55992 48.9802 7.38992C51.2702 8.31992 52.8702 10.7699 52.9102 13.2599C52.9002 14.1799 52.7502 15.1299 52.4002 15.9499Z" fill="#6758A1"/>
<path fill-rule="evenodd" clip-rule="evenodd" d="M35.84 36.4002L27.35 15.9702C26.44 13.7802 26.82 10.9102 28.38 9.14024C30.05 7.29024 32.4 6.50024 34.83 7.13024C36.88 7.63024 38.8 9.60024 39.31 11.7002C39.55 12.4902 39.51 13.4302 39.47 14.2902L35.84 36.4002Z" fill="#CA0538"/>
<path fill-rule="evenodd" clip-rule="evenodd" d="M17.7002 26.2201C15.9602 24.7101 15.1802 22.6901 15.4302 20.3601C15.6802 18.0001 17.5402 15.6901 19.7602 14.9801C22.0402 14.2701 24.5302 14.8301 26.1802 16.5401C26.8802 17.2001 27.3102 17.9901 27.6702 18.8001L35.8702 38.65L17.7002 26.2201Z" fill="#EB6608"/>
<path fill-rule="evenodd" clip-rule="evenodd" d="M15.84 40.7202C13.57 40.4602 11.82 39.2402 10.76 37.1602C9.68002 35.0602 9.96002 32.0802 11.41 30.2202C12.99 28.3202 15.28 27.3702 17.59 27.8402C18.53 27.9902 19.32 28.4002 20.06 28.8602L37.7 40.7202H15.84Z" fill="#FAB900"/>
<path fill-rule="evenodd" clip-rule="evenodd" d="M63.7501 40.7202C66.0201 40.4602 67.7701 39.2402 68.8301 37.1602C69.9101 35.0602 69.6301 32.0802 68.1801 30.2202C66.6001 28.3202 64.3101 27.3702 62.0001 27.8402C61.0601 27.9902 60.2701 28.4002 59.5301 28.8602L41.8901 40.7202H63.7501Z" fill="#13A438"/>
</svg>
