<svg width="24" height="19" viewBox="0 0 24 19" fill="none" xmlns="http://www.w3.org/2000/svg">
<path fill-rule="evenodd" clip-rule="evenodd" d="M6.39746 3.7C6.39746 2.76112 7.19864 2 8.18693 2H21.608C22.5963 2 23.3975 2.76112 23.3975 3.7V11.35C23.3975 12.2889 22.5963 13.05 21.608 13.05H8.18693C7.19864 13.05 6.39746 12.2889 6.39746 11.35V3.7ZM21.608 3.7H9.45228L12.1365 6.25H21.608V3.7ZM21.608 7.95H12.6606V11.35H21.608V7.95ZM10.8711 11.35V7.45208L8.18693 4.90208V11.35H10.8711Z" fill="#E21E25"/>
<path d="M15.3448 13.05H20.7133V15.6H15.3448V13.05Z" fill="#E21E25"/>
<path d="M17.1343 15.6H19.8185V17.3H17.1343V15.6Z" fill="#E21E25"/>
<path fill-rule="evenodd" clip-rule="evenodd" d="M23.3975 19H17.1343V17.3H23.3975V19Z" fill="#E21E25"/>
<path fill-rule="evenodd" clip-rule="evenodd" d="M3.23766 3.12604L3.23766 19H2.1582L2.1582 3.12604H3.23766Z" fill="black"/>
<path d="M2.69878 1.07935L4.56846 4.31773H0.829102L2.69878 1.07935Z" fill="black"/>
<path fill-rule="evenodd" clip-rule="evenodd" d="M5.3973 1.07946H0V0H5.3973V1.07946Z" fill="black"/>
</svg>
