<svg width="12" height="16" viewBox="0 0 12 16" fill="none" xmlns="http://www.w3.org/2000/svg">
<g opacity="0.4">
<path d="M0 2.77778C0 1.24365 1.24365 0 2.77778 0H5.84431C6.15113 0 6.39986 0.248731 6.39986 0.555556V4.1938C6.39986 5.11427 7.14605 5.86047 8.06653 5.86047H11.4442C11.751 5.86047 11.9997 6.1092 11.9997 6.41602V13.2222C11.9997 14.7563 10.7561 16 9.22196 16H2.77778C1.24366 16 0 14.7563 0 13.2222V2.77778Z" fill="white"/>
<path d="M7.19922 0L9.59917 2.51163L11.9991 5.02326H7.75477C7.44795 5.02326 7.19922 4.77452 7.19922 4.4677V0Z" fill="white"/>
</g>
</svg>
