<svg width="29" height="35" viewBox="0 0 29 35" fill="none" xmlns="http://www.w3.org/2000/svg">
<path d="M3.93164 8C3.93164 5.23857 6.17022 3 8.93164 3H19.5282C22.2897 3 24.5282 5.23858 24.5282 8V13.5796C24.5282 16.3411 22.2897 18.5796 19.5282 18.5796H8.93163C6.17021 18.5796 3.93164 16.3411 3.93164 13.5796V8Z" fill="url(#paint0_linear_127_216)"/>
<path d="M3.93164 8C3.93164 5.23857 6.17022 3 8.93164 3H19.5282C22.2897 3 24.5282 5.23858 24.5282 8V13.5796C24.5282 16.3411 22.2897 18.5796 19.5282 18.5796H8.93163C6.17021 18.5796 3.93164 16.3411 3.93164 13.5796V8Z" fill="url(#paint1_linear_127_216)"/>
<path fill-rule="evenodd" clip-rule="evenodd" d="M8.93164 0H19.5282C23.9465 0 27.5282 3.58173 27.5282 8V13.5796C27.5282 17.9979 23.9465 21.5796 19.5282 21.5796H8.93163C4.51335 21.5796 0.931641 17.9979 0.931641 13.5796V8C0.931641 3.58172 4.51337 0 8.93164 0ZM8.93164 3C6.17022 3 3.93164 5.23857 3.93164 8V13.5796C3.93164 16.3411 6.17021 18.5796 8.93163 18.5796H19.5282C22.2897 18.5796 24.5282 16.3411 24.5282 13.5796V8C24.5282 5.23858 22.2897 3 19.5282 3H8.93164Z" fill="#0B1F55"/>
<path d="M2.96484 11.7168C2.96484 8.95538 5.20342 6.7168 7.96484 6.7168H20.1239C22.8854 6.7168 25.1239 8.95537 25.1239 11.7168V21.1953C25.1239 23.9567 22.8854 26.1953 20.1239 26.1953H7.96484C5.20341 26.1953 2.96484 23.9567 2.96484 21.1953V11.7168Z" fill="url(#paint2_linear_127_216)"/>
<path d="M2.96484 11.7168C2.96484 8.95538 5.20342 6.7168 7.96484 6.7168H20.1239C22.8854 6.7168 25.1239 8.95537 25.1239 11.7168V21.1953C25.1239 23.9567 22.8854 26.1953 20.1239 26.1953H7.96484C5.20341 26.1953 2.96484 23.9567 2.96484 21.1953V11.7168Z" fill="url(#paint3_linear_127_216)"/>
<path fill-rule="evenodd" clip-rule="evenodd" d="M7.96484 4.7168H20.1239C23.9899 4.7168 27.1239 7.85081 27.1239 11.7168V21.1953C27.1239 25.0613 23.9899 28.1953 20.1239 28.1953H7.96484C4.09884 28.1953 0.964844 25.0613 0.964844 21.1953V11.7168C0.964844 7.85081 4.09885 4.7168 7.96484 4.7168ZM7.96484 6.7168C5.20342 6.7168 2.96484 8.95538 2.96484 11.7168V21.1953C2.96484 23.9567 5.20341 26.1953 7.96484 26.1953H20.1239C22.8854 26.1953 25.1239 23.9567 25.1239 21.1953V11.7168C25.1239 8.95537 22.8854 6.7168 20.1239 6.7168H7.96484Z" fill="#0B1F55"/>
<path d="M2 15.3789C2 12.6175 4.23858 10.3789 7 10.3789H22C24.7614 10.3789 27 12.6175 27 15.3789V27.9991C27 30.7605 24.7614 32.9991 22 32.9991H7C4.23858 32.9991 2 30.7605 2 27.9991V15.3789Z" fill="url(#paint4_linear_127_216)"/>
<path d="M2 15.3789C2 12.6175 4.23858 10.3789 7 10.3789H22C24.7614 10.3789 27 12.6175 27 15.3789V27.9991C27 30.7605 24.7614 32.9991 22 32.9991H7C4.23858 32.9991 2 30.7605 2 27.9991V15.3789Z" fill="url(#paint5_linear_127_216)"/>
<path fill-rule="evenodd" clip-rule="evenodd" d="M7 8.37891H22C25.866 8.37891 29 11.5129 29 15.3789V27.9991C29 31.8651 25.866 34.9991 22 34.9991H7C3.13401 34.9991 0 31.8651 0 27.9991V15.3789C0 11.5129 3.13401 8.37891 7 8.37891ZM7 10.3789C4.23858 10.3789 2 12.6175 2 15.3789V27.9991C2 30.7605 4.23858 32.9991 7 32.9991H22C24.7614 32.9991 27 30.7605 27 27.9991V15.3789C27 12.6175 24.7614 10.3789 22 10.3789H7Z" fill="#0B1F55"/>
<path d="M13.6364 15.2483C14.0226 14.5884 14.9764 14.5884 15.3625 15.2483L16.8488 17.788C16.9904 18.03 17.2271 18.2014 17.5012 18.2605L20.3799 18.881C21.1305 19.0427 21.4263 19.9551 20.9133 20.5265L18.9558 22.707C18.7676 22.9166 18.6766 23.1959 18.7051 23.4762L19.0015 26.39C19.079 27.1519 18.3063 27.7146 17.605 27.407L14.9011 26.2211C14.6451 26.1088 14.3538 26.1088 14.0978 26.2211L11.3939 27.407C10.6926 27.7146 9.91989 27.1519 9.9974 26.39L10.2938 23.4762C10.3223 23.1959 10.2313 22.9166 10.0431 22.707L8.08558 20.5265C7.5726 19.9551 7.86837 19.0427 8.61902 18.881L11.4978 18.2605C11.7718 18.2014 12.0085 18.03 12.1501 17.788L13.6364 15.2483Z" fill="#0B1F55"/>
<defs>
<linearGradient id="paint0_linear_127_216" x1="-4.54588" y1="-8.74974" x2="26.2628" y2="-11.7895" gradientUnits="userSpaceOnUse">
<stop offset="0.00520833" stop-color="#FCB42F"/>
<stop offset="1" stop-color="#CB34E3"/>
</linearGradient>
<linearGradient id="paint1_linear_127_216" x1="44.9001" y1="18.5696" x2="3.41992" y2="33.2272" gradientUnits="userSpaceOnUse">
<stop offset="0" stop-color="#FF45C8"/>
<stop offset="1" stop-color="#74BCFF"/>
</linearGradient>
<linearGradient id="paint2_linear_127_216" x1="-6.15579" y1="-7.97334" x2="27.0732" y2="-10.7946" gradientUnits="userSpaceOnUse">
<stop offset="0.00520833" stop-color="#FCB42F"/>
<stop offset="1" stop-color="#CB34E3"/>
</linearGradient>
<linearGradient id="paint3_linear_127_216" x1="47.0413" y1="26.1827" x2="1.09059" y2="40.1552" gradientUnits="userSpaceOnUse">
<stop offset="0" stop-color="#FF45C8"/>
<stop offset="1" stop-color="#74BCFF"/>
</linearGradient>
<linearGradient id="paint4_linear_127_216" x1="-8.28995" y1="-6.68061" x2="29.2143" y2="-9.77413" gradientUnits="userSpaceOnUse">
<stop offset="0.00520833" stop-color="#FCB42F"/>
<stop offset="1" stop-color="#CB34E3"/>
</linearGradient>
<linearGradient id="paint5_linear_127_216" x1="51.7272" y1="32.9845" x2="-0.362175" y2="48.3724" gradientUnits="userSpaceOnUse">
<stop offset="0" stop-color="#FF45C8"/>
<stop offset="1" stop-color="#74BCFF"/>
</linearGradient>
</defs>
</svg>
