<svg width="50" height="52" viewBox="0 0 50 52" fill="none" xmlns="http://www.w3.org/2000/svg">
<path fill-rule="evenodd" clip-rule="evenodd" d="M27.213 0.825199C25.9407 -0.275066 24.0537 -0.275066 22.7814 0.825198L19.1836 3.93647C18.4915 4.53502 17.5866 4.8281 16.675 4.74899L11.928 4.33706C10.2482 4.19129 8.71698 5.3031 8.33553 6.94548L7.26811 11.5414C7.06012 12.4369 6.49705 13.2094 5.70819 13.6816L1.64821 16.1116C0.195873 16.9809 -0.39192 18.7888 0.271519 20.346L2.11484 24.6725C2.47625 25.5208 2.47625 26.4797 2.11484 27.328L0.271519 31.6545C-0.39192 33.2117 0.195873 35.0196 1.64821 35.8889L5.70819 38.3189C6.49705 38.7911 7.06012 39.5636 7.26811 40.4592L8.33553 45.055C8.71698 46.6974 10.2482 47.8092 11.928 47.6635L16.675 47.2515C17.5866 47.1724 18.4915 47.4655 19.1836 48.064L22.7814 51.1753C24.0537 52.2756 25.9407 52.2756 27.213 51.1753L30.8108 48.064C31.5029 47.4655 32.4078 47.1724 33.3194 47.2515L38.0664 47.6635C39.7462 47.8092 41.2774 46.6974 41.6589 45.055L42.7263 40.4592C42.9343 39.5636 43.4974 38.7911 44.2862 38.3189L48.3462 35.8889C49.7985 35.0196 50.3863 33.2117 49.7229 31.6545L47.8796 27.328C47.5182 26.4797 47.5182 25.5208 47.8796 24.6725L49.7229 20.346C50.3863 18.7888 49.7985 16.9809 48.3462 16.1116L44.2862 13.6816C43.4974 13.2094 42.9343 12.4369 42.7263 11.5414L41.6589 6.94548C41.2774 5.30311 39.7462 4.19129 38.0664 4.33706L33.3194 4.74899C32.4078 4.8281 31.5029 4.53502 30.8108 3.93647L27.213 0.825199ZM35.4188 21.227C36.1613 20.3812 36.0774 19.0936 35.2316 18.3512C34.3858 17.6088 33.0983 17.6926 32.3559 18.5384L23.0276 29.1655L17.6362 23.949C16.8274 23.1664 15.5374 23.1877 14.7548 23.9965C13.9722 24.8053 13.9935 26.0953 14.8023 26.8779L21.7309 33.5819C22.1317 33.9696 22.6738 34.1762 23.2309 34.1535C23.788 34.1308 24.3115 33.8808 24.6794 33.4617L35.4188 21.227Z" fill="url(#paint0_linear_1_1193)"/>
<defs>
<linearGradient id="paint0_linear_1_1193" x1="-20.5776" y1="-39.2174" x2="54.546" y2="-44.6077" gradientUnits="userSpaceOnUse">
<stop offset="0.00520833" stop-color="#FCB42F"/>
<stop offset="1" stop-color="#CB34E3"/>
</linearGradient>
</defs>
</svg>
