<svg width="52" height="52" viewBox="0 0 52 52" fill="none" xmlns="http://www.w3.org/2000/svg">
<path fill-rule="evenodd" clip-rule="evenodd" d="M2.72759 2.19304C2.51337 2.30625 2.30375 2.52197 2.18853 2.74792C2.00787 3.10227 2 3.29502 2 7.35937C2 11.3958 2.009 11.6196 2.18563 11.9825C2.31181 12.2418 6.45087 16.4448 15.1231 25.1196L27.875 37.8754L32.8671 32.8811L37.8591 27.8866L25.1093 15.1289C16.4384 6.45258 12.2374 2.31159 11.9782 2.18535C11.615 2.00836 11.3964 1.99982 7.33756 2.00376C3.28203 2.0077 3.06134 2.0168 2.72759 2.19304ZM39.9688 2.19529C39.6007 2.41402 28.0625 13.9044 28.0625 14.0522C28.0625 14.1756 37.8311 23.9473 37.9544 23.9473C38.0064 23.9473 40.6729 21.3199 43.88 18.1087C47.9293 14.0541 49.7553 12.1635 49.8555 11.9213C49.9783 11.6249 50 10.9389 50 7.34512C50 3.29333 49.9921 3.10227 49.8113 2.74755C49.6898 2.50922 49.4907 2.31 49.2524 2.18844C48.8976 2.00733 48.7074 1.99964 44.5897 2.00001C40.4106 2.00029 40.2882 2.00555 39.9688 2.19529ZM13.1121 28.9157L12.275 29.7571L11.6553 29.1586C10.8877 28.4171 10.442 28.2568 9.81509 28.4963C9.59131 28.5817 9.32403 28.7588 9.22119 28.8897C9.02075 29.1446 8.83353 29.7057 8.88837 29.8868C8.90684 29.9474 8.94941 30.1217 8.98316 30.2741C9.02525 30.4647 9.54612 31.0583 10.6513 32.1754L12.2582 33.7999L11.2316 34.8302L10.2049 35.8605L13.1799 38.8368L16.1548 41.8132L17.1847 40.7861L18.2145 39.7589L19.8382 41.3666C20.9548 42.4723 21.5482 42.9934 21.7387 43.0355C21.891 43.0693 22.0652 43.1119 22.1258 43.1303C22.3465 43.1972 22.9447 42.9634 23.1959 42.712C23.3376 42.5703 23.4983 42.288 23.553 42.0847C23.7118 41.4946 23.5411 41.0746 22.8524 40.3608L22.2554 39.7421L23.0965 38.9047C23.559 38.444 23.9375 38.0239 23.9375 37.971C23.9375 37.8459 14.1697 28.0742 14.0446 28.0742C13.9921 28.0742 13.5725 28.4529 13.1121 28.9157ZM41.3331 28.5895C41.0419 28.6933 39.6589 30.0259 34.8401 34.8461C28.163 41.5251 28.2907 41.3771 28.5258 42.162C28.5897 42.3753 28.7575 42.6654 28.8987 42.8067C29.1493 43.0574 29.7476 43.2909 29.968 43.2241C30.0285 43.2057 30.2027 43.1631 30.3551 43.1293C30.5456 43.0872 31.1389 42.5661 32.2556 41.4604L33.8791 39.8528L34.8622 40.833L35.8452 41.8131L38.8201 38.8368L41.795 35.8606L40.8142 34.8759L39.8334 33.8914L41.3891 32.3193C42.2446 31.4547 42.9961 30.6479 43.059 30.5264C43.235 30.1866 43.2089 29.5425 43.0047 29.1867C42.8277 28.8781 42.1439 28.4451 41.8473 28.4535C41.768 28.4558 41.5366 28.5169 41.3331 28.5895ZM40.7883 40.8074L37.8119 43.7862L39.3127 45.2855L40.8134 46.7847L43.7893 43.8075L46.7651 40.8303L45.2649 39.3295L43.7647 37.8286L40.7883 40.8074ZM6.68703 39.3768L5.23569 40.8311L8.2115 43.8083L11.1873 46.7855L12.6635 45.3086L14.1397 43.8317L11.1876 40.8771C9.56394 39.2521 8.21366 37.9226 8.18694 37.9226C8.16022 37.9226 7.48522 38.5769 6.68703 39.3768ZM2.83381 43.2922C1.91816 44.5408 1.76581 46.2298 2.43969 47.6618C2.76491 48.3529 3.66828 49.2566 4.35903 49.582C4.65106 49.7196 5.189 49.8835 5.55434 49.9461C6.68956 50.1408 8.01772 49.7966 8.84375 49.0935L9.17188 48.8142L6.21931 45.8539C4.59538 44.2258 3.23516 42.8936 3.19644 42.8936C3.15781 42.8936 2.99459 43.073 2.83381 43.2922ZM45.7807 45.8539L42.8281 48.8142L43.1562 49.0935C43.9823 49.7966 45.3104 50.1408 46.4457 49.9461C47.3855 49.7849 48.0741 49.4298 48.7411 48.7625C50.2233 47.2795 50.4022 44.9777 49.1662 43.2922C49.0054 43.073 48.8422 42.8936 48.8036 42.8936C48.7648 42.8936 47.4046 44.2258 45.7807 45.8539Z" fill="url(#paint0_linear_1_12118)"/>
<defs>
<linearGradient id="paint0_linear_1_12118" x1="-17.7567" y1="-34.2003" x2="54.3398" y2="-39.581" gradientUnits="userSpaceOnUse">
<stop offset="0.00520833" stop-color="#FCB42F"/>
<stop offset="1" stop-color="#CB34E3"/>
</linearGradient>
</defs>
</svg>
