<svg width="130" height="35" viewBox="0 0 130 35" fill="none" xmlns="http://www.w3.org/2000/svg">
<path d="M0 5.18555V9.72688H3.7878V28.5194H8.92954V9.72688H12.7173V5.18555H0Z" fill="white"/>
<path d="M59.3477 5.18555V28.5194H72.065V23.9705H64.9061V19.1269H70.5862V14.578H64.9061V9.72688H72.065V5.18555H59.3477Z" fill="white"/>
<path d="M83.2665 1.29492H77.7168V24.6288H90.4341V20.0814H83.2665V1.29492Z" fill="white"/>
<path d="M126.203 16.1649C127.314 14.9628 127.918 13.4561 127.911 11.9031C127.911 10.1254 127.115 8.4202 125.697 7.16107C124.279 5.90193 122.355 5.19155 120.346 5.18555H114.455V28.5194H120.432C122.048 28.518 123.628 28.0916 124.971 27.2944C126.313 26.4973 127.358 25.3652 127.973 24.0417C128.587 22.7183 128.744 21.2632 128.423 19.8608C128.102 18.4585 127.317 17.1721 126.169 16.1649H126.203ZM120.022 9.73444C120.672 9.73444 121.295 9.96292 121.754 10.3696C122.214 10.7763 122.472 11.3279 122.472 11.9031C122.472 12.4783 122.214 13.0299 121.754 13.4366C121.295 13.8433 120.672 14.0718 120.022 14.0718H119.902V9.73444H120.022ZM123.172 21.2956C123.173 21.6475 123.096 21.9961 122.945 22.3216C122.793 22.647 122.571 22.9427 122.29 23.1919C122.009 23.4411 121.676 23.6388 121.308 23.7737C120.941 23.9086 120.547 23.9781 120.15 23.9781H119.902V18.6206H120.15C120.547 18.6206 120.94 18.6898 121.306 18.8243C121.673 18.9587 122.006 19.1557 122.287 19.4041C122.568 19.6525 122.79 19.9474 122.942 20.2719C123.094 20.5965 123.172 20.9443 123.172 21.2956Z" fill="white"/>
<path d="M34.2347 13.7242C34.237 11.4642 33.2036 9.29578 31.3613 7.69491C29.5189 6.09404 27.0183 5.19155 24.4082 5.18555H18.3691V28.5194H23.9457V22.2552H24.4082C24.7834 22.2552 25.15 22.2552 25.5078 22.2023L29.112 28.5194H35.3256L30.6305 20.3208C31.7583 19.5212 32.6667 18.5146 33.29 17.3737C33.9134 16.2328 34.236 14.9863 34.2347 13.7242ZM23.9457 17.7139V9.73444H24.0591C24.6645 9.73345 25.2642 9.83596 25.8238 10.0361C26.3834 10.2363 26.8918 10.5301 27.3199 10.9008C27.748 11.2715 28.0874 11.7117 28.3185 12.1962C28.5497 12.6807 28.6681 13.2 28.6669 13.7242C28.6669 14.7823 28.1815 15.7971 27.3173 16.5453C26.4532 17.2935 25.2812 17.7139 24.0591 17.7139H23.9457Z" fill="white"/>
<path d="M48.3596 22.8805C48.3596 23.4813 48.1028 24.0574 47.6457 24.4822C47.1886 24.907 46.5686 25.1457 45.9221 25.1457C45.2756 25.1457 44.6556 24.907 44.1985 24.4822C43.7414 24.0574 43.4846 23.4813 43.4846 22.8805V5.18555H38.1504V22.5935C38.1504 24.5089 38.9692 26.3459 40.4267 27.7004C41.8841 29.0548 43.8609 29.8157 45.9221 29.8157C47.9833 29.8157 49.96 29.0548 51.4175 27.7004C52.875 26.3459 53.6938 24.5089 53.6938 22.5935V5.18555H48.3596V22.8805Z" fill="white"/>
<path d="M129.999 32.4082H74.8906V35.0008H129.999V32.4082Z" fill="white"/>
<path d="M129.999 0H74.8906V2.59258H129.999V0Z" fill="white"/>
<path d="M104.548 31.1132H110.217L104.435 7.7793H97.638L91.8477 31.1132H97.5165L98.1763 28.4382H103.897L104.548 31.1132ZM99.2875 23.8893L101.024 16.7411L102.76 23.8893H99.2875Z" fill="white"/>
</svg>
