<svg width="72" height="22" viewBox="0 0 72 22" fill="none" xmlns="http://www.w3.org/2000/svg">
<path d="M20.1108 6.53175C19.9027 7.69127 19.5371 9.39025 19.3545 9.98288L16.6142 19.9994H11.1603L8.23693 9.72546C8.10669 9.28673 7.76776 7.81998 7.6893 6.53175H7.58468V16.6781H9.07226V19.9994H2V16.6781H3.40912V5.32131H2.02562V2H11.9167L14.5523 11.6309L17.0573 2H26.9995V5.32186H25.5653V16.6524H27V20H18.7535V16.6524H20.2154V8.0511V6.53175H20.1108Z" fill="black"/>
<path d="M28 16.6523H29.6002V5.32142H28V2H38.2967C42.8802 2 45.061 3.59607 45.061 6.40319C45.061 8.56673 44.4263 9.6222 42.3556 10.3956C44.3439 10.9099 46 12.2743 46 14.773C46 18.4028 43.8187 20 38.491 20H28V16.6523ZM35.3158 9.26179H36.9992C38.4627 9.26179 38.8761 8.5158 38.8761 7.27957C38.8761 6.09483 38.1037 5.39977 37.0545 5.39977H35.3154V9.26179H35.3158ZM37.5243 16.6523C38.6836 16.6523 39.7598 15.828 39.7598 14.4379C39.7598 13.125 38.9597 12.1725 37.4413 12.1725H35.3158V16.6523H37.5243Z" fill="#FF7D00"/>
<path d="M54.0919 14.18C54.1403 13.4592 54.7924 10.2398 55.2757 7.79371L56.4836 2H61.5075L63.0296 9.10712C63.3676 10.7804 63.6333 12.8929 63.7539 14.1795H63.8739C63.9707 13.0211 64.3813 10.3428 64.5992 9.26102L65.4208 5.34762H64.0923V2.00056H71V5.34874H69.672L66.0725 20H60.3479L58.8985 13.8717C58.681 12.997 58.4148 11.4765 58.2942 10.6791H58.1979C58.101 11.4508 57.7868 13.0731 57.6184 13.8207L56.1451 20H50.5407L47.3521 5.34818H46V2.00056H53.9713V5.34874H52.5703L53.1982 9.10768C53.4635 10.3433 53.874 13.4088 53.9708 14.18H54.0919Z" fill="#FF7D00"/>
</svg>
