<svg width="38" height="32" viewBox="0 0 38 32" fill="none" xmlns="http://www.w3.org/2000/svg">
<path d="M1.77577 4.88381C1.77577 3.58855 2.29032 2.34633 3.20621 1.43044C4.1221 0.514543 5.36432 0 6.65959 0H32.4106C33.7059 0 34.9481 0.514543 35.864 1.43044C36.7799 2.34633 37.2944 3.58855 37.2944 4.88381V23.5311C37.2944 24.1725 37.1681 24.8075 36.9227 25.4001C36.6772 25.9926 36.3175 26.531 35.864 26.9845C35.4105 27.438 34.8721 27.7977 34.2796 28.0432C33.687 28.2886 33.052 28.4149 32.4106 28.4149H20.3787L16.738 24.7743C17.3915 23.4654 17.7592 21.986 17.7592 20.4232H25.3069C25.6601 20.4232 25.9989 20.2829 26.2487 20.0331C26.4985 19.7833 26.6388 19.4445 26.6388 19.0913C26.6388 18.738 26.4985 18.3992 26.2487 18.1494C25.9989 17.8997 25.6601 17.7593 25.3069 17.7593H17.3915C17.1246 16.8153 16.7163 15.9172 16.1804 15.0954H28.8587C29.212 15.0954 29.5508 14.9551 29.8006 14.7053C30.0504 14.4555 30.1907 14.1167 30.1907 13.7635C30.1907 13.4102 30.0504 13.0714 29.8006 12.8216C29.5508 12.5719 29.212 12.4315 28.8587 12.4315H13.6088C12.0194 11.3127 10.0818 10.6556 7.99154 10.6556C5.62955 10.6556 3.46291 11.4938 1.77577 12.8879V4.88381ZM10.2115 7.10373C9.8582 7.10373 9.51941 7.24406 9.26962 7.49385C9.01983 7.74364 8.8795 8.08242 8.8795 8.43568C8.8795 8.78893 9.01983 9.12772 9.26962 9.37751C9.51941 9.6273 9.8582 9.76763 10.2115 9.76763H21.755C22.1083 9.76763 22.447 9.6273 22.6968 9.37751C22.9466 9.12772 23.087 8.78893 23.087 8.43568C23.087 8.08242 22.9466 7.74364 22.6968 7.49385C22.447 7.24406 22.1083 7.10373 21.755 7.10373H10.2115ZM7.99154 28.4149C9.65116 28.4173 11.27 27.9007 12.6214 26.9373L17.2619 31.5761C17.3838 31.7069 17.5309 31.8119 17.6943 31.8847C17.8577 31.9575 18.034 31.9966 18.2129 31.9998C18.3917 32.0029 18.5694 31.9701 18.7352 31.9031C18.9011 31.8361 19.0517 31.7364 19.1782 31.6099C19.3047 31.4834 19.4044 31.3327 19.4714 31.1669C19.5384 31.001 19.5713 30.8234 19.5681 30.6446C19.565 30.4657 19.5258 30.2893 19.453 30.126C19.3802 29.9626 19.2753 29.8155 19.1444 29.6936L14.5057 25.0531C15.5435 23.5928 16.0607 21.8262 15.974 20.0368C15.8874 18.2474 15.202 16.5389 14.028 15.1858C12.8539 13.8326 11.2592 12.9132 9.49984 12.5751C7.74052 12.237 5.91862 12.4999 4.32661 13.3215C2.73461 14.1431 1.46484 15.4758 0.721136 17.1057C-0.0225638 18.7355 -0.197057 20.568 0.225669 22.3089C0.648394 24.0499 1.64382 25.5983 3.05215 26.7056C4.46048 27.8129 6.20002 28.4149 7.99154 28.4149V28.4149ZM7.99154 25.751C6.57852 25.751 5.22337 25.1897 4.22422 24.1905C3.22506 23.1914 2.66374 21.8362 2.66374 20.4232C2.66374 19.0102 3.22506 17.6551 4.22422 16.6559C5.22337 15.6567 6.57852 15.0954 7.99154 15.0954C9.40456 15.0954 10.7597 15.6567 11.7589 16.6559C12.758 17.6551 13.3193 19.0102 13.3193 20.4232C13.3193 21.8362 12.758 23.1914 11.7589 24.1905C10.7597 25.1897 9.40456 25.751 7.99154 25.751V25.751Z" fill="white"/>
</svg>
