<svg width="22" height="32" viewBox="0 0 22 32" fill="none" xmlns="http://www.w3.org/2000/svg">
<path fill-rule="evenodd" clip-rule="evenodd" d="M11 32C11 32 10.5774 31.5236 9.89779 30.6942C7.11035 27.2926 0 17.9535 0 11.2C0 5.016 4.92643 0 11 0C17.0736 0 22 5.016 22 11.2C22 17.9535 14.8896 27.2926 12.1022 30.6942C11.4226 31.5236 11 32 11 32ZM5.35938 11.0176C5.35938 14.1193 7.84086 16.7018 10.9803 16.7018C14.1197 16.7018 16.6011 14.1193 16.6011 11.0176C16.6011 7.91585 14.1196 5.33337 10.9803 5.33337C7.84086 5.33337 5.35938 7.91585 5.35938 11.0176Z" fill="currentColor"/>
</svg>
