<svg xmlns="http://www.w3.org/2000/svg" xmlns:xlink="http://www.w3.org/1999/xlink"><symbol id="icon-arrow-black" viewBox="0 0 8 10">
<path d="M8 5L0 10L0 0L8 5Z" fill="#343741"/>
</symbol><symbol id="icon-arrow-right" viewBox="0 0 33 16">
<path fill-rule="evenodd" clip-rule="evenodd" d="M27 9H0V7H27V9Z" fill="currentColor"/>
<path fill-rule="evenodd" clip-rule="evenodd" d="M25.61 0.707397L32.5003 6.00762V9.99242L25.61 15.2926L24.3906 13.7074L30.5003 9.00762V6.99242L24.3906 2.29265L25.61 0.707397Z" fill="currentColor"/>
</symbol><symbol id="icon-bracket-bottom" viewBox="0 0 12 7">
<path fill-rule="evenodd" clip-rule="evenodd" d="M0.207031 1.60968L1.79228 0.390259L5.33821 4.99997H6.6611L10.207 0.390259L11.7923 1.60968L7.6459 6.99997H4.35341L0.207031 1.60968Z" fill="currentColor"/>
</symbol><symbol id="icon-bracket-left" viewBox="0 0 14 24">
<path fill-rule="evenodd" clip-rule="evenodd" d="M12 2L2 9.69231V14.3077L12 22" fill="none" stroke="currentColor" stroke-width="4"/>
</symbol><symbol id="icon-bracket-right" viewBox="0 0 7 12">
<path fill-rule="evenodd" clip-rule="evenodd" d="M1.61005 11.7926L0.390625 10.2074L5.00034 6.66142V5.33853L0.390625 1.7926L1.61005 0.207354L7.00034 4.35373L7.00034 7.64623L1.61005 11.7926Z" fill="currentColor"/>
</symbol><symbol id="icon-burger" viewBox="0 0 32 16">
<rect width="32" height="2" rx="1" fill="currentColor"/>
<rect y="7" width="20" height="2" rx="1" fill="currentColor"/>
<rect y="14" width="26" height="2" rx="1" fill="currentColor"/>
</symbol><symbol id="icon-callback" viewBox="0 0 22 25">
<path fill-rule="evenodd" clip-rule="evenodd" d="M13.8 21.6036C13.8 21.9219 13.6736 22.2271 13.4485 22.4522C13.2235 22.6772 12.9183 22.8036 12.6 22.8036H2.40002C2.08176 22.8036 1.77653 22.6772 1.55149 22.4522C1.32645 22.2271 1.20002 21.9219 1.20002 21.6036V2.40368C1.20002 2.08542 1.32645 1.7802 1.55149 1.55515C1.77653 1.33011 2.08176 1.20368 2.40002 1.20368H3.60001V1.80368C3.60001 2.12194 3.72644 2.42716 3.95149 2.65221C4.17653 2.87725 4.48175 3.00368 4.80001 3.00368H10.2C10.5183 3.00368 10.8235 2.87725 11.0485 2.65221C11.2736 2.42716 11.4 2.12194 11.4 1.80368V1.20368H12.6C12.9183 1.20368 13.2235 1.33011 13.4485 1.55515C13.6736 1.7802 13.8 2.08542 13.8 2.40368V6.00367H15V2.40368C15.0013 2.08814 14.9401 1.77546 14.82 1.48368C14.6999 1.1919 14.5231 0.9268 14.3 0.703676C14.0769 0.480552 13.8118 0.30382 13.52 0.183677C13.2282 0.0635346 12.9155 0.00236007 12.6 0.00368312H2.40002C2.08447 0.00236007 1.77179 0.0635346 1.48002 0.183677C1.18824 0.30382 0.923138 0.480552 0.700014 0.703676C0.476889 0.9268 0.300157 1.1919 0.180015 1.48368C0.0598725 1.77546 -0.00130204 2.08814 2.10104e-05 2.40368V21.6036C-0.00130204 21.9192 0.0598725 22.2319 0.180015 22.5236C0.300157 22.8154 0.476889 23.0805 0.700014 23.3036C0.923138 23.5268 1.18824 23.7035 1.48002 23.8236C1.77179 23.9438 2.08447 24.005 2.40002 24.0036H12.6C12.9155 24.005 13.2282 23.9438 13.52 23.8236C13.8118 23.7035 14.0769 23.5268 14.3 23.3036C14.5231 23.0805 14.6999 22.8154 14.82 22.5236C14.9401 22.2319 15.0013 21.9192 15 21.6036V19.0037H13.8V21.6036ZM4.80001 1.20368H10.2V1.80368H4.80001V1.20368Z"/>
<path fill-rule="evenodd" clip-rule="evenodd" d="M11.54 11.8437L14.57 8.86366L13.56 8.00366L9 12.4837L13.65 17.0036L14.57 16.1036L11.54 13.1237H22V11.8437H11.54Z"/>
</symbol><symbol id="icon-capacity" viewBox="0 0 17 20">
<path fill-rule="evenodd" clip-rule="evenodd" d="M11.8569 4.13232H4.57115L2.14258 11.4282H14.2854L11.8569 4.13232ZM6.31372 9.51074H6.75086L7.52315 10.714H8.60629L7.53286 9.0887L8.59658 7.57115H7.58629L6.77515 8.79237H6.31372V7.57115H5.35686V10.714H6.31372V9.51074ZM9.86194 8.27605H11.4017L11.4065 7.57115H8.9148V10.714H9.86194V8.27605Z" fill="black"/>
<path fill-rule="evenodd" clip-rule="evenodd" d="M7.58887 3.46911C7.24369 3.46911 6.96387 3.76606 6.96387 4.13237V4.79564C6.96387 5.16195 6.68405 5.4589 6.33887 5.4589C5.99369 5.4589 5.71387 5.16195 5.71387 4.79564V4.13237C5.71387 3.03344 6.55333 2.14258 7.58887 2.14258H8.83887C9.8744 2.14258 10.7139 3.03344 10.7139 4.13237V4.79564C10.7139 5.16195 10.434 5.4589 10.0889 5.4589C9.74369 5.4589 9.46387 5.16195 9.46387 4.79564V4.13237C9.46387 3.76606 9.18405 3.46911 8.83887 3.46911H7.58887Z" fill="#E21E25"/>
<path fill-rule="evenodd" clip-rule="evenodd" d="M0 2.14286C0 0.95939 0.95939 0 2.14286 0H14.2857C15.4692 0 16.4286 0.95939 16.4286 2.14286V10.7143C16.4286 11.8978 15.4692 12.8571 14.2857 12.8571H2.14286C0.95939 12.8571 0 11.8978 0 10.7143V2.14286ZM2.14286 1.42857C1.74837 1.42857 1.42857 1.74837 1.42857 2.14286V10.7143C1.42857 11.1088 1.74837 11.4286 2.14286 11.4286H14.2857C14.6802 11.4286 15 11.1088 15 10.7143V2.14286C15 1.74837 14.6802 1.42857 14.2857 1.42857H2.14286Z" fill="#E21E25"/>
<path fill-rule="evenodd" clip-rule="evenodd" d="M0 6.42864C0 6.03415 0.319797 5.71436 0.714286 5.71436H15.7143C16.1088 5.71436 16.4286 6.03415 16.4286 6.42864C16.4286 6.82313 16.1088 7.14293 15.7143 7.14293H0.714286C0.319797 7.14293 0 6.82313 0 6.42864Z" fill="#E21E25"/>
<path d="M7.85742 12.8569H12.8574V15.7141H7.85742V12.8569Z" fill="#E21E25"/>
<path d="M9.28613 15.7144H12.1433V17.8572H9.28613V15.7144Z" fill="#E21E25"/>
<path d="M9.28516 17H16.428V19.1429H9.28516V17Z" fill="#E21E25"/>
</symbol><symbol id="icon-check" viewBox="0 0 11 14">
<path d="M7.87875 0.00370705L4.36712 10.1285L3.74138 10.1292L2.95498 7.87914L0 8.35862L1.9142 13.8358L6.20294 13.8308L11 0L7.87875 0.00370705Z" fill="black"/>
</symbol><symbol id="icon-close" viewBox="0 0 20 20"><path d="M.293 18.291a1 1 0 101.414 1.414L10 11.413l8.292 8.292a1 1 0 101.414-1.414l-8.292-8.292 8.292-8.292A1 1 0 1018.291.293L9.999 8.585 1.707.293A1 1 0 10.293 1.707L8.585 10 .293 18.291z"/></symbol><symbol id="icon-comparison" viewBox="0 0 21 26">
<rect x="16" y="4" width="5" height="19" fill="black"/>
<rect x="9" y="11" width="5" height="12" fill="black"/>
<rect x="2" width="5" height="23" fill="black"/>
<circle cx="5" cy="21" r="5" fill="#E21E25"/>
<rect x="4" y="18" width="2" height="6" fill="white"/>
<rect x="2" y="20" width="6" height="2" fill="white"/>
</symbol><symbol id="icon-doc" viewBox="0 0 20 26">
<path d="M19 5.8V23C19 24.1046 18.1046 25 17 25H3C1.89543 25 1 24.1046 1 23V3C1 1.89543 1.89543 1 3 1H13.8571M19 5.8L13.8571 1M19 5.8H15.8571C14.7526 5.8 13.8571 4.90457 13.8571 3.8V1M4.85714 14.2H15.1429M4.85714 21.4H15.1429M4.85714 17.8H15.1429" fill="none" stroke="#E21E25" stroke-width="1.2" stroke-linecap="round" stroke-linejoin="round"/>
</symbol><symbol id="icon-download" viewBox="0 0 27 27">
<path fill-rule="evenodd" clip-rule="evenodd" d="M12.5 16.75V0H14.5V16.75H12.5ZM6.20735 15.3597L7.7926 14.1403L12.4924 20.25H14.5076L19.2074 14.1403L20.7926 15.3597L15.4924 22.25H11.5076L6.20735 15.3597ZM27 27H0V25H27V27Z" fill="currentColor"/>
</symbol><symbol id="icon-email" viewBox="0 0 24 17">
<path fill-rule="evenodd" clip-rule="evenodd" d="M21.6 0H19.32H4.68H2.4C1.08 0 0 1.08 0 2.4V14.4C0 15.72 1.08 16.8 2.4 16.8H21.6C22.92 16.8 24 15.72 24 14.4V2.4C24 1.08 22.92 0 21.6 0ZM4.68 1.2H19.32H21.48L12.36 7.44C12.18 7.56 11.88 7.56 11.7 7.44L2.64 1.2H4.68ZM22.8 14.4C22.8 15.06 22.26 15.6 21.6 15.6H2.4C1.74 15.6 1.2 15.06 1.2 14.4V2.4C1.2 2.1 1.32 1.86 1.44 1.68L10.98 8.4C11.58 8.82 12.42 8.82 13.02 8.4L22.56 1.68C22.68 1.86 22.8 2.1 22.8 2.4V14.4Z"/>
</symbol><symbol id="icon-engin" viewBox="0 0 24 16">
<path fill-rule="evenodd" clip-rule="evenodd" d="M0 12.2739L0 6.57533H1.29729L1.29729 8.7671H4.54052V10.0822H1.29729L1.29729 12.2739H0Z" fill="black"/>
<path fill-rule="evenodd" clip-rule="evenodd" d="M7.56738 0H13.189V1.31506H7.56738V0Z" fill="black"/>
<path fill-rule="evenodd" clip-rule="evenodd" d="M11.0268 0V4.60271H9.72949V0H11.0268Z" fill="black"/>
<path fill-rule="evenodd" clip-rule="evenodd" d="M17.2969 6.68481C17.2969 5.71643 18.0713 4.9314 19.0266 4.9314H20.1077C21.063 4.9314 21.8374 5.71643 21.8374 6.68481V9.97246C21.8374 10.9408 21.063 11.7259 20.1077 11.7259H19.0266C18.0713 11.7259 17.2969 10.9408 17.2969 9.97246V6.68481ZM19.0266 6.24646C18.7878 6.24646 18.5942 6.44271 18.5942 6.68481V9.97246C18.5942 10.2146 18.7878 10.4108 19.0266 10.4108H20.1077C20.3465 10.4108 20.5401 10.2146 20.5401 9.97246V6.68481C20.5401 6.44271 20.3465 6.24646 20.1077 6.24646H19.0266Z" fill="black"/>
<path fill-rule="evenodd" clip-rule="evenodd" d="M2.81055 5.04113C2.81055 3.83065 3.77858 2.84937 4.9727 2.84937H16.8645C18.0587 2.84937 19.0267 3.83065 19.0267 5.04113V11.5011C19.0267 12.7116 18.0587 13.6928 16.8645 13.6928H16.042L14.329 15.3801C13.9254 15.7776 13.3849 16 12.8222 16H4.9727C3.77858 16 2.81055 15.0187 2.81055 13.8082V5.04113ZM16.8645 5.04113L4.9727 5.04113V13.8082H12.8222L14.5353 12.1209C14.9388 11.7234 15.4793 11.5011 16.042 11.5011H16.8645L16.8645 5.04113Z" fill="#E21E25"/>
<path fill-rule="evenodd" clip-rule="evenodd" d="M24.0003 6.13696V10.5205H22.703V8.98626H21.1895V7.6712H22.703V6.13696H24.0003Z" fill="black"/>
</symbol><symbol id="icon-file" viewBox="0 0 20 26">
<path d="M19 5.8V23C19 24.1046 18.1046 25 17 25H3C1.89543 25 1 24.1046 1 23V3C1 1.89543 1.89543 1 3 1H13.8571M19 5.8L13.8571 1M19 5.8H15.8571C14.7526 5.8 13.8571 4.90457 13.8571 3.8V1M4.85714 14.2H15.1429M4.85714 21.4H15.1429M4.85714 17.8H15.1429" stroke="#E21E25" stroke-width="1.2" stroke-linecap="round" stroke-linejoin="round"/>
</symbol><symbol id="icon-geo" viewBox="0 0 12 17">
<path d="M5.94066 0C2.66057 0 0 2.66475 0 5.95C0 10.4125 5.94066 17 5.94066 17C5.94066 17 11.8813 10.4125 11.8813 5.95C11.8813 2.66475 9.22075 0 5.94066 0ZM5.94066 8.075C4.7695 8.075 3.819 7.123 3.819 5.95C3.819 4.777 4.7695 3.825 5.94066 3.825C7.11182 3.825 8.06232 4.777 8.06232 5.95C8.06232 7.123 7.11182 8.075 5.94066 8.075Z" fill="currentColor"/>
</symbol><symbol id="icon-height" viewBox="0 0 24 19">
<path fill-rule="evenodd" clip-rule="evenodd" d="M6.39746 3.7C6.39746 2.76112 7.19864 2 8.18693 2H21.608C22.5963 2 23.3975 2.76112 23.3975 3.7V11.35C23.3975 12.2889 22.5963 13.05 21.608 13.05H8.18693C7.19864 13.05 6.39746 12.2889 6.39746 11.35V3.7ZM21.608 3.7H9.45228L12.1365 6.25H21.608V3.7ZM21.608 7.95H12.6606V11.35H21.608V7.95ZM10.8711 11.35V7.45208L8.18693 4.90208V11.35H10.8711Z" fill="#E21E25"/>
<path d="M15.3448 13.05H20.7133V15.6H15.3448V13.05Z" fill="#E21E25"/>
<path d="M17.1343 15.6H19.8185V17.3H17.1343V15.6Z" fill="#E21E25"/>
<path fill-rule="evenodd" clip-rule="evenodd" d="M23.3975 19H17.1343V17.3H23.3975V19Z" fill="#E21E25"/>
<path fill-rule="evenodd" clip-rule="evenodd" d="M3.23766 3.12604L3.23766 19H2.1582L2.1582 3.12604H3.23766Z" fill="black"/>
<path d="M2.69878 1.07935L4.56846 4.31773H0.829102L2.69878 1.07935Z" fill="black"/>
<path fill-rule="evenodd" clip-rule="evenodd" d="M5.3973 1.07946H0V0H5.3973V1.07946Z" fill="black"/>
</symbol><symbol id="icon-logo-zoomlion" viewBox="0 0 140 48">
<path d="M140 0H0V48H140V0Z" fill="#A5CF4F"/>
<path d="M110.197 19.6933C110.059 19.1436 109.646 18.594 109.232 18.1817C108.543 17.6321 107.716 17.3573 106.889 17.2198C105.786 16.945 104.821 16.8076 103.718 16.945C102.616 16.945 101.513 17.0824 100.41 17.3573C99.5829 17.4947 98.8936 17.9069 98.2044 18.4566C97.653 18.8688 97.3773 19.4184 97.2394 19.9681C97.1016 20.93 97.1016 21.7545 97.1016 22.7164V24.915C97.1016 25.8768 97.1016 26.8387 97.2394 27.6632C97.3773 28.2129 97.7908 28.7625 98.3422 29.1747C99.0315 29.7244 99.8586 29.9992 100.686 30.1366C101.788 30.4115 102.891 30.5489 103.856 30.4115C104.959 30.4115 106.062 30.274 107.165 29.9992C107.992 29.8618 108.681 29.4496 109.37 28.8999C109.922 28.4877 110.197 27.938 110.335 27.3884C110.473 26.4265 110.473 25.602 110.473 24.6401V22.4415C110.335 21.6171 110.335 20.6552 110.197 19.6933ZM106.475 24.2279C106.475 24.7775 106.475 25.1898 106.475 25.7394C106.475 26.0143 106.338 26.2891 106.062 26.5639C105.786 26.8387 105.51 26.9761 105.097 27.1136C104.683 27.251 104.132 27.3884 103.718 27.251C103.305 27.251 102.891 27.251 102.478 27.1136C102.064 26.9761 101.788 26.8387 101.513 26.5639C101.237 26.2891 101.099 26.0143 101.099 25.7394C101.099 25.1898 101.099 24.7775 101.099 24.2279V22.9912C101.099 22.4415 101.099 22.0293 101.099 21.4796C101.099 21.2048 101.237 20.93 101.513 20.6552C101.788 20.3803 102.064 20.2429 102.478 20.1055C102.891 19.9681 103.443 19.9681 103.856 19.9681C104.27 19.9681 104.821 19.9681 105.235 20.1055C105.648 20.2429 105.924 20.3803 106.2 20.6552C106.475 20.93 106.613 21.2048 106.613 21.4796C106.613 22.0293 106.613 22.4415 106.613 22.9912L106.475 24.2279Z" fill="#343741"/>
<path d="M59.0528 19.6933C58.915 19.1436 58.5014 18.594 58.0879 18.1817C57.3986 17.6321 56.5715 17.3573 55.7444 17.2198C54.6416 16.945 53.6766 16.8076 52.5738 16.945C51.471 16.945 50.3682 17.0824 49.2654 17.3573C48.4383 17.4947 47.7491 17.9069 47.0598 18.4566C46.5084 18.8688 46.2327 19.4184 46.0949 19.9681C45.957 20.93 45.957 21.7545 45.957 22.7164V24.915C45.957 25.8768 45.957 26.8387 46.0949 27.8006C46.2327 28.3503 46.6463 28.8999 47.1977 29.3122C47.8869 29.8618 48.714 30.1366 49.5411 30.274C50.6439 30.5489 51.6089 30.6863 52.7117 30.5489C53.8145 30.5489 54.9173 30.4115 56.0201 30.1366C56.8472 29.9992 57.5365 29.587 58.2257 29.0373C58.7771 28.6251 59.0528 28.0754 59.1907 27.5258C59.3285 26.5639 59.3285 25.7394 59.3285 24.7775V22.5789C59.1907 21.6171 59.1907 20.6552 59.0528 19.6933ZM55.3309 24.2279C55.3309 24.7775 55.3309 25.1898 55.193 25.7394C55.193 26.0143 55.0552 26.2891 54.7795 26.5639C54.5038 26.8387 54.2281 26.9761 53.8145 27.1136C53.401 27.251 52.8495 27.3884 52.436 27.251C52.0224 27.251 51.471 27.251 51.0575 27.1136C50.7818 26.9761 50.3682 26.8387 50.0925 26.5639C49.8168 26.2891 49.679 26.0143 49.679 25.7394C49.679 25.1898 49.679 24.7775 49.679 24.2279V22.9912C49.679 22.4415 49.679 22.0293 49.679 21.4796C49.679 21.2048 49.8168 20.93 50.0925 20.6552C50.3682 20.3803 50.6439 20.2429 51.0575 20.1055C51.471 19.9681 52.0224 19.8307 52.436 19.9681C52.8495 19.9681 53.2631 19.9681 53.8145 20.1055C54.2281 20.2429 54.5038 20.3803 54.7795 20.6552C55.0552 20.93 55.193 21.2048 55.193 21.4796C55.193 22.0293 55.3309 22.4415 55.3309 22.9912V24.2279Z" fill="#343741"/>
<path d="M43.6192 19.6933C43.4814 19.1436 43.0678 18.594 42.6543 18.1817C41.965 17.6321 41.1379 17.3573 40.3108 17.2198C39.208 16.945 38.2431 16.8076 37.1402 16.945C36.0374 16.945 34.9346 17.0824 33.8318 17.3573C33.0047 17.4947 32.3155 17.9069 31.6262 18.4566C31.0748 18.8688 30.7991 19.4184 30.6613 19.9681C30.5234 20.93 30.5234 21.7545 30.5234 22.7164V24.915C30.5234 25.8768 30.5234 26.8387 30.6613 27.6632C30.7991 28.2129 31.2127 28.7625 31.6262 29.1747C32.3155 29.7244 33.1426 29.9992 33.9697 30.1366C35.0725 30.4115 36.0374 30.5489 37.1402 30.4115C38.2431 30.4115 39.3459 30.274 40.4487 29.9992C41.2758 29.8618 41.965 29.4496 42.6543 28.8999C43.2057 28.4877 43.4814 27.938 43.6192 27.3884C43.7571 26.4265 43.7571 25.602 43.7571 24.6401V22.4415C43.8949 21.6171 43.7571 20.6552 43.6192 19.6933ZM39.8973 24.2279C39.8973 24.7775 39.8973 25.1898 39.8973 25.7394C39.8973 26.0143 39.7594 26.2891 39.4837 26.5639C39.208 26.8387 38.9323 26.9761 38.5188 27.1136C38.1052 27.251 37.5538 27.3884 37.1402 27.251C36.7267 27.251 36.3131 27.251 35.8996 27.1136C35.486 26.9761 35.2103 26.8387 34.9346 26.5639C34.6589 26.2891 34.5211 26.0143 34.5211 25.7394C34.5211 25.1898 34.3832 24.7775 34.5211 24.2279V22.9912C34.5211 22.3041 34.5211 21.7545 34.5211 21.4796C34.5211 21.2048 34.6589 20.93 34.9346 20.6552C35.2103 20.3803 35.486 20.2429 35.8996 20.1055C36.3131 19.9681 36.8645 19.9681 37.2781 19.9681C37.6916 19.9681 38.1052 19.9681 38.5188 20.1055C38.9323 20.2429 39.208 20.3803 39.4837 20.6552C39.7594 20.93 39.8973 21.2048 39.8973 21.4796C39.8973 22.0293 39.8973 22.4415 39.8973 22.9912V24.2279Z" fill="#343741"/>
<path d="M112.402 30.2732H116.124V22.9903L121.087 30.2732H124.947V17.0815H121.087V24.3644L116.124 17.0815H112.402V30.2732Z" fill="#343741"/>
<path d="M95.0378 17.0815H90.9023V30.1357H95.0378V17.0815Z" fill="#343741"/>
<path d="M78.3516 30.2732H88.8282V26.9753H82.4871V17.0815H78.3516V30.2732Z" fill="#343741"/>
<path d="M61.2617 30.2732H64.5701V20.242L67.0514 30.2732H70.0841L72.7033 19.9672V30.2732H76.0117V17.0815H70.222L68.7056 23.6774L67.0514 17.0815H61.2617V30.2732Z" fill="#343741"/>
<path d="M16.0469 19.9672H23.7665L16.0469 27.5249V30.2732H28.7291V27.3875H21.1473L28.7291 19.8298V17.0815H16.0469V19.9672Z" fill="#343741"/>
</symbol><symbol id="icon-phone-footer" viewBox="0 0 15 24">
<path fill-rule="evenodd" clip-rule="evenodd" d="M12.6 1.2H2.4C1.73726 1.2 1.2 1.73726 1.2 2.4V21.6C1.2 22.2627 1.73726 22.8 2.4 22.8H12.6C13.2627 22.8 13.8 22.2627 13.8 21.6V2.4C13.8 1.73726 13.2627 1.2 12.6 1.2ZM2.4 0C1.07452 0 0 1.07452 0 2.4V21.6C0 22.9255 1.07452 24 2.4 24H12.6C13.9255 24 15 22.9255 15 21.6V2.4C15 1.07452 13.9255 0 12.6 0H2.4Z"/>
<path fill-rule="evenodd" clip-rule="evenodd" d="M3.6 1.2H11.4V1.80158C11.4 2.46433 10.8627 3.00158 10.2 3.00158H4.8C4.13726 3.00158 3.6 2.46433 3.6 1.80158V1.2ZM10.2 1.2H4.8V1.80158H10.2V1.2Z"/>
</symbol><symbol id="icon-phone-header" viewBox="0 0 15 24">
<path fill-rule="evenodd" clip-rule="evenodd" d="M0 2.4C0 1.07452 1.07452 0 2.4 0H12.6C13.9255 0 15 1.07452 15 2.4V21.6C15 22.9255 13.9255 24 12.6 24H2.4C1.07452 24 0 22.9255 0 21.6V2.4ZM4.89922 1.69849H3.69922V2.30007C3.69922 2.96281 4.23648 3.50007 4.89922 3.50007H10.2992C10.962 3.50007 11.4992 2.96281 11.4992 2.30007V1.69849H10.2992V2.30007H4.89922V1.69849Z" fill="currentColor"/>
</symbol><symbol id="icon-question" viewBox="0 0 14 14">
<circle cx="7" cy="7" r="7" fill="#585858"/>
<path d="M6.43575 8.21111C6.43575 7.82593 6.52142 7.50741 6.69274 7.25556C6.87151 7.0037 7.12849 6.72593 7.46369 6.42222C7.7095 6.2 7.88827 6.01481 8 5.86667C8.11918 5.71111 8.17877 5.53704 8.17877 5.34444C8.17877 5.07037 8.06704 4.85556 7.84358 4.7C7.62756 4.53704 7.33706 4.45556 6.97207 4.45556C6.62197 4.45556 6.30913 4.52963 6.03352 4.67778C5.76536 4.81852 5.53818 5.01852 5.35196 5.27778L4 4.48889C4.31285 4.01481 4.73371 3.64815 5.26257 3.38889C5.79888 3.12963 6.43203 3 7.16201 3C8.01862 3 8.70391 3.18148 9.21788 3.54444C9.73929 3.90741 10 4.41111 10 5.05556C10 5.35926 9.94786 5.62593 9.84358 5.85556C9.74674 6.08518 9.62384 6.28148 9.47486 6.44444C9.33333 6.6 9.14711 6.78148 8.9162 6.98889C8.6406 7.23333 8.43948 7.44074 8.31285 7.61111C8.18622 7.77407 8.12291 7.97407 8.12291 8.21111H6.43575ZM7.28492 11C6.97952 11 6.72253 10.9037 6.51397 10.7111C6.31285 10.5111 6.21229 10.2704 6.21229 9.98889C6.21229 9.70741 6.31285 9.47407 6.51397 9.28889C6.71508 9.0963 6.97207 9 7.28492 9C7.59777 9 7.85475 9.0963 8.05587 9.28889C8.25698 9.47407 8.35754 9.70741 8.35754 9.98889C8.35754 10.2704 8.25326 10.5111 8.04469 10.7111C7.84358 10.9037 7.59032 11 7.28492 11Z" fill="white"/>
</symbol><symbol id="icon-quote" viewBox="0 0 120 70">
<path d="M0 70V51.9355H29.8389V32.7419H0V0H51.992V46.0645C51.992 62.0215 43.0253 70 25.0918 70H0ZM67.8157 70V51.9355H97.6546V32.7419H67.8157V0H119.808V46.0645C119.808 62.0215 110.841 70 92.9075 70H67.8157Z" fill="#F3F3F3"/>
</symbol><symbol id="icon-search" viewBox="0 0 26 25">
<path fill-rule="evenodd" clip-rule="evenodd" d="M10.9512 0.75C5.31709 0.75 0.75 5.32003 0.75 10.9571C0.75 16.5942 5.31709 21.1643 10.9512 21.1643C13.4818 21.1643 15.7976 20.242 17.5805 18.7154L23.8492 24.4122C24.1712 24.7309 24.6895 24.7292 25.0095 24.4073C25.3302 24.0847 25.3304 23.5619 25.0097 23.2392L18.7436 17.5448C20.2462 15.7671 21.1524 13.4677 21.1524 10.9571C21.1524 5.32003 16.5853 0.75 10.9512 0.75ZM2.45 10.9571C2.45 6.25796 6.25692 2.45 10.9512 2.45C15.6455 2.45 19.4524 6.25796 19.4524 10.9571C19.4524 15.6563 15.6455 19.4643 10.9512 19.4643C6.25692 19.4643 2.45 15.6563 2.45 10.9571Z"/>
</symbol><symbol id="icon-triangular" viewBox="0 0 8 10">
<path d="M0.5 4.99995L8 0.669823V9.33008L0.5 4.99995Z" fill="black" fill-opacity="0.9"/>
</symbol><symbol id="icon-type" viewBox="0 0 19 20">
<path d="M15 19L5.30871 15.0354C4.87243 14.8569 4.90285 14.2291 5.35435 14.0937L17.6286 10.4114C18.082 10.2754 18.1101 9.64405 17.6706 9.46826L11.5894 7.03576C11.5303 7.01214 11.4673 7 11.4037 7H6" stroke="#E21E25" stroke-width="2" stroke-linecap="round" fill="none"/>
<rect x="8" y="18" width="11" height="2" fill="black"/>
<path d="M1 2C1 1.44772 1.44772 1 2 1H7.57765C8.12993 1 8.57765 1.44772 8.57765 2V6C8.57765 6.55228 8.12993 7 7.57765 7H2C1.44772 7 1 6.55228 1 6V2Z" stroke="black" stroke-width="2" fill="none"/>
<path d="M2 2L4 4M4 4V6.5M4 4H8" stroke="black" stroke-width="1.2" stroke-linecap="round"/>
</symbol><symbol id="icon-user" viewBox="0 0 17 18">
<path d="M0 14.4001C0 14.4001 2.1 11.4001 8.4 11.4001C14.7 11.4001 16.8 14.4001 16.8 14.4001V17.4001H0V14.4001Z" fill="currentColor"/>
<circle cx="8.39961" cy="4.8" r="4.8" fill="currentColor"/>
</symbol><symbol id="icon-weight" viewBox="0 0 20 17">
<path fill-rule="evenodd" clip-rule="evenodd" d="M16 3.5H4L0 16.5H20L16 3.5ZM6.82369 11.356H7.54369L8.81569 13.5H10.5997L8.83169 10.604L10.5837 7.9H8.91969L7.58369 10.076H6.82369V7.9H5.24769V13.5H6.82369V11.356ZM12.6678 9.156H15.2038L15.2118 7.9H11.1078V13.5H12.6678V9.156Z" fill="black"/>
<path d="M7 4V3C7 1.89543 7.89543 1 9 1H11C12.1046 1 13 1.89543 13 3V4" stroke="#E21E25" stroke-width="2" stroke-linecap="round"/>
</symbol><symbol id="icon-youtube" viewBox="0 0 24 17">
<path fill-rule="evenodd" clip-rule="evenodd" d="M23.76 3.68561C23.76 3.68561 23.52 2.00304 22.8 1.28194C21.92 0.32047 20.88 0.32048 20.4 0.240357C17.04 -9.79011e-06 12 0 12 0C12 0 6.96 -9.79011e-06 3.6 0.240357C3.12 0.32048 2.08 0.32047 1.2 1.28194C0.48 2.00304 0.240002 3.68561 0.240002 3.68561C0.240002 3.68561 0 5.60857 0 7.61162V9.37433C0 11.2973 0.240002 13.3003 0.240002 13.3003C0.240002 13.3003 0.48 14.9829 1.2 15.704C2.08 16.6654 3.28 16.6655 3.84 16.7456C5.76 16.9058 12 16.986 12 16.986C12 16.986 17.04 16.986 20.4 16.7456C20.88 16.6655 21.92 16.6654 22.8 15.704C23.52 14.9829 23.76 13.3003 23.76 13.3003C23.76 13.3003 24 11.3774 24 9.37433V7.61162C24 5.60857 23.76 3.68561 23.76 3.68561ZM9.52 11.5376V4.80734L16 8.17249L9.52 11.5376Z"/>
</symbol></svg>